%TF.GenerationSoftware,KiCad,Pcbnew,5.1.6-c6e7f7d~87~ubuntu20.04.1*%
%TF.CreationDate,2020-09-08T12:35:41+02:00*%
%TF.ProjectId,FShort,4653686f-7274-42e6-9b69-6361645f7063,rev?*%
%TF.SameCoordinates,Original*%
%TF.FileFunction,Soldermask,Bot*%
%TF.FilePolarity,Negative*%
%FSLAX46Y46*%
G04 Gerber Fmt 4.6, Leading zero omitted, Abs format (unit mm)*
G04 Created by KiCad (PCBNEW 5.1.6-c6e7f7d~87~ubuntu20.04.1) date 2020-09-08 12:35:41*
%MOMM*%
%LPD*%
G01*
G04 APERTURE LIST*
%ADD10C,1.100000*%
%ADD11R,4.300000X3.100000*%
%ADD12R,1.800000X1.800000*%
%ADD13O,1.800000X1.800000*%
%ADD14O,2.050000X1.800000*%
%ADD15C,1.550000*%
%ADD16O,1.300000X2.000000*%
G04 APERTURE END LIST*
D10*
%TO.C,J13*%
X157100000Y-41300000D03*
X148500000Y-41310000D03*
%TD*%
D11*
%TO.C,BT1*%
X117300000Y-84200000D03*
X117300000Y-55200000D03*
%TD*%
D12*
%TO.C,J2*%
X104900000Y-93900000D03*
D13*
X107440000Y-93900000D03*
X109980000Y-93900000D03*
X112520000Y-93900000D03*
X115060000Y-93900000D03*
X117600000Y-93900000D03*
X120140000Y-93900000D03*
%TD*%
%TO.C,J3*%
G36*
G01*
X173760294Y-92700000D02*
X172239706Y-92700000D01*
G75*
G02*
X171975000Y-92435294I0J264706D01*
G01*
X171975000Y-91164706D01*
G75*
G02*
X172239706Y-90900000I264706J0D01*
G01*
X173760294Y-90900000D01*
G75*
G02*
X174025000Y-91164706I0J-264706D01*
G01*
X174025000Y-92435294D01*
G75*
G02*
X173760294Y-92700000I-264706J0D01*
G01*
G37*
D14*
X173000000Y-89300000D03*
X173000000Y-86800000D03*
%TD*%
%TO.C,J4*%
X173000000Y-75200000D03*
X173000000Y-77700000D03*
G36*
G01*
X173760294Y-81100000D02*
X172239706Y-81100000D01*
G75*
G02*
X171975000Y-80835294I0J264706D01*
G01*
X171975000Y-79564706D01*
G75*
G02*
X172239706Y-79300000I264706J0D01*
G01*
X173760294Y-79300000D01*
G75*
G02*
X174025000Y-79564706I0J-264706D01*
G01*
X174025000Y-80835294D01*
G75*
G02*
X173760294Y-81100000I-264706J0D01*
G01*
G37*
%TD*%
D15*
%TO.C,J5*%
X171900000Y-45762500D03*
X166900000Y-45762500D03*
D16*
X172900000Y-43062500D03*
X165900000Y-43062500D03*
%TD*%
D14*
%TO.C,J7*%
X161100000Y-69400000D03*
X161100000Y-66900000D03*
X161100000Y-64400000D03*
G36*
G01*
X160339706Y-61000000D02*
X161860294Y-61000000D01*
G75*
G02*
X162125000Y-61264706I0J-264706D01*
G01*
X162125000Y-62535294D01*
G75*
G02*
X161860294Y-62800000I-264706J0D01*
G01*
X160339706Y-62800000D01*
G75*
G02*
X160075000Y-62535294I0J264706D01*
G01*
X160075000Y-61264706D01*
G75*
G02*
X160339706Y-61000000I264706J0D01*
G01*
G37*
%TD*%
%TO.C,J8*%
G36*
G01*
X127260294Y-94200000D02*
X125739706Y-94200000D01*
G75*
G02*
X125475000Y-93935294I0J264706D01*
G01*
X125475000Y-92664706D01*
G75*
G02*
X125739706Y-92400000I264706J0D01*
G01*
X127260294Y-92400000D01*
G75*
G02*
X127525000Y-92664706I0J-264706D01*
G01*
X127525000Y-93935294D01*
G75*
G02*
X127260294Y-94200000I-264706J0D01*
G01*
G37*
X126500000Y-90800000D03*
X126500000Y-88300000D03*
X126500000Y-85800000D03*
%TD*%
M02*
