%TF.GenerationSoftware,KiCad,Pcbnew,5.1.6-c6e7f7d~86~ubuntu20.04.1*%
%TF.CreationDate,2020-06-03T17:40:23+02:00*%
%TF.ProjectId,FShort,4653686f-7274-42e6-9b69-6361645f7063,rev?*%
%TF.SameCoordinates,Original*%
%TF.FileFunction,Copper,L2,Bot*%
%TF.FilePolarity,Positive*%
%FSLAX46Y46*%
G04 Gerber Fmt 4.6, Leading zero omitted, Abs format (unit mm)*
G04 Created by KiCad (PCBNEW 5.1.6-c6e7f7d~86~ubuntu20.04.1) date 2020-06-03 17:40:23*
%MOMM*%
%LPD*%
G01*
G04 APERTURE LIST*
%TA.AperFunction,ComponentPad*%
%ADD10C,4.400000*%
%TD*%
%TA.AperFunction,ComponentPad*%
%ADD11C,0.700000*%
%TD*%
%TA.AperFunction,SMDPad,CuDef*%
%ADD12R,4.200000X3.000000*%
%TD*%
%TA.AperFunction,ComponentPad*%
%ADD13R,1.700000X1.700000*%
%TD*%
%TA.AperFunction,ComponentPad*%
%ADD14O,1.700000X1.700000*%
%TD*%
%TA.AperFunction,ComponentPad*%
%ADD15O,1.950000X1.700000*%
%TD*%
%TA.AperFunction,ComponentPad*%
%ADD16C,1.450000*%
%TD*%
%TA.AperFunction,ComponentPad*%
%ADD17O,1.200000X1.900000*%
%TD*%
%TA.AperFunction,SMDPad,CuDef*%
%ADD18R,5.000000X10.000000*%
%TD*%
%TA.AperFunction,ViaPad*%
%ADD19C,0.800000*%
%TD*%
%TA.AperFunction,Conductor*%
%ADD20C,0.250000*%
%TD*%
%TA.AperFunction,Conductor*%
%ADD21C,0.400000*%
%TD*%
%TA.AperFunction,Conductor*%
%ADD22C,0.254000*%
%TD*%
G04 APERTURE END LIST*
D10*
%TO.P,MH2,1*%
%TO.N,N/C*%
X166700000Y-94700000D03*
D11*
X168350000Y-94700000D03*
X167866726Y-95866726D03*
X166700000Y-96350000D03*
X165533274Y-95866726D03*
X165050000Y-94700000D03*
X165533274Y-93533274D03*
X166700000Y-93050000D03*
X167866726Y-93533274D03*
%TD*%
%TO.P,MH1,1*%
%TO.N,N/C*%
X104566726Y-41233274D03*
X103400000Y-40750000D03*
X102233274Y-41233274D03*
X101750000Y-42400000D03*
X102233274Y-43566726D03*
X103400000Y-44050000D03*
X104566726Y-43566726D03*
X105050000Y-42400000D03*
D10*
X103400000Y-42400000D03*
%TD*%
D12*
%TO.P,BT1,2*%
%TO.N,GND*%
X117300000Y-84200000D03*
%TO.P,BT1,1*%
%TO.N,Net-(BT1-Pad1)*%
X117300000Y-55200000D03*
%TD*%
D13*
%TO.P,J2,1*%
%TO.N,+12V*%
X104900000Y-93900000D03*
D14*
%TO.P,J2,2*%
%TO.N,+5V*%
X107440000Y-93900000D03*
%TO.P,J2,3*%
%TO.N,+3V3*%
X109980000Y-93900000D03*
%TO.P,J2,4*%
%TO.N,I2C2_SCK*%
X112520000Y-93900000D03*
%TO.P,J2,5*%
%TO.N,I2C2_SDA*%
X115060000Y-93900000D03*
%TO.P,J2,6*%
%TO.N,I2C2_SMBA*%
X117600000Y-93900000D03*
%TO.P,J2,7*%
%TO.N,GND*%
X120140000Y-93900000D03*
%TD*%
%TO.P,J3,1*%
%TO.N,+12V*%
%TA.AperFunction,ComponentPad*%
G36*
G01*
X173725000Y-92650000D02*
X172275000Y-92650000D01*
G75*
G02*
X172025000Y-92400000I0J250000D01*
G01*
X172025000Y-91200000D01*
G75*
G02*
X172275000Y-90950000I250000J0D01*
G01*
X173725000Y-90950000D01*
G75*
G02*
X173975000Y-91200000I0J-250000D01*
G01*
X173975000Y-92400000D01*
G75*
G02*
X173725000Y-92650000I-250000J0D01*
G01*
G37*
%TD.AperFunction*%
D15*
%TO.P,J3,2*%
%TO.N,Net-(J3-Pad2)*%
X173000000Y-89300000D03*
%TO.P,J3,3*%
%TO.N,GND*%
X173000000Y-86800000D03*
%TD*%
%TO.P,J4,3*%
%TO.N,GND*%
X173000000Y-75200000D03*
%TO.P,J4,2*%
%TO.N,Net-(J4-Pad2)*%
X173000000Y-77700000D03*
%TO.P,J4,1*%
%TO.N,+12V*%
%TA.AperFunction,ComponentPad*%
G36*
G01*
X173725000Y-81050000D02*
X172275000Y-81050000D01*
G75*
G02*
X172025000Y-80800000I0J250000D01*
G01*
X172025000Y-79600000D01*
G75*
G02*
X172275000Y-79350000I250000J0D01*
G01*
X173725000Y-79350000D01*
G75*
G02*
X173975000Y-79600000I0J-250000D01*
G01*
X173975000Y-80800000D01*
G75*
G02*
X173725000Y-81050000I-250000J0D01*
G01*
G37*
%TD.AperFunction*%
%TD*%
D16*
%TO.P,J5,6*%
%TO.N,GND*%
X171900000Y-45762500D03*
X166900000Y-45762500D03*
D17*
X172900000Y-43062500D03*
X165900000Y-43062500D03*
%TD*%
D15*
%TO.P,J7,4*%
%TO.N,+3V3*%
X161100000Y-69400000D03*
%TO.P,J7,3*%
%TO.N,SWDIO*%
X161100000Y-66900000D03*
%TO.P,J7,2*%
%TO.N,SWCLK*%
X161100000Y-64400000D03*
%TO.P,J7,1*%
%TO.N,GND*%
%TA.AperFunction,ComponentPad*%
G36*
G01*
X160375000Y-61050000D02*
X161825000Y-61050000D01*
G75*
G02*
X162075000Y-61300000I0J-250000D01*
G01*
X162075000Y-62500000D01*
G75*
G02*
X161825000Y-62750000I-250000J0D01*
G01*
X160375000Y-62750000D01*
G75*
G02*
X160125000Y-62500000I0J250000D01*
G01*
X160125000Y-61300000D01*
G75*
G02*
X160375000Y-61050000I250000J0D01*
G01*
G37*
%TD.AperFunction*%
%TD*%
%TO.P,J8,1*%
%TO.N,GND*%
%TA.AperFunction,ComponentPad*%
G36*
G01*
X127225000Y-94150000D02*
X125775000Y-94150000D01*
G75*
G02*
X125525000Y-93900000I0J250000D01*
G01*
X125525000Y-92700000D01*
G75*
G02*
X125775000Y-92450000I250000J0D01*
G01*
X127225000Y-92450000D01*
G75*
G02*
X127475000Y-92700000I0J-250000D01*
G01*
X127475000Y-93900000D01*
G75*
G02*
X127225000Y-94150000I-250000J0D01*
G01*
G37*
%TD.AperFunction*%
%TO.P,J8,2*%
%TO.N,UART1_RX*%
X126500000Y-90800000D03*
%TO.P,J8,3*%
%TO.N,UART1_TX*%
X126500000Y-88300000D03*
%TO.P,J8,4*%
%TO.N,+3V3*%
X126500000Y-85800000D03*
%TD*%
D18*
%TO.P,J14,1*%
%TO.N,Net-(J14-Pad1)*%
X124600000Y-45100000D03*
%TD*%
D19*
%TO.N,Net-(BT1-Pad1)*%
X137400000Y-62100000D03*
%TO.N,GND*%
X108200000Y-83000000D03*
X134700000Y-61900000D03*
X132900000Y-60300000D03*
X130000000Y-53800000D03*
X162500000Y-88900000D03*
X149200000Y-50200000D03*
X154000000Y-50200000D03*
X121200000Y-82800000D03*
X139600000Y-77500000D03*
X131600000Y-77675000D03*
X152400000Y-78600000D03*
X155200000Y-77700000D03*
X156400000Y-83500000D03*
X167600000Y-81800000D03*
X144600000Y-94800000D03*
X129900000Y-94700000D03*
X107900000Y-77200000D03*
X107800000Y-62900000D03*
X170600000Y-60000000D03*
X141200000Y-64900000D03*
X141074999Y-68474999D03*
X149800000Y-63000000D03*
X150000000Y-61100000D03*
X151800000Y-58000000D03*
%TO.N,Net-(C5-Pad1)*%
X144800000Y-58000000D03*
X142570198Y-60129802D03*
%TO.N,Net-(C6-Pad2)*%
X141800000Y-67000000D03*
X148100000Y-60000000D03*
%TO.N,+3V3*%
X161900000Y-83400000D03*
X166300000Y-84100000D03*
X167800000Y-75000000D03*
X166900000Y-71900000D03*
X158100000Y-66000000D03*
X156700000Y-45200000D03*
X174300000Y-45400000D03*
X138800000Y-49000000D03*
X142000000Y-69500000D03*
X140000000Y-73900000D03*
X140700000Y-63600000D03*
X140300000Y-61100000D03*
X141000000Y-56384990D03*
%TO.N,+5V*%
X162500000Y-80200000D03*
X164100000Y-77400000D03*
X128200000Y-49400000D03*
X163000000Y-52800000D03*
X167000000Y-65000000D03*
X108200000Y-85200000D03*
%TO.N,+12V*%
X131300000Y-84500000D03*
X146000000Y-85800000D03*
X148600000Y-94100000D03*
%TO.N,I2C2_SCK*%
X148212653Y-78287347D03*
%TO.N,I2C2_SDA*%
X148800000Y-80100000D03*
%TO.N,Net-(J4-Pad2)*%
X167300000Y-80000000D03*
%TO.N,USB_DM*%
X153178708Y-66635507D03*
X170158230Y-48234506D03*
%TO.N,USB_DP*%
X152471600Y-65928400D03*
X169300000Y-47400000D03*
%TO.N,IO5*%
X142600000Y-74900000D03*
X145700000Y-80100000D03*
X144200000Y-81400000D03*
X140800000Y-84700000D03*
%TO.N,IO4*%
X142910431Y-80893886D03*
X140500000Y-83300000D03*
%TO.N,IO3*%
X135500000Y-83900000D03*
X137300000Y-83300000D03*
%TO.N,UART1_RX*%
X146400000Y-67700000D03*
X141100000Y-94825000D03*
%TO.N,UART1_TX*%
X147400000Y-67800000D03*
X143600000Y-94100000D03*
%TO.N,UART3_TX*%
X147700000Y-65200000D03*
X137600000Y-50400000D03*
%TO.N,UART3_RX*%
X136300000Y-50500000D03*
X145830880Y-66200000D03*
%TO.N,I2C1_SDA*%
X147730838Y-69629146D03*
X165600000Y-67900000D03*
%TO.N,I2C1_SCK*%
X148724035Y-69392280D03*
X167200000Y-62200000D03*
%TO.N,ADC3*%
X140400000Y-76900000D03*
X149000000Y-84800000D03*
%TO.N,ADC4*%
X147000000Y-79300000D03*
X142700000Y-70600000D03*
%TO.N,DAC*%
X147000000Y-78100000D03*
X143548000Y-70070000D03*
%TO.N,SPI2_NSS*%
X156500000Y-77800000D03*
X148100000Y-71300000D03*
%TO.N,SDIO_CD*%
X150000000Y-59200000D03*
X148700000Y-67200000D03*
%TO.N,SDIO_CMD*%
X145976342Y-64636050D03*
X152100000Y-54300000D03*
%TO.N,SDIO_CK*%
X146525000Y-63800000D03*
X154100000Y-53900000D03*
%TO.N,SDIO_D0*%
X154274265Y-59874265D03*
X148600000Y-68400000D03*
%TO.N,Net-(J14-Pad1)*%
X121100000Y-46000000D03*
%TO.N,Radio_rst*%
X140300000Y-78400000D03*
X117940000Y-75860000D03*
%TO.N,Radio_rxen*%
X131600000Y-61400000D03*
X143418927Y-76219777D03*
%TO.N,Radio_txen*%
X130975000Y-63800000D03*
X143115049Y-77215049D03*
%TO.N,Radio_dio0*%
X141007108Y-79107108D03*
X118777347Y-77722653D03*
%TO.N,Radio_dio1*%
X119314694Y-79285306D03*
X142800000Y-79900000D03*
%TD*%
D20*
%TO.N,Net-(BT1-Pad1)*%
X130348001Y-53074999D02*
X137400000Y-60126998D01*
X119425001Y-53074999D02*
X130348001Y-53074999D01*
X137400000Y-60126998D02*
X137400000Y-62100000D01*
X117300000Y-55200000D02*
X119425001Y-53074999D01*
D21*
%TO.N,GND*%
X174375010Y-76575010D02*
X173000000Y-75200000D01*
X174375010Y-85424990D02*
X174375010Y-76575010D01*
X173000000Y-86800000D02*
X174375010Y-85424990D01*
X117300000Y-84200000D02*
X109100000Y-84200000D01*
X108200000Y-83300000D02*
X108200000Y-83000000D01*
X109100000Y-84200000D02*
X108200000Y-83300000D01*
X134500000Y-61900000D02*
X132900000Y-60300000D01*
X134700000Y-61900000D02*
X134500000Y-61900000D01*
X132900000Y-56700000D02*
X130000000Y-53800000D01*
X132900000Y-60300000D02*
X132900000Y-56700000D01*
X120140000Y-87040000D02*
X117300000Y-84200000D01*
X120140000Y-93900000D02*
X120140000Y-87040000D01*
X125900000Y-93900000D02*
X126500000Y-93300000D01*
X120140000Y-93900000D02*
X125900000Y-93900000D01*
X164600000Y-86800000D02*
X162500000Y-88900000D01*
X173000000Y-86800000D02*
X164600000Y-86800000D01*
X149200000Y-50200000D02*
X154000000Y-50200000D01*
X119800000Y-84200000D02*
X117300000Y-84200000D01*
X121200000Y-82800000D02*
X119800000Y-84200000D01*
X131775000Y-77500000D02*
X131600000Y-77675000D01*
X139600000Y-77500000D02*
X131775000Y-77500000D01*
X154300000Y-78600000D02*
X155200000Y-77700000D01*
X152400000Y-78600000D02*
X154300000Y-78600000D01*
X156400000Y-83500000D02*
X155200000Y-82300000D01*
X155200000Y-79500000D02*
X154300000Y-78600000D01*
X155200000Y-82300000D02*
X155200000Y-79500000D01*
X172600000Y-86800000D02*
X173000000Y-86800000D01*
X167600000Y-81800000D02*
X172600000Y-86800000D01*
X130825001Y-95625001D02*
X129900000Y-94700000D01*
X143774999Y-95625001D02*
X130825001Y-95625001D01*
X144600000Y-94800000D02*
X143774999Y-95625001D01*
X107900000Y-63000000D02*
X107800000Y-62900000D01*
X107900000Y-77200000D02*
X107900000Y-63000000D01*
X173000000Y-62400000D02*
X170600000Y-60000000D01*
X173000000Y-75200000D02*
X173000000Y-62400000D01*
D20*
X141074999Y-65025001D02*
X141200000Y-64900000D01*
X137700000Y-64900000D02*
X134700000Y-61900000D01*
X141200000Y-64900000D02*
X137700000Y-64900000D01*
X137700000Y-65100000D02*
X137700000Y-64900000D01*
X141074999Y-68474999D02*
X137700000Y-65100000D01*
X149800000Y-61300000D02*
X150000000Y-61100000D01*
X149800000Y-63000000D02*
X149800000Y-61300000D01*
X151800000Y-59300000D02*
X151800000Y-58000000D01*
X150000000Y-61100000D02*
X151800000Y-59300000D01*
%TO.N,Net-(C5-Pad1)*%
X142670198Y-60129802D02*
X142570198Y-60129802D01*
X144800000Y-58000000D02*
X142670198Y-60129802D01*
%TO.N,Net-(C6-Pad2)*%
X148425001Y-64061411D02*
X147700000Y-63336410D01*
X148425001Y-65548001D02*
X148425001Y-64061411D01*
X148048001Y-65925001D02*
X148425001Y-65548001D01*
X147178881Y-65925001D02*
X148048001Y-65925001D01*
X146103882Y-67000000D02*
X147178881Y-65925001D01*
X141800000Y-67000000D02*
X146103882Y-67000000D01*
X147700000Y-63336410D02*
X147700000Y-61800000D01*
X147700000Y-60400000D02*
X148100000Y-60000000D01*
X147700000Y-61800000D02*
X147700000Y-60400000D01*
D21*
%TO.N,+3V3*%
X162600000Y-84100000D02*
X166300000Y-84100000D01*
X161900000Y-83400000D02*
X162600000Y-84100000D01*
X166300000Y-76500000D02*
X167800000Y-75000000D01*
X166300000Y-84100000D02*
X166300000Y-76500000D01*
X167800000Y-72800000D02*
X166900000Y-71900000D01*
X167800000Y-75000000D02*
X167800000Y-72800000D01*
X161100000Y-69000000D02*
X161100000Y-69400000D01*
X158100000Y-66000000D02*
X161100000Y-69000000D01*
X173537499Y-44637499D02*
X174300000Y-45400000D01*
X157262501Y-44637499D02*
X173537499Y-44637499D01*
X156700000Y-45200000D02*
X157262501Y-44637499D01*
X114799999Y-53379999D02*
X116779998Y-51400000D01*
X114799999Y-75954613D02*
X114799999Y-53379999D01*
X119374072Y-80528686D02*
X114799999Y-75954613D01*
X122478686Y-80528686D02*
X119374072Y-80528686D01*
X126500000Y-84550000D02*
X122478686Y-80528686D01*
X126500000Y-85800000D02*
X126500000Y-84550000D01*
X136615998Y-49000000D02*
X138800000Y-49000000D01*
X134215998Y-51400000D02*
X136615998Y-49000000D01*
X116779998Y-51400000D02*
X134215998Y-51400000D01*
D20*
X140000000Y-71500000D02*
X140000000Y-73900000D01*
X142000000Y-69500000D02*
X140000000Y-71500000D01*
X140973002Y-63600000D02*
X140700000Y-63600000D01*
X141925001Y-64551999D02*
X140973002Y-63600000D01*
X141925001Y-65801997D02*
X141925001Y-64551999D01*
X141074999Y-66651999D02*
X141925001Y-65801997D01*
X141074999Y-67348001D02*
X141074999Y-66651999D01*
X142000000Y-68273002D02*
X141074999Y-67348001D01*
X142000000Y-69500000D02*
X142000000Y-68273002D01*
X141000000Y-60400000D02*
X141000000Y-56384990D01*
X140300000Y-61100000D02*
X141000000Y-60400000D01*
D21*
%TO.N,+5V*%
X162500000Y-79000000D02*
X164100000Y-77400000D01*
X162500000Y-80200000D02*
X162500000Y-79000000D01*
X158399999Y-48199999D02*
X163000000Y-52800000D01*
X129400001Y-48199999D02*
X158399999Y-48199999D01*
X128200000Y-49400000D02*
X129400001Y-48199999D01*
X164100000Y-70584002D02*
X164100000Y-77400000D01*
X167000000Y-67684002D02*
X164100000Y-70584002D01*
X167000000Y-65000000D02*
X167000000Y-67684002D01*
X107440000Y-87440000D02*
X107440000Y-85960000D01*
X107440000Y-85960000D02*
X108200000Y-85200000D01*
X107440000Y-87440000D02*
X107440000Y-93900000D01*
%TO.N,+12V*%
X132600000Y-85800000D02*
X146000000Y-85800000D01*
X131300000Y-84500000D02*
X132600000Y-85800000D01*
X148600000Y-94100000D02*
X149000000Y-94500000D01*
X158400000Y-91800000D02*
X155700000Y-94500000D01*
X173000000Y-91800000D02*
X158400000Y-91800000D01*
X149000000Y-94500000D02*
X155700000Y-94500000D01*
D20*
%TO.N,I2C2_SCK*%
X112520000Y-94820000D02*
X112520000Y-93900000D01*
X113300000Y-95600000D02*
X112520000Y-94820000D01*
X127586412Y-95600000D02*
X113300000Y-95600000D01*
X130636412Y-92550000D02*
X127586412Y-95600000D01*
X146850000Y-92550000D02*
X130636412Y-92550000D01*
X150600000Y-88800000D02*
X146850000Y-92550000D01*
X150600000Y-80674694D02*
X150600000Y-88800000D01*
X148212653Y-78287347D02*
X150600000Y-80674694D01*
%TO.N,I2C2_SDA*%
X115060000Y-93900000D02*
X116235001Y-95075001D01*
X150000000Y-81300000D02*
X148800000Y-80100000D01*
X150000000Y-88400000D02*
X150000000Y-81300000D01*
X130650002Y-91900000D02*
X127475001Y-95075001D01*
X146500000Y-91900000D02*
X130650002Y-91900000D01*
X116235001Y-95075001D02*
X127475001Y-95075001D01*
X146500000Y-91900000D02*
X150000000Y-88400000D01*
%TO.N,Net-(J4-Pad2)*%
X167300000Y-80000000D02*
X169000000Y-80000000D01*
X171300000Y-77700000D02*
X173000000Y-77700000D01*
X169000000Y-80000000D02*
X171300000Y-77700000D01*
%TO.N,USB_DM*%
X170158230Y-49655985D02*
X170158230Y-48234506D01*
X153178708Y-66635507D02*
X170158230Y-49655985D01*
%TO.N,USB_DP*%
X169300000Y-49100000D02*
X169300000Y-47400000D01*
X152471600Y-65928400D02*
X169300000Y-49100000D01*
%TO.N,IO5*%
X144974999Y-76702847D02*
X144974999Y-79574999D01*
X143172152Y-74900000D02*
X144974999Y-76702847D01*
X142600000Y-74900000D02*
X143172152Y-74900000D01*
X144974999Y-79574999D02*
X145300000Y-79900000D01*
X145500000Y-79900000D02*
X145700000Y-80100000D01*
X145300000Y-79900000D02*
X145500000Y-79900000D01*
X140900000Y-84700000D02*
X140800000Y-84700000D01*
X144200000Y-81400000D02*
X140900000Y-84700000D01*
%TO.N,IO4*%
X140504317Y-83300000D02*
X140500000Y-83300000D01*
X142910431Y-80893886D02*
X140504317Y-83300000D01*
%TO.N,IO3*%
X136100000Y-83300000D02*
X135500000Y-83900000D01*
X137300000Y-83300000D02*
X136100000Y-83300000D01*
%TO.N,UART1_RX*%
X151050009Y-76935599D02*
X151050009Y-89101989D01*
X146400000Y-72285590D02*
X151050009Y-76935599D01*
X146400000Y-67700000D02*
X146400000Y-72285590D01*
X142550001Y-93374999D02*
X141100000Y-94825000D01*
X146776999Y-93374999D02*
X142550001Y-93374999D01*
X151050009Y-89101989D02*
X146776999Y-93374999D01*
%TO.N,UART1_TX*%
X147000001Y-68199999D02*
X147400000Y-67800000D01*
X147000001Y-72000001D02*
X147000001Y-68199999D01*
X151500019Y-76500019D02*
X147000001Y-72000001D01*
X151500019Y-89724981D02*
X151500019Y-76500019D01*
X143787500Y-93912500D02*
X143600000Y-94100000D01*
X147312500Y-93912500D02*
X143787500Y-93912500D01*
X147312500Y-93912500D02*
X151500019Y-89724981D01*
%TO.N,UART3_TX*%
X147538949Y-65361051D02*
X147700000Y-65200000D01*
X145628341Y-65361051D02*
X147538949Y-65361051D01*
X143017280Y-62749990D02*
X145628341Y-65361051D01*
X137600000Y-50400000D02*
X137600000Y-58563590D01*
X137600000Y-58563590D02*
X138650010Y-59613600D01*
X138650010Y-59613600D02*
X138650010Y-61213600D01*
X141624989Y-62424989D02*
X141949990Y-62749990D01*
X139861399Y-62424989D02*
X141624989Y-62424989D01*
X138650010Y-61213600D02*
X139861399Y-62424989D01*
X141949990Y-62749990D02*
X143017280Y-62749990D01*
%TO.N,UART3_RX*%
X141600000Y-63200000D02*
X142830880Y-63200000D01*
X139674999Y-62874999D02*
X141274999Y-62874999D01*
X142830880Y-63200000D02*
X145830880Y-66200000D01*
X138200000Y-59800000D02*
X138200000Y-61400000D01*
X141274999Y-62874999D02*
X141600000Y-63200000D01*
X136300000Y-57900000D02*
X138200000Y-59800000D01*
X138200000Y-61400000D02*
X139674999Y-62874999D01*
X136300000Y-50500000D02*
X136300000Y-57900000D01*
%TO.N,I2C1_SDA*%
X162474981Y-71025019D02*
X165600000Y-67900000D01*
X149126711Y-71025019D02*
X162474981Y-71025019D01*
X147730838Y-69629146D02*
X149126711Y-71025019D01*
%TO.N,I2C1_SCK*%
X161711705Y-70575010D02*
X166000000Y-66286715D01*
X149906765Y-70575010D02*
X161711705Y-70575010D01*
X148724035Y-69392280D02*
X149906765Y-70575010D01*
X166000000Y-63400000D02*
X167200000Y-62200000D01*
X166000000Y-66286715D02*
X166000000Y-63400000D01*
%TO.N,ADC3*%
X140400000Y-76900000D02*
X141100000Y-76900000D01*
X141100000Y-76900000D02*
X149000000Y-84800000D01*
%TO.N,ADC4*%
X145700000Y-73600000D02*
X145700000Y-74000000D01*
X142700000Y-70600000D02*
X145700000Y-73600000D01*
X145700000Y-78000000D02*
X145700000Y-76800000D01*
X147000000Y-79300000D02*
X145700000Y-78000000D01*
X145700000Y-76800000D02*
X145700000Y-74000000D01*
%TO.N,DAC*%
X147000000Y-73522000D02*
X147000000Y-73900000D01*
X143548000Y-70070000D02*
X147000000Y-73522000D01*
X147000000Y-78100000D02*
X147000000Y-73900000D01*
%TO.N,SPI2_NSS*%
X148275029Y-71475029D02*
X148100000Y-71300000D01*
X150175029Y-71475029D02*
X148275029Y-71475029D01*
X156500000Y-77800000D02*
X150175029Y-71475029D01*
%TO.N,SDIO_CD*%
X149400000Y-64400000D02*
X149400000Y-66500000D01*
X148700000Y-63700000D02*
X149400000Y-64400000D01*
X148700000Y-60500000D02*
X148700000Y-63700000D01*
X149400000Y-66500000D02*
X148700000Y-67200000D01*
X150000000Y-59200000D02*
X148700000Y-60500000D01*
%TO.N,SDIO_CMD*%
X149750000Y-56650000D02*
X152100000Y-54300000D01*
X149300000Y-57100000D02*
X149750000Y-56650000D01*
X147300000Y-57100000D02*
X149300000Y-57100000D01*
X145576343Y-58823657D02*
X147300000Y-57100000D01*
X145576343Y-64236051D02*
X145576343Y-58823657D01*
X145976342Y-64636050D02*
X145576343Y-64236051D01*
%TO.N,SDIO_CK*%
X146525000Y-63800000D02*
X146525000Y-58511410D01*
X146525000Y-58511410D02*
X147336410Y-57700000D01*
X150300000Y-57700000D02*
X150400000Y-57600000D01*
X147336410Y-57700000D02*
X150300000Y-57700000D01*
X150400000Y-57600000D02*
X154100000Y-53900000D01*
%TO.N,SDIO_D0*%
X148600000Y-68373002D02*
X148600000Y-68400000D01*
X154274265Y-62698737D02*
X148600000Y-68373002D01*
X154274265Y-59874265D02*
X154274265Y-62698737D01*
%TO.N,Net-(J14-Pad1)*%
X122000000Y-45100000D02*
X124600000Y-45100000D01*
X121100000Y-46000000D02*
X122000000Y-45100000D01*
%TO.N,Radio_rst*%
X120480000Y-78400000D02*
X117940000Y-75860000D01*
X140300000Y-78400000D02*
X120480000Y-78400000D01*
%TO.N,Radio_rxen*%
X136100000Y-75300000D02*
X131704496Y-70904496D01*
X131700000Y-61500000D02*
X131600000Y-61400000D01*
X131700000Y-70900000D02*
X131700000Y-61500000D01*
X141831914Y-75295504D02*
X141204496Y-75295504D01*
X142936410Y-76400000D02*
X141831914Y-75295504D01*
X143418927Y-76219777D02*
X143238704Y-76400000D01*
X141204496Y-75295504D02*
X136095504Y-75295504D01*
X143238704Y-76400000D02*
X142936410Y-76400000D01*
%TO.N,Radio_txen*%
X130975000Y-70811410D02*
X130975000Y-63800000D01*
X136331080Y-76167490D02*
X130975000Y-70811410D01*
X142067490Y-76167490D02*
X140567490Y-76167490D01*
X143115049Y-77215049D02*
X142067490Y-76167490D01*
X140567490Y-76167490D02*
X136331080Y-76167490D01*
%TO.N,Radio_dio0*%
X120561801Y-79507107D02*
X118777347Y-77722653D01*
X140607109Y-79507107D02*
X120561801Y-79507107D01*
X141007108Y-79107108D02*
X140607109Y-79507107D01*
%TO.N,Radio_dio1*%
X120033064Y-80003676D02*
X119314694Y-79285306D01*
X142696324Y-80003676D02*
X140703676Y-80003676D01*
X142800000Y-79900000D02*
X142696324Y-80003676D01*
X140703676Y-80003676D02*
X120033064Y-80003676D01*
%TD*%
D22*
%TO.N,GND*%
G36*
X162337758Y-41848213D02*
G01*
X162348575Y-41868450D01*
X162375344Y-41901068D01*
X162380917Y-41908905D01*
X162395905Y-41926121D01*
X162431052Y-41968948D01*
X162438533Y-41975088D01*
X162444892Y-41982392D01*
X162488724Y-42016278D01*
X162531550Y-42051425D01*
X162540091Y-42055990D01*
X162547747Y-42061909D01*
X162597340Y-42086590D01*
X162646207Y-42112710D01*
X162655469Y-42115520D01*
X162664138Y-42119834D01*
X162717598Y-42134367D01*
X162770617Y-42150450D01*
X162780255Y-42151399D01*
X162789594Y-42153938D01*
X162844850Y-42157761D01*
X162867581Y-42160000D01*
X162877207Y-42160000D01*
X162919293Y-42162912D01*
X162942049Y-42160000D01*
X164791910Y-42160000D01*
X164713507Y-42347004D01*
X164665000Y-42585500D01*
X164665000Y-42935500D01*
X165773000Y-42935500D01*
X165773000Y-42915500D01*
X166027000Y-42915500D01*
X166027000Y-42935500D01*
X167135000Y-42935500D01*
X167135000Y-42585500D01*
X167086493Y-42347004D01*
X167008090Y-42160000D01*
X171791910Y-42160000D01*
X171713507Y-42347004D01*
X171665000Y-42585500D01*
X171665000Y-42935500D01*
X172773000Y-42935500D01*
X172773000Y-42915500D01*
X173027000Y-42915500D01*
X173027000Y-42935500D01*
X174135000Y-42935500D01*
X174135000Y-42585500D01*
X174086493Y-42347004D01*
X174008090Y-42160000D01*
X176140000Y-42160000D01*
X176140001Y-95967572D01*
X176140000Y-95967582D01*
X176140001Y-96740000D01*
X168669295Y-96740000D01*
X168902088Y-96507207D01*
X169212344Y-96042876D01*
X169426052Y-95526939D01*
X169535000Y-94979223D01*
X169535000Y-94420777D01*
X169426052Y-93873061D01*
X169212344Y-93357124D01*
X168902088Y-92892793D01*
X168644295Y-92635000D01*
X171422722Y-92635000D01*
X171454528Y-92739850D01*
X171536595Y-92893386D01*
X171647038Y-93027962D01*
X171781614Y-93138405D01*
X171935150Y-93220472D01*
X172101746Y-93271008D01*
X172275000Y-93288072D01*
X173725000Y-93288072D01*
X173898254Y-93271008D01*
X174064850Y-93220472D01*
X174218386Y-93138405D01*
X174352962Y-93027962D01*
X174463405Y-92893386D01*
X174545472Y-92739850D01*
X174596008Y-92573254D01*
X174613072Y-92400000D01*
X174613072Y-91200000D01*
X174596008Y-91026746D01*
X174545472Y-90860150D01*
X174463405Y-90706614D01*
X174352962Y-90572038D01*
X174218386Y-90461595D01*
X174116663Y-90407223D01*
X174180134Y-90355134D01*
X174365706Y-90129014D01*
X174503599Y-89871034D01*
X174588513Y-89591111D01*
X174617185Y-89300000D01*
X174588513Y-89008889D01*
X174503599Y-88728966D01*
X174365706Y-88470986D01*
X174180134Y-88244866D01*
X173954014Y-88059294D01*
X173928278Y-88045538D01*
X174134429Y-87889049D01*
X174327496Y-87671193D01*
X174474352Y-87419858D01*
X174566476Y-87156890D01*
X174445155Y-86927000D01*
X173127000Y-86927000D01*
X173127000Y-86947000D01*
X172873000Y-86947000D01*
X172873000Y-86927000D01*
X171554845Y-86927000D01*
X171433524Y-87156890D01*
X171525648Y-87419858D01*
X171672504Y-87671193D01*
X171865571Y-87889049D01*
X172071722Y-88045538D01*
X172045986Y-88059294D01*
X171819866Y-88244866D01*
X171634294Y-88470986D01*
X171496401Y-88728966D01*
X171411487Y-89008889D01*
X171382815Y-89300000D01*
X171411487Y-89591111D01*
X171496401Y-89871034D01*
X171634294Y-90129014D01*
X171819866Y-90355134D01*
X171883337Y-90407223D01*
X171781614Y-90461595D01*
X171647038Y-90572038D01*
X171536595Y-90706614D01*
X171454528Y-90860150D01*
X171422722Y-90965000D01*
X158441018Y-90965000D01*
X158400000Y-90960960D01*
X158358982Y-90965000D01*
X158358981Y-90965000D01*
X158236311Y-90977082D01*
X158078913Y-91024828D01*
X157933854Y-91102364D01*
X157892474Y-91136324D01*
X157806709Y-91206709D01*
X157780563Y-91238568D01*
X155354133Y-93665000D01*
X149540093Y-93665000D01*
X149517205Y-93609744D01*
X149403937Y-93440226D01*
X149259774Y-93296063D01*
X149106292Y-93193510D01*
X152011023Y-90288779D01*
X152040020Y-90264982D01*
X152134993Y-90149257D01*
X152205565Y-90017228D01*
X152249022Y-89873967D01*
X152260019Y-89762314D01*
X152260019Y-89762305D01*
X152263695Y-89724982D01*
X152260019Y-89687659D01*
X152260019Y-86443110D01*
X171433524Y-86443110D01*
X171554845Y-86673000D01*
X172873000Y-86673000D01*
X172873000Y-85473835D01*
X173127000Y-85473835D01*
X173127000Y-86673000D01*
X174445155Y-86673000D01*
X174566476Y-86443110D01*
X174474352Y-86180142D01*
X174327496Y-85928807D01*
X174134429Y-85710951D01*
X173902570Y-85534947D01*
X173640830Y-85407558D01*
X173359267Y-85333680D01*
X173127000Y-85473835D01*
X172873000Y-85473835D01*
X172640733Y-85333680D01*
X172359170Y-85407558D01*
X172097430Y-85534947D01*
X171865571Y-85710951D01*
X171672504Y-85928807D01*
X171525648Y-86180142D01*
X171433524Y-86443110D01*
X152260019Y-86443110D01*
X152260019Y-83298061D01*
X160865000Y-83298061D01*
X160865000Y-83501939D01*
X160904774Y-83701898D01*
X160982795Y-83890256D01*
X161096063Y-84059774D01*
X161240226Y-84203937D01*
X161409744Y-84317205D01*
X161598102Y-84395226D01*
X161743225Y-84424093D01*
X161980558Y-84661426D01*
X162006709Y-84693291D01*
X162133854Y-84797636D01*
X162278913Y-84875172D01*
X162436311Y-84922918D01*
X162558981Y-84935000D01*
X162558991Y-84935000D01*
X162599999Y-84939039D01*
X162641007Y-84935000D01*
X165686715Y-84935000D01*
X165809744Y-85017205D01*
X165998102Y-85095226D01*
X166198061Y-85135000D01*
X166401939Y-85135000D01*
X166601898Y-85095226D01*
X166790256Y-85017205D01*
X166959774Y-84903937D01*
X167103937Y-84759774D01*
X167217205Y-84590256D01*
X167295226Y-84401898D01*
X167335000Y-84201939D01*
X167335000Y-83998061D01*
X167295226Y-83798102D01*
X167217205Y-83609744D01*
X167135000Y-83486715D01*
X167135000Y-81022456D01*
X167198061Y-81035000D01*
X167401939Y-81035000D01*
X167601898Y-80995226D01*
X167790256Y-80917205D01*
X167959774Y-80803937D01*
X168003711Y-80760000D01*
X168962678Y-80760000D01*
X169000000Y-80763676D01*
X169037322Y-80760000D01*
X169037333Y-80760000D01*
X169148986Y-80749003D01*
X169292247Y-80705546D01*
X169424276Y-80634974D01*
X169540001Y-80540001D01*
X169563804Y-80510997D01*
X171603465Y-78471337D01*
X171634294Y-78529014D01*
X171819866Y-78755134D01*
X171883337Y-78807223D01*
X171781614Y-78861595D01*
X171647038Y-78972038D01*
X171536595Y-79106614D01*
X171454528Y-79260150D01*
X171403992Y-79426746D01*
X171386928Y-79600000D01*
X171386928Y-80800000D01*
X171403992Y-80973254D01*
X171454528Y-81139850D01*
X171536595Y-81293386D01*
X171647038Y-81427962D01*
X171781614Y-81538405D01*
X171935150Y-81620472D01*
X172101746Y-81671008D01*
X172275000Y-81688072D01*
X173725000Y-81688072D01*
X173898254Y-81671008D01*
X174064850Y-81620472D01*
X174218386Y-81538405D01*
X174352962Y-81427962D01*
X174463405Y-81293386D01*
X174545472Y-81139850D01*
X174596008Y-80973254D01*
X174613072Y-80800000D01*
X174613072Y-79600000D01*
X174596008Y-79426746D01*
X174545472Y-79260150D01*
X174463405Y-79106614D01*
X174352962Y-78972038D01*
X174218386Y-78861595D01*
X174116663Y-78807223D01*
X174180134Y-78755134D01*
X174365706Y-78529014D01*
X174503599Y-78271034D01*
X174588513Y-77991111D01*
X174617185Y-77700000D01*
X174588513Y-77408889D01*
X174503599Y-77128966D01*
X174365706Y-76870986D01*
X174180134Y-76644866D01*
X173954014Y-76459294D01*
X173928278Y-76445538D01*
X174134429Y-76289049D01*
X174327496Y-76071193D01*
X174474352Y-75819858D01*
X174566476Y-75556890D01*
X174445155Y-75327000D01*
X173127000Y-75327000D01*
X173127000Y-75347000D01*
X172873000Y-75347000D01*
X172873000Y-75327000D01*
X171554845Y-75327000D01*
X171433524Y-75556890D01*
X171525648Y-75819858D01*
X171672504Y-76071193D01*
X171865571Y-76289049D01*
X172071722Y-76445538D01*
X172045986Y-76459294D01*
X171819866Y-76644866D01*
X171634294Y-76870986D01*
X171597405Y-76940000D01*
X171337322Y-76940000D01*
X171299999Y-76936324D01*
X171262676Y-76940000D01*
X171262667Y-76940000D01*
X171151014Y-76950997D01*
X171007753Y-76994454D01*
X170875724Y-77065026D01*
X170759999Y-77159999D01*
X170736201Y-77188997D01*
X168685199Y-79240000D01*
X168003711Y-79240000D01*
X167959774Y-79196063D01*
X167790256Y-79082795D01*
X167601898Y-79004774D01*
X167401939Y-78965000D01*
X167198061Y-78965000D01*
X167135000Y-78977544D01*
X167135000Y-76845867D01*
X167956775Y-76024092D01*
X168101898Y-75995226D01*
X168290256Y-75917205D01*
X168459774Y-75803937D01*
X168603937Y-75659774D01*
X168717205Y-75490256D01*
X168795226Y-75301898D01*
X168835000Y-75101939D01*
X168835000Y-74898061D01*
X168824070Y-74843110D01*
X171433524Y-74843110D01*
X171554845Y-75073000D01*
X172873000Y-75073000D01*
X172873000Y-73873835D01*
X173127000Y-73873835D01*
X173127000Y-75073000D01*
X174445155Y-75073000D01*
X174566476Y-74843110D01*
X174474352Y-74580142D01*
X174327496Y-74328807D01*
X174134429Y-74110951D01*
X173902570Y-73934947D01*
X173640830Y-73807558D01*
X173359267Y-73733680D01*
X173127000Y-73873835D01*
X172873000Y-73873835D01*
X172640733Y-73733680D01*
X172359170Y-73807558D01*
X172097430Y-73934947D01*
X171865571Y-74110951D01*
X171672504Y-74328807D01*
X171525648Y-74580142D01*
X171433524Y-74843110D01*
X168824070Y-74843110D01*
X168795226Y-74698102D01*
X168717205Y-74509744D01*
X168635000Y-74386715D01*
X168635000Y-72841015D01*
X168639040Y-72799999D01*
X168634017Y-72749004D01*
X168622918Y-72636311D01*
X168575172Y-72478913D01*
X168497636Y-72333854D01*
X168393291Y-72206709D01*
X168361426Y-72180558D01*
X167924093Y-71743225D01*
X167895226Y-71598102D01*
X167817205Y-71409744D01*
X167703937Y-71240226D01*
X167559774Y-71096063D01*
X167390256Y-70982795D01*
X167201898Y-70904774D01*
X167001939Y-70865000D01*
X166798061Y-70865000D01*
X166598102Y-70904774D01*
X166409744Y-70982795D01*
X166240226Y-71096063D01*
X166096063Y-71240226D01*
X165982795Y-71409744D01*
X165904774Y-71598102D01*
X165865000Y-71798061D01*
X165865000Y-72001939D01*
X165904774Y-72201898D01*
X165982795Y-72390256D01*
X166096063Y-72559774D01*
X166240226Y-72703937D01*
X166409744Y-72817205D01*
X166598102Y-72895226D01*
X166743225Y-72924093D01*
X166965001Y-73145869D01*
X166965000Y-74386715D01*
X166882795Y-74509744D01*
X166804774Y-74698102D01*
X166775908Y-74843225D01*
X165738574Y-75880559D01*
X165706710Y-75906709D01*
X165625907Y-76005168D01*
X165602364Y-76033855D01*
X165524828Y-76178914D01*
X165477082Y-76336312D01*
X165460960Y-76500000D01*
X165465001Y-76541028D01*
X165465000Y-83265000D01*
X162945868Y-83265000D01*
X162924093Y-83243225D01*
X162895226Y-83098102D01*
X162817205Y-82909744D01*
X162703937Y-82740226D01*
X162559774Y-82596063D01*
X162390256Y-82482795D01*
X162201898Y-82404774D01*
X162001939Y-82365000D01*
X161798061Y-82365000D01*
X161598102Y-82404774D01*
X161409744Y-82482795D01*
X161240226Y-82596063D01*
X161096063Y-82740226D01*
X160982795Y-82909744D01*
X160904774Y-83098102D01*
X160865000Y-83298061D01*
X152260019Y-83298061D01*
X152260019Y-76537341D01*
X152263695Y-76500018D01*
X152260019Y-76462695D01*
X152260019Y-76462686D01*
X152249022Y-76351033D01*
X152205565Y-76207772D01*
X152134993Y-76075743D01*
X152118383Y-76055504D01*
X152063818Y-75989015D01*
X152063814Y-75989011D01*
X152040020Y-75960018D01*
X152011027Y-75936224D01*
X148375315Y-72300514D01*
X148401898Y-72295226D01*
X148547225Y-72235029D01*
X149860228Y-72235029D01*
X155465000Y-77839802D01*
X155465000Y-77901939D01*
X155504774Y-78101898D01*
X155582795Y-78290256D01*
X155696063Y-78459774D01*
X155840226Y-78603937D01*
X156009744Y-78717205D01*
X156198102Y-78795226D01*
X156398061Y-78835000D01*
X156601939Y-78835000D01*
X156801898Y-78795226D01*
X156990256Y-78717205D01*
X157159774Y-78603937D01*
X157303937Y-78459774D01*
X157417205Y-78290256D01*
X157495226Y-78101898D01*
X157535000Y-77901939D01*
X157535000Y-77698061D01*
X157495226Y-77498102D01*
X157417205Y-77309744D01*
X157303937Y-77140226D01*
X157159774Y-76996063D01*
X156990256Y-76882795D01*
X156801898Y-76804774D01*
X156601939Y-76765000D01*
X156539802Y-76765000D01*
X151559820Y-71785019D01*
X162437659Y-71785019D01*
X162474981Y-71788695D01*
X162512303Y-71785019D01*
X162512314Y-71785019D01*
X162623967Y-71774022D01*
X162767228Y-71730565D01*
X162899257Y-71659993D01*
X163014982Y-71565020D01*
X163038785Y-71536016D01*
X163265000Y-71309801D01*
X163265001Y-76786714D01*
X163182795Y-76909744D01*
X163104774Y-77098102D01*
X163075908Y-77243224D01*
X161938574Y-78380559D01*
X161906710Y-78406709D01*
X161853017Y-78472134D01*
X161802364Y-78533855D01*
X161724828Y-78678914D01*
X161677082Y-78836312D01*
X161660960Y-79000000D01*
X161665001Y-79041028D01*
X161665001Y-79586714D01*
X161582795Y-79709744D01*
X161504774Y-79898102D01*
X161465000Y-80098061D01*
X161465000Y-80301939D01*
X161504774Y-80501898D01*
X161582795Y-80690256D01*
X161696063Y-80859774D01*
X161840226Y-81003937D01*
X162009744Y-81117205D01*
X162198102Y-81195226D01*
X162398061Y-81235000D01*
X162601939Y-81235000D01*
X162801898Y-81195226D01*
X162990256Y-81117205D01*
X163159774Y-81003937D01*
X163303937Y-80859774D01*
X163417205Y-80690256D01*
X163495226Y-80501898D01*
X163535000Y-80301939D01*
X163535000Y-80098061D01*
X163495226Y-79898102D01*
X163417205Y-79709744D01*
X163335000Y-79586715D01*
X163335000Y-79345867D01*
X164256776Y-78424092D01*
X164401898Y-78395226D01*
X164590256Y-78317205D01*
X164759774Y-78203937D01*
X164903937Y-78059774D01*
X165017205Y-77890256D01*
X165095226Y-77701898D01*
X165135000Y-77501939D01*
X165135000Y-77298061D01*
X165095226Y-77098102D01*
X165017205Y-76909744D01*
X164935000Y-76786715D01*
X164935000Y-70929869D01*
X167561427Y-68303443D01*
X167593291Y-68277293D01*
X167697636Y-68150148D01*
X167775172Y-68005089D01*
X167822918Y-67847691D01*
X167835000Y-67725021D01*
X167835000Y-67725011D01*
X167839039Y-67684003D01*
X167835000Y-67642995D01*
X167835000Y-65613285D01*
X167917205Y-65490256D01*
X167995226Y-65301898D01*
X168035000Y-65101939D01*
X168035000Y-64898061D01*
X167995226Y-64698102D01*
X167917205Y-64509744D01*
X167803937Y-64340226D01*
X167659774Y-64196063D01*
X167490256Y-64082795D01*
X167301898Y-64004774D01*
X167101939Y-63965000D01*
X166898061Y-63965000D01*
X166760000Y-63992462D01*
X166760000Y-63714801D01*
X167239802Y-63235000D01*
X167301939Y-63235000D01*
X167501898Y-63195226D01*
X167690256Y-63117205D01*
X167859774Y-63003937D01*
X168003937Y-62859774D01*
X168117205Y-62690256D01*
X168195226Y-62501898D01*
X168235000Y-62301939D01*
X168235000Y-62098061D01*
X168195226Y-61898102D01*
X168117205Y-61709744D01*
X168003937Y-61540226D01*
X167859774Y-61396063D01*
X167690256Y-61282795D01*
X167501898Y-61204774D01*
X167301939Y-61165000D01*
X167098061Y-61165000D01*
X166898102Y-61204774D01*
X166709744Y-61282795D01*
X166540226Y-61396063D01*
X166396063Y-61540226D01*
X166282795Y-61709744D01*
X166204774Y-61898102D01*
X166165000Y-62098061D01*
X166165000Y-62160198D01*
X165488998Y-62836201D01*
X165460000Y-62859999D01*
X165436202Y-62888997D01*
X165436201Y-62888998D01*
X165365026Y-62975724D01*
X165294454Y-63107754D01*
X165271026Y-63184989D01*
X165250998Y-63251014D01*
X165240671Y-63355865D01*
X165236324Y-63400000D01*
X165240001Y-63437332D01*
X165240000Y-65971913D01*
X162526740Y-68685173D01*
X162465706Y-68570986D01*
X162280134Y-68344866D01*
X162054014Y-68159294D01*
X162036626Y-68150000D01*
X162054014Y-68140706D01*
X162280134Y-67955134D01*
X162465706Y-67729014D01*
X162603599Y-67471034D01*
X162688513Y-67191111D01*
X162717185Y-66900000D01*
X162688513Y-66608889D01*
X162603599Y-66328966D01*
X162465706Y-66070986D01*
X162280134Y-65844866D01*
X162054014Y-65659294D01*
X162036626Y-65650000D01*
X162054014Y-65640706D01*
X162280134Y-65455134D01*
X162465706Y-65229014D01*
X162603599Y-64971034D01*
X162688513Y-64691111D01*
X162717185Y-64400000D01*
X162688513Y-64108889D01*
X162603599Y-63828966D01*
X162465706Y-63570986D01*
X162284392Y-63350055D01*
X162319180Y-63339502D01*
X162429494Y-63280537D01*
X162526185Y-63201185D01*
X162605537Y-63104494D01*
X162664502Y-62994180D01*
X162700812Y-62874482D01*
X162713072Y-62750000D01*
X162710000Y-62185750D01*
X162551250Y-62027000D01*
X161227000Y-62027000D01*
X161227000Y-62047000D01*
X160973000Y-62047000D01*
X160973000Y-62027000D01*
X159648750Y-62027000D01*
X159490000Y-62185750D01*
X159486928Y-62750000D01*
X159499188Y-62874482D01*
X159535498Y-62994180D01*
X159594463Y-63104494D01*
X159673815Y-63201185D01*
X159770506Y-63280537D01*
X159880820Y-63339502D01*
X159915608Y-63350055D01*
X159734294Y-63570986D01*
X159596401Y-63828966D01*
X159511487Y-64108889D01*
X159482815Y-64400000D01*
X159511487Y-64691111D01*
X159596401Y-64971034D01*
X159734294Y-65229014D01*
X159919866Y-65455134D01*
X160145986Y-65640706D01*
X160163374Y-65650000D01*
X160145986Y-65659294D01*
X159919866Y-65844866D01*
X159734294Y-66070986D01*
X159601080Y-66320212D01*
X159124093Y-65843225D01*
X159095226Y-65698102D01*
X159017205Y-65509744D01*
X158903937Y-65340226D01*
X158759774Y-65196063D01*
X158590256Y-65082795D01*
X158401898Y-65004774D01*
X158201939Y-64965000D01*
X157998061Y-64965000D01*
X157798102Y-65004774D01*
X157609744Y-65082795D01*
X157440226Y-65196063D01*
X157296063Y-65340226D01*
X157182795Y-65509744D01*
X157104774Y-65698102D01*
X157065000Y-65898061D01*
X157065000Y-66101939D01*
X157104774Y-66301898D01*
X157182795Y-66490256D01*
X157296063Y-66659774D01*
X157440226Y-66803937D01*
X157609744Y-66917205D01*
X157798102Y-66995226D01*
X157943225Y-67024093D01*
X159649241Y-68730109D01*
X159596401Y-68828966D01*
X159511487Y-69108889D01*
X159482815Y-69400000D01*
X159511487Y-69691111D01*
X159549071Y-69815010D01*
X150221567Y-69815010D01*
X149759035Y-69352479D01*
X149759035Y-69290341D01*
X149719261Y-69090382D01*
X149641240Y-68902024D01*
X149561662Y-68782927D01*
X149595226Y-68701898D01*
X149635000Y-68501939D01*
X149635000Y-68412803D01*
X151584337Y-66463467D01*
X151667663Y-66588174D01*
X151811826Y-66732337D01*
X151981344Y-66845605D01*
X152169702Y-66923626D01*
X152181196Y-66925912D01*
X152183482Y-66937405D01*
X152261503Y-67125763D01*
X152374771Y-67295281D01*
X152518934Y-67439444D01*
X152688452Y-67552712D01*
X152876810Y-67630733D01*
X153076769Y-67670507D01*
X153280647Y-67670507D01*
X153480606Y-67630733D01*
X153668964Y-67552712D01*
X153838482Y-67439444D01*
X153982645Y-67295281D01*
X154095913Y-67125763D01*
X154173934Y-66937405D01*
X154213708Y-66737446D01*
X154213708Y-66675308D01*
X159488835Y-61400182D01*
X159490000Y-61614250D01*
X159648750Y-61773000D01*
X160973000Y-61773000D01*
X160973000Y-60573750D01*
X161227000Y-60573750D01*
X161227000Y-61773000D01*
X162551250Y-61773000D01*
X162710000Y-61614250D01*
X162713072Y-61050000D01*
X162700812Y-60925518D01*
X162664502Y-60805820D01*
X162605537Y-60695506D01*
X162526185Y-60598815D01*
X162429494Y-60519463D01*
X162319180Y-60460498D01*
X162199482Y-60424188D01*
X162075000Y-60411928D01*
X161385750Y-60415000D01*
X161227000Y-60573750D01*
X160973000Y-60573750D01*
X160814250Y-60415000D01*
X160475526Y-60413490D01*
X170669234Y-50219783D01*
X170698231Y-50195986D01*
X170793204Y-50080261D01*
X170863776Y-49948232D01*
X170907233Y-49804971D01*
X170918230Y-49693318D01*
X170918230Y-49693309D01*
X170921906Y-49655986D01*
X170918230Y-49618663D01*
X170918230Y-48938217D01*
X170962167Y-48894280D01*
X171075435Y-48724762D01*
X171153456Y-48536404D01*
X171193230Y-48336445D01*
X171193230Y-48132567D01*
X171153456Y-47932608D01*
X171075435Y-47744250D01*
X170962167Y-47574732D01*
X170818004Y-47430569D01*
X170648486Y-47317301D01*
X170460128Y-47239280D01*
X170317671Y-47210944D01*
X170295226Y-47098102D01*
X170217205Y-46909744D01*
X170103937Y-46740226D01*
X170065344Y-46701633D01*
X171140472Y-46701633D01*
X171202965Y-46937950D01*
X171445678Y-47051350D01*
X171705849Y-47115219D01*
X171973482Y-47127104D01*
X172238291Y-47086548D01*
X172490100Y-46995109D01*
X172597035Y-46937950D01*
X172659528Y-46701633D01*
X171900000Y-45942105D01*
X171140472Y-46701633D01*
X170065344Y-46701633D01*
X169959774Y-46596063D01*
X169790256Y-46482795D01*
X169601898Y-46404774D01*
X169401939Y-46365000D01*
X169198061Y-46365000D01*
X168998102Y-46404774D01*
X168809744Y-46482795D01*
X168640226Y-46596063D01*
X168496063Y-46740226D01*
X168382795Y-46909744D01*
X168304774Y-47098102D01*
X168265000Y-47298061D01*
X168265000Y-47501939D01*
X168304774Y-47701898D01*
X168382795Y-47890256D01*
X168496063Y-48059774D01*
X168540001Y-48103712D01*
X168540000Y-48785198D01*
X155034265Y-62290934D01*
X155034265Y-60577976D01*
X155078202Y-60534039D01*
X155191470Y-60364521D01*
X155269491Y-60176163D01*
X155309265Y-59976204D01*
X155309265Y-59772326D01*
X155269491Y-59572367D01*
X155191470Y-59384009D01*
X155078202Y-59214491D01*
X154934039Y-59070328D01*
X154764521Y-58957060D01*
X154576163Y-58879039D01*
X154376204Y-58839265D01*
X154172326Y-58839265D01*
X153972367Y-58879039D01*
X153784009Y-58957060D01*
X153614491Y-59070328D01*
X153470328Y-59214491D01*
X153357060Y-59384009D01*
X153279039Y-59572367D01*
X153239265Y-59772326D01*
X153239265Y-59976204D01*
X153279039Y-60176163D01*
X153357060Y-60364521D01*
X153470328Y-60534039D01*
X153514265Y-60577976D01*
X153514266Y-62383934D01*
X150160000Y-65738201D01*
X150160000Y-64437322D01*
X150163676Y-64399999D01*
X150160000Y-64362676D01*
X150160000Y-64362667D01*
X150149003Y-64251014D01*
X150105546Y-64107753D01*
X150034974Y-63975724D01*
X149983026Y-63912425D01*
X149963799Y-63888996D01*
X149963795Y-63888992D01*
X149940001Y-63859999D01*
X149911009Y-63836206D01*
X149460000Y-63385198D01*
X149460000Y-60814801D01*
X150039802Y-60235000D01*
X150101939Y-60235000D01*
X150301898Y-60195226D01*
X150490256Y-60117205D01*
X150659774Y-60003937D01*
X150803937Y-59859774D01*
X150917205Y-59690256D01*
X150995226Y-59501898D01*
X151035000Y-59301939D01*
X151035000Y-59098061D01*
X150995226Y-58898102D01*
X150917205Y-58709744D01*
X150803937Y-58540226D01*
X150659774Y-58396063D01*
X150637647Y-58381279D01*
X150724276Y-58334974D01*
X150840001Y-58240001D01*
X150863804Y-58210997D01*
X150963799Y-58111002D01*
X154139802Y-54935000D01*
X154201939Y-54935000D01*
X154401898Y-54895226D01*
X154590256Y-54817205D01*
X154759774Y-54703937D01*
X154903937Y-54559774D01*
X155017205Y-54390256D01*
X155095226Y-54201898D01*
X155135000Y-54001939D01*
X155135000Y-53798061D01*
X155095226Y-53598102D01*
X155017205Y-53409744D01*
X154903937Y-53240226D01*
X154759774Y-53096063D01*
X154590256Y-52982795D01*
X154401898Y-52904774D01*
X154201939Y-52865000D01*
X153998061Y-52865000D01*
X153798102Y-52904774D01*
X153609744Y-52982795D01*
X153440226Y-53096063D01*
X153296063Y-53240226D01*
X153182795Y-53409744D01*
X153104774Y-53598102D01*
X153065000Y-53798061D01*
X153065000Y-53860198D01*
X153045982Y-53879216D01*
X153017205Y-53809744D01*
X152903937Y-53640226D01*
X152759774Y-53496063D01*
X152590256Y-53382795D01*
X152401898Y-53304774D01*
X152201939Y-53265000D01*
X151998061Y-53265000D01*
X151798102Y-53304774D01*
X151609744Y-53382795D01*
X151440226Y-53496063D01*
X151296063Y-53640226D01*
X151182795Y-53809744D01*
X151104774Y-53998102D01*
X151065000Y-54198061D01*
X151065000Y-54260198D01*
X149238998Y-56086201D01*
X148985199Y-56340000D01*
X147337322Y-56340000D01*
X147299999Y-56336324D01*
X147262676Y-56340000D01*
X147262667Y-56340000D01*
X147151014Y-56350997D01*
X147007753Y-56394454D01*
X146875723Y-56465026D01*
X146831871Y-56501015D01*
X146759999Y-56559999D01*
X146736201Y-56588997D01*
X145745982Y-57579217D01*
X145717205Y-57509744D01*
X145603937Y-57340226D01*
X145459774Y-57196063D01*
X145290256Y-57082795D01*
X145101898Y-57004774D01*
X144901939Y-56965000D01*
X144698061Y-56965000D01*
X144498102Y-57004774D01*
X144309744Y-57082795D01*
X144140226Y-57196063D01*
X143996063Y-57340226D01*
X143882795Y-57509744D01*
X143804774Y-57698102D01*
X143765000Y-57898061D01*
X143765000Y-57960198D01*
X142630397Y-59094802D01*
X142468259Y-59094802D01*
X142268300Y-59134576D01*
X142079942Y-59212597D01*
X141910424Y-59325865D01*
X141766261Y-59470028D01*
X141760000Y-59479398D01*
X141760000Y-57088701D01*
X141803937Y-57044764D01*
X141917205Y-56875246D01*
X141995226Y-56686888D01*
X142035000Y-56486929D01*
X142035000Y-56283051D01*
X141995226Y-56083092D01*
X141917205Y-55894734D01*
X141803937Y-55725216D01*
X141659774Y-55581053D01*
X141490256Y-55467785D01*
X141301898Y-55389764D01*
X141101939Y-55349990D01*
X140898061Y-55349990D01*
X140698102Y-55389764D01*
X140509744Y-55467785D01*
X140340226Y-55581053D01*
X140196063Y-55725216D01*
X140082795Y-55894734D01*
X140004774Y-56083092D01*
X139965000Y-56283051D01*
X139965000Y-56486929D01*
X140004774Y-56686888D01*
X140082795Y-56875246D01*
X140196063Y-57044764D01*
X140240001Y-57088702D01*
X140240000Y-60065000D01*
X140198061Y-60065000D01*
X139998102Y-60104774D01*
X139809744Y-60182795D01*
X139640226Y-60296063D01*
X139496063Y-60440226D01*
X139410010Y-60569014D01*
X139410010Y-59650922D01*
X139413686Y-59613599D01*
X139410010Y-59576276D01*
X139410010Y-59576267D01*
X139399013Y-59464614D01*
X139355556Y-59321353D01*
X139284984Y-59189324D01*
X139232410Y-59125262D01*
X139213809Y-59102596D01*
X139213805Y-59102592D01*
X139190011Y-59073599D01*
X139161019Y-59049806D01*
X138360000Y-58248789D01*
X138360000Y-51103711D01*
X138403937Y-51059774D01*
X138517205Y-50890256D01*
X138595226Y-50701898D01*
X138635000Y-50501939D01*
X138635000Y-50298061D01*
X138595226Y-50098102D01*
X138557508Y-50007042D01*
X138698061Y-50035000D01*
X138901939Y-50035000D01*
X139101898Y-49995226D01*
X139290256Y-49917205D01*
X139459774Y-49803937D01*
X139603937Y-49659774D01*
X139717205Y-49490256D01*
X139795226Y-49301898D01*
X139835000Y-49101939D01*
X139835000Y-49034999D01*
X158054132Y-49034999D01*
X161975908Y-52956777D01*
X162004774Y-53101898D01*
X162082795Y-53290256D01*
X162196063Y-53459774D01*
X162340226Y-53603937D01*
X162509744Y-53717205D01*
X162698102Y-53795226D01*
X162898061Y-53835000D01*
X163101939Y-53835000D01*
X163301898Y-53795226D01*
X163490256Y-53717205D01*
X163659774Y-53603937D01*
X163803937Y-53459774D01*
X163917205Y-53290256D01*
X163995226Y-53101898D01*
X164035000Y-52901939D01*
X164035000Y-52698061D01*
X163995226Y-52498102D01*
X163917205Y-52309744D01*
X163803937Y-52140226D01*
X163659774Y-51996063D01*
X163490256Y-51882795D01*
X163301898Y-51804774D01*
X163156777Y-51775908D01*
X159019445Y-47638578D01*
X158993290Y-47606708D01*
X158866145Y-47502363D01*
X158721086Y-47424827D01*
X158563688Y-47377081D01*
X158441018Y-47364999D01*
X158441017Y-47364999D01*
X158399999Y-47360959D01*
X158358981Y-47364999D01*
X129441019Y-47364999D01*
X129400001Y-47360959D01*
X129358983Y-47364999D01*
X129358982Y-47364999D01*
X129236312Y-47377081D01*
X129078914Y-47424827D01*
X128933855Y-47502363D01*
X128845673Y-47574732D01*
X128806710Y-47606708D01*
X128780564Y-47638567D01*
X128043225Y-48375908D01*
X127898102Y-48404774D01*
X127738072Y-48471061D01*
X127738072Y-46701633D01*
X166140472Y-46701633D01*
X166202965Y-46937950D01*
X166445678Y-47051350D01*
X166705849Y-47115219D01*
X166973482Y-47127104D01*
X167238291Y-47086548D01*
X167490100Y-46995109D01*
X167597035Y-46937950D01*
X167659528Y-46701633D01*
X166900000Y-45942105D01*
X166140472Y-46701633D01*
X127738072Y-46701633D01*
X127738072Y-45098061D01*
X155665000Y-45098061D01*
X155665000Y-45301939D01*
X155704774Y-45501898D01*
X155782795Y-45690256D01*
X155896063Y-45859774D01*
X156040226Y-46003937D01*
X156209744Y-46117205D01*
X156398102Y-46195226D01*
X156598061Y-46235000D01*
X156801939Y-46235000D01*
X157001898Y-46195226D01*
X157190256Y-46117205D01*
X157359774Y-46003937D01*
X157503937Y-45859774D01*
X157617205Y-45690256D01*
X157695226Y-45501898D01*
X157701074Y-45472499D01*
X165570811Y-45472499D01*
X165547281Y-45568349D01*
X165535396Y-45835982D01*
X165575952Y-46100791D01*
X165667391Y-46352600D01*
X165724550Y-46459535D01*
X165960867Y-46522028D01*
X166720395Y-45762500D01*
X166706253Y-45748358D01*
X166885858Y-45568753D01*
X166900000Y-45582895D01*
X166914143Y-45568753D01*
X167093748Y-45748358D01*
X167079605Y-45762500D01*
X167839133Y-46522028D01*
X168075450Y-46459535D01*
X168188850Y-46216822D01*
X168252719Y-45956651D01*
X168264604Y-45689018D01*
X168231444Y-45472499D01*
X170570811Y-45472499D01*
X170547281Y-45568349D01*
X170535396Y-45835982D01*
X170575952Y-46100791D01*
X170667391Y-46352600D01*
X170724550Y-46459535D01*
X170960867Y-46522028D01*
X171720395Y-45762500D01*
X171706253Y-45748358D01*
X171885858Y-45568753D01*
X171900000Y-45582895D01*
X171914143Y-45568753D01*
X172093748Y-45748358D01*
X172079605Y-45762500D01*
X172839133Y-46522028D01*
X173075450Y-46459535D01*
X173188850Y-46216822D01*
X173252719Y-45956651D01*
X173264604Y-45689018D01*
X173238644Y-45519511D01*
X173275907Y-45556775D01*
X173304774Y-45701898D01*
X173382795Y-45890256D01*
X173496063Y-46059774D01*
X173640226Y-46203937D01*
X173809744Y-46317205D01*
X173998102Y-46395226D01*
X174198061Y-46435000D01*
X174401939Y-46435000D01*
X174601898Y-46395226D01*
X174790256Y-46317205D01*
X174959774Y-46203937D01*
X175103937Y-46059774D01*
X175217205Y-45890256D01*
X175295226Y-45701898D01*
X175335000Y-45501939D01*
X175335000Y-45298061D01*
X175295226Y-45098102D01*
X175217205Y-44909744D01*
X175103937Y-44740226D01*
X174959774Y-44596063D01*
X174790256Y-44482795D01*
X174601898Y-44404774D01*
X174456775Y-44375907D01*
X174156945Y-44076078D01*
X174130790Y-44044208D01*
X174014793Y-43949012D01*
X174086493Y-43777996D01*
X174135000Y-43539500D01*
X174135000Y-43189500D01*
X173027000Y-43189500D01*
X173027000Y-43209500D01*
X172773000Y-43209500D01*
X172773000Y-43189500D01*
X171665000Y-43189500D01*
X171665000Y-43539500D01*
X171713507Y-43777996D01*
X171723780Y-43802499D01*
X167076220Y-43802499D01*
X167086493Y-43777996D01*
X167135000Y-43539500D01*
X167135000Y-43189500D01*
X166027000Y-43189500D01*
X166027000Y-43209500D01*
X165773000Y-43209500D01*
X165773000Y-43189500D01*
X164665000Y-43189500D01*
X164665000Y-43539500D01*
X164713507Y-43777996D01*
X164723780Y-43802499D01*
X157303519Y-43802499D01*
X157262501Y-43798459D01*
X157221483Y-43802499D01*
X157221482Y-43802499D01*
X157098812Y-43814581D01*
X156941414Y-43862327D01*
X156796355Y-43939863D01*
X156669210Y-44044208D01*
X156643063Y-44076068D01*
X156543224Y-44175908D01*
X156398102Y-44204774D01*
X156209744Y-44282795D01*
X156040226Y-44396063D01*
X155896063Y-44540226D01*
X155782795Y-44709744D01*
X155704774Y-44898102D01*
X155665000Y-45098061D01*
X127738072Y-45098061D01*
X127738072Y-41198212D01*
X146165000Y-41198212D01*
X146165000Y-41421788D01*
X146208617Y-41641067D01*
X146294176Y-41847624D01*
X146418388Y-42033520D01*
X146576480Y-42191612D01*
X146762376Y-42315824D01*
X146968933Y-42401383D01*
X147188212Y-42445000D01*
X147411788Y-42445000D01*
X147631067Y-42401383D01*
X147837624Y-42315824D01*
X148023520Y-42191612D01*
X148181612Y-42033520D01*
X148305824Y-41847624D01*
X148391383Y-41641067D01*
X148435000Y-41421788D01*
X148435000Y-41198212D01*
X154165000Y-41198212D01*
X154165000Y-41421788D01*
X154208617Y-41641067D01*
X154294176Y-41847624D01*
X154418388Y-42033520D01*
X154576480Y-42191612D01*
X154762376Y-42315824D01*
X154968933Y-42401383D01*
X155188212Y-42445000D01*
X155411788Y-42445000D01*
X155631067Y-42401383D01*
X155837624Y-42315824D01*
X156023520Y-42191612D01*
X156181612Y-42033520D01*
X156305824Y-41847624D01*
X156391383Y-41641067D01*
X156435000Y-41421788D01*
X156435000Y-41198212D01*
X156391383Y-40978933D01*
X156305824Y-40772376D01*
X156181612Y-40586480D01*
X156023520Y-40428388D01*
X155837624Y-40304176D01*
X155631067Y-40218617D01*
X155411788Y-40175000D01*
X155188212Y-40175000D01*
X154968933Y-40218617D01*
X154762376Y-40304176D01*
X154576480Y-40428388D01*
X154418388Y-40586480D01*
X154294176Y-40772376D01*
X154208617Y-40978933D01*
X154165000Y-41198212D01*
X148435000Y-41198212D01*
X148391383Y-40978933D01*
X148305824Y-40772376D01*
X148181612Y-40586480D01*
X148023520Y-40428388D01*
X147837624Y-40304176D01*
X147631067Y-40218617D01*
X147411788Y-40175000D01*
X147188212Y-40175000D01*
X146968933Y-40218617D01*
X146762376Y-40304176D01*
X146576480Y-40428388D01*
X146418388Y-40586480D01*
X146294176Y-40772376D01*
X146208617Y-40978933D01*
X146165000Y-41198212D01*
X127738072Y-41198212D01*
X127738072Y-40100000D01*
X127725812Y-39975518D01*
X127689502Y-39855820D01*
X127630537Y-39745506D01*
X127551185Y-39648815D01*
X127454494Y-39569463D01*
X127344180Y-39510498D01*
X127224482Y-39474188D01*
X127100000Y-39461928D01*
X122100000Y-39461928D01*
X121975518Y-39474188D01*
X121855820Y-39510498D01*
X121745506Y-39569463D01*
X121648815Y-39648815D01*
X121569463Y-39745506D01*
X121510498Y-39855820D01*
X121474188Y-39975518D01*
X121461928Y-40100000D01*
X121461928Y-44558416D01*
X121459999Y-44559999D01*
X121436201Y-44588997D01*
X121060198Y-44965000D01*
X120998061Y-44965000D01*
X120798102Y-45004774D01*
X120609744Y-45082795D01*
X120440226Y-45196063D01*
X120296063Y-45340226D01*
X120182795Y-45509744D01*
X120104774Y-45698102D01*
X120065000Y-45898061D01*
X120065000Y-46101939D01*
X120104774Y-46301898D01*
X120182795Y-46490256D01*
X120296063Y-46659774D01*
X120440226Y-46803937D01*
X120609744Y-46917205D01*
X120798102Y-46995226D01*
X120998061Y-47035000D01*
X121201939Y-47035000D01*
X121401898Y-46995226D01*
X121461928Y-46970361D01*
X121461928Y-50100000D01*
X121474188Y-50224482D01*
X121510498Y-50344180D01*
X121569463Y-50454494D01*
X121648815Y-50551185D01*
X121665649Y-50565000D01*
X116821005Y-50565000D01*
X116779997Y-50560961D01*
X116738989Y-50565000D01*
X116738979Y-50565000D01*
X116616309Y-50577082D01*
X116458911Y-50624828D01*
X116313852Y-50702364D01*
X116186707Y-50806709D01*
X116160559Y-50838571D01*
X114238573Y-52760558D01*
X114206709Y-52786708D01*
X114180561Y-52818570D01*
X114102363Y-52913854D01*
X114024827Y-53058913D01*
X113977081Y-53216311D01*
X113960959Y-53379999D01*
X113965000Y-53421028D01*
X113964999Y-75913595D01*
X113960959Y-75954613D01*
X113969007Y-76036323D01*
X113977081Y-76118301D01*
X114024827Y-76275699D01*
X114102363Y-76420758D01*
X114206708Y-76547904D01*
X114238578Y-76574059D01*
X118754631Y-81090113D01*
X118780781Y-81121977D01*
X118907926Y-81226322D01*
X119052985Y-81303858D01*
X119210383Y-81351604D01*
X119374071Y-81367726D01*
X119415090Y-81363686D01*
X122132819Y-81363686D01*
X125426492Y-84657360D01*
X125319866Y-84744866D01*
X125134294Y-84970986D01*
X124996401Y-85228966D01*
X124911487Y-85508889D01*
X124882815Y-85800000D01*
X124911487Y-86091111D01*
X124996401Y-86371034D01*
X125134294Y-86629014D01*
X125319866Y-86855134D01*
X125545986Y-87040706D01*
X125563374Y-87050000D01*
X125545986Y-87059294D01*
X125319866Y-87244866D01*
X125134294Y-87470986D01*
X124996401Y-87728966D01*
X124911487Y-88008889D01*
X124882815Y-88300000D01*
X124911487Y-88591111D01*
X124996401Y-88871034D01*
X125134294Y-89129014D01*
X125319866Y-89355134D01*
X125545986Y-89540706D01*
X125563374Y-89550000D01*
X125545986Y-89559294D01*
X125319866Y-89744866D01*
X125134294Y-89970986D01*
X124996401Y-90228966D01*
X124911487Y-90508889D01*
X124882815Y-90800000D01*
X124911487Y-91091111D01*
X124996401Y-91371034D01*
X125134294Y-91629014D01*
X125315608Y-91849945D01*
X125280820Y-91860498D01*
X125170506Y-91919463D01*
X125073815Y-91998815D01*
X124994463Y-92095506D01*
X124935498Y-92205820D01*
X124899188Y-92325518D01*
X124886928Y-92450000D01*
X124890000Y-93014250D01*
X125048750Y-93173000D01*
X126373000Y-93173000D01*
X126373000Y-93153000D01*
X126627000Y-93153000D01*
X126627000Y-93173000D01*
X127951250Y-93173000D01*
X128110000Y-93014250D01*
X128113072Y-92450000D01*
X128100812Y-92325518D01*
X128064502Y-92205820D01*
X128005537Y-92095506D01*
X127926185Y-91998815D01*
X127829494Y-91919463D01*
X127719180Y-91860498D01*
X127684392Y-91849945D01*
X127865706Y-91629014D01*
X128003599Y-91371034D01*
X128088513Y-91091111D01*
X128117185Y-90800000D01*
X128088513Y-90508889D01*
X128003599Y-90228966D01*
X127865706Y-89970986D01*
X127680134Y-89744866D01*
X127454014Y-89559294D01*
X127436626Y-89550000D01*
X127454014Y-89540706D01*
X127680134Y-89355134D01*
X127865706Y-89129014D01*
X128003599Y-88871034D01*
X128088513Y-88591111D01*
X128117185Y-88300000D01*
X128088513Y-88008889D01*
X128003599Y-87728966D01*
X127865706Y-87470986D01*
X127680134Y-87244866D01*
X127454014Y-87059294D01*
X127436626Y-87050000D01*
X127454014Y-87040706D01*
X127680134Y-86855134D01*
X127865706Y-86629014D01*
X128003599Y-86371034D01*
X128088513Y-86091111D01*
X128117185Y-85800000D01*
X128088513Y-85508889D01*
X128003599Y-85228966D01*
X127865706Y-84970986D01*
X127680134Y-84744866D01*
X127454014Y-84559294D01*
X127333617Y-84494941D01*
X127322918Y-84386311D01*
X127275172Y-84228913D01*
X127197636Y-84083854D01*
X127169020Y-84048985D01*
X127119439Y-83988570D01*
X127119437Y-83988568D01*
X127093291Y-83956709D01*
X127061432Y-83930563D01*
X123894543Y-80763676D01*
X141881054Y-80763676D01*
X141875431Y-80791947D01*
X141875431Y-80854084D01*
X140464516Y-82265000D01*
X140398061Y-82265000D01*
X140198102Y-82304774D01*
X140009744Y-82382795D01*
X139840226Y-82496063D01*
X139696063Y-82640226D01*
X139582795Y-82809744D01*
X139504774Y-82998102D01*
X139465000Y-83198061D01*
X139465000Y-83401939D01*
X139504774Y-83601898D01*
X139582795Y-83790256D01*
X139696063Y-83959774D01*
X139840226Y-84103937D01*
X139918532Y-84156259D01*
X139882795Y-84209744D01*
X139804774Y-84398102D01*
X139765000Y-84598061D01*
X139765000Y-84801939D01*
X139797435Y-84965000D01*
X132945869Y-84965000D01*
X132324092Y-84343225D01*
X132295226Y-84198102D01*
X132217205Y-84009744D01*
X132103937Y-83840226D01*
X132061772Y-83798061D01*
X134465000Y-83798061D01*
X134465000Y-84001939D01*
X134504774Y-84201898D01*
X134582795Y-84390256D01*
X134696063Y-84559774D01*
X134840226Y-84703937D01*
X135009744Y-84817205D01*
X135198102Y-84895226D01*
X135398061Y-84935000D01*
X135601939Y-84935000D01*
X135801898Y-84895226D01*
X135990256Y-84817205D01*
X136159774Y-84703937D01*
X136303937Y-84559774D01*
X136417205Y-84390256D01*
X136495226Y-84201898D01*
X136523451Y-84060000D01*
X136596289Y-84060000D01*
X136640226Y-84103937D01*
X136809744Y-84217205D01*
X136998102Y-84295226D01*
X137198061Y-84335000D01*
X137401939Y-84335000D01*
X137601898Y-84295226D01*
X137790256Y-84217205D01*
X137959774Y-84103937D01*
X138103937Y-83959774D01*
X138217205Y-83790256D01*
X138295226Y-83601898D01*
X138335000Y-83401939D01*
X138335000Y-83198061D01*
X138295226Y-82998102D01*
X138217205Y-82809744D01*
X138103937Y-82640226D01*
X137959774Y-82496063D01*
X137790256Y-82382795D01*
X137601898Y-82304774D01*
X137401939Y-82265000D01*
X137198061Y-82265000D01*
X136998102Y-82304774D01*
X136809744Y-82382795D01*
X136640226Y-82496063D01*
X136596289Y-82540000D01*
X136137322Y-82540000D01*
X136099999Y-82536324D01*
X136062676Y-82540000D01*
X136062667Y-82540000D01*
X135951014Y-82550997D01*
X135807753Y-82594454D01*
X135675723Y-82665026D01*
X135633108Y-82700000D01*
X135559999Y-82759999D01*
X135536200Y-82788998D01*
X135460198Y-82865000D01*
X135398061Y-82865000D01*
X135198102Y-82904774D01*
X135009744Y-82982795D01*
X134840226Y-83096063D01*
X134696063Y-83240226D01*
X134582795Y-83409744D01*
X134504774Y-83598102D01*
X134465000Y-83798061D01*
X132061772Y-83798061D01*
X131959774Y-83696063D01*
X131790256Y-83582795D01*
X131601898Y-83504774D01*
X131401939Y-83465000D01*
X131198061Y-83465000D01*
X130998102Y-83504774D01*
X130809744Y-83582795D01*
X130640226Y-83696063D01*
X130496063Y-83840226D01*
X130382795Y-84009744D01*
X130304774Y-84198102D01*
X130265000Y-84398061D01*
X130265000Y-84601939D01*
X130304774Y-84801898D01*
X130382795Y-84990256D01*
X130496063Y-85159774D01*
X130640226Y-85303937D01*
X130809744Y-85417205D01*
X130998102Y-85495226D01*
X131143225Y-85524092D01*
X131980563Y-86361432D01*
X132006709Y-86393291D01*
X132038568Y-86419437D01*
X132038570Y-86419439D01*
X132087719Y-86459774D01*
X132133854Y-86497636D01*
X132278913Y-86575172D01*
X132436311Y-86622918D01*
X132558981Y-86635000D01*
X132558982Y-86635000D01*
X132600000Y-86639040D01*
X132641018Y-86635000D01*
X145386715Y-86635000D01*
X145509744Y-86717205D01*
X145698102Y-86795226D01*
X145898061Y-86835000D01*
X146101939Y-86835000D01*
X146301898Y-86795226D01*
X146490256Y-86717205D01*
X146659774Y-86603937D01*
X146803937Y-86459774D01*
X146917205Y-86290256D01*
X146995226Y-86101898D01*
X147035000Y-85901939D01*
X147035000Y-85698061D01*
X146995226Y-85498102D01*
X146917205Y-85309744D01*
X146803937Y-85140226D01*
X146659774Y-84996063D01*
X146490256Y-84882795D01*
X146301898Y-84804774D01*
X146101939Y-84765000D01*
X145898061Y-84765000D01*
X145698102Y-84804774D01*
X145509744Y-84882795D01*
X145386715Y-84965000D01*
X141802565Y-84965000D01*
X141825599Y-84849202D01*
X144239802Y-82435000D01*
X144301939Y-82435000D01*
X144501898Y-82395226D01*
X144690256Y-82317205D01*
X144859774Y-82203937D01*
X145003937Y-82059774D01*
X145076450Y-81951251D01*
X147965000Y-84839802D01*
X147965000Y-84901939D01*
X148004774Y-85101898D01*
X148082795Y-85290256D01*
X148196063Y-85459774D01*
X148340226Y-85603937D01*
X148509744Y-85717205D01*
X148698102Y-85795226D01*
X148898061Y-85835000D01*
X149101939Y-85835000D01*
X149240000Y-85807538D01*
X149240000Y-88085197D01*
X146185199Y-91140000D01*
X130687324Y-91140000D01*
X130650001Y-91136324D01*
X130612678Y-91140000D01*
X130612669Y-91140000D01*
X130501016Y-91150997D01*
X130357755Y-91194454D01*
X130225726Y-91265026D01*
X130225724Y-91265027D01*
X130225725Y-91265027D01*
X130138998Y-91336201D01*
X130138994Y-91336205D01*
X130110001Y-91359999D01*
X130086207Y-91388992D01*
X127999725Y-93475475D01*
X127951250Y-93427000D01*
X126627000Y-93427000D01*
X126627000Y-93447000D01*
X126373000Y-93447000D01*
X126373000Y-93427000D01*
X125048750Y-93427000D01*
X124890000Y-93585750D01*
X124886928Y-94150000D01*
X124899188Y-94274482D01*
X124911479Y-94315001D01*
X121560868Y-94315001D01*
X121581481Y-94256891D01*
X121460814Y-94027000D01*
X120267000Y-94027000D01*
X120267000Y-94047000D01*
X120013000Y-94047000D01*
X120013000Y-94027000D01*
X119993000Y-94027000D01*
X119993000Y-93773000D01*
X120013000Y-93773000D01*
X120013000Y-92579845D01*
X120267000Y-92579845D01*
X120267000Y-93773000D01*
X121460814Y-93773000D01*
X121581481Y-93543109D01*
X121484157Y-93268748D01*
X121335178Y-93018645D01*
X121140269Y-92802412D01*
X120906920Y-92628359D01*
X120644099Y-92503175D01*
X120496890Y-92458524D01*
X120267000Y-92579845D01*
X120013000Y-92579845D01*
X119783110Y-92458524D01*
X119635901Y-92503175D01*
X119373080Y-92628359D01*
X119139731Y-92802412D01*
X118944822Y-93018645D01*
X118875195Y-93135534D01*
X118753475Y-92953368D01*
X118546632Y-92746525D01*
X118303411Y-92584010D01*
X118033158Y-92472068D01*
X117746260Y-92415000D01*
X117453740Y-92415000D01*
X117166842Y-92472068D01*
X116896589Y-92584010D01*
X116653368Y-92746525D01*
X116446525Y-92953368D01*
X116330000Y-93127760D01*
X116213475Y-92953368D01*
X116006632Y-92746525D01*
X115763411Y-92584010D01*
X115493158Y-92472068D01*
X115206260Y-92415000D01*
X114913740Y-92415000D01*
X114626842Y-92472068D01*
X114356589Y-92584010D01*
X114113368Y-92746525D01*
X113906525Y-92953368D01*
X113790000Y-93127760D01*
X113673475Y-92953368D01*
X113466632Y-92746525D01*
X113223411Y-92584010D01*
X112953158Y-92472068D01*
X112666260Y-92415000D01*
X112373740Y-92415000D01*
X112086842Y-92472068D01*
X111816589Y-92584010D01*
X111573368Y-92746525D01*
X111366525Y-92953368D01*
X111250000Y-93127760D01*
X111133475Y-92953368D01*
X110926632Y-92746525D01*
X110683411Y-92584010D01*
X110413158Y-92472068D01*
X110126260Y-92415000D01*
X109833740Y-92415000D01*
X109546842Y-92472068D01*
X109276589Y-92584010D01*
X109033368Y-92746525D01*
X108826525Y-92953368D01*
X108710000Y-93127760D01*
X108593475Y-92953368D01*
X108386632Y-92746525D01*
X108275000Y-92671935D01*
X108275000Y-86305867D01*
X108356775Y-86224093D01*
X108501898Y-86195226D01*
X108690256Y-86117205D01*
X108859774Y-86003937D01*
X109003937Y-85859774D01*
X109110694Y-85700000D01*
X114561928Y-85700000D01*
X114574188Y-85824482D01*
X114610498Y-85944180D01*
X114669463Y-86054494D01*
X114748815Y-86151185D01*
X114845506Y-86230537D01*
X114955820Y-86289502D01*
X115075518Y-86325812D01*
X115200000Y-86338072D01*
X117014250Y-86335000D01*
X117173000Y-86176250D01*
X117173000Y-84327000D01*
X117427000Y-84327000D01*
X117427000Y-86176250D01*
X117585750Y-86335000D01*
X119400000Y-86338072D01*
X119524482Y-86325812D01*
X119644180Y-86289502D01*
X119754494Y-86230537D01*
X119851185Y-86151185D01*
X119930537Y-86054494D01*
X119989502Y-85944180D01*
X120025812Y-85824482D01*
X120038072Y-85700000D01*
X120035000Y-84485750D01*
X119876250Y-84327000D01*
X117427000Y-84327000D01*
X117173000Y-84327000D01*
X114723750Y-84327000D01*
X114565000Y-84485750D01*
X114561928Y-85700000D01*
X109110694Y-85700000D01*
X109117205Y-85690256D01*
X109195226Y-85501898D01*
X109235000Y-85301939D01*
X109235000Y-85098061D01*
X109195226Y-84898102D01*
X109117205Y-84709744D01*
X109003937Y-84540226D01*
X108859774Y-84396063D01*
X108690256Y-84282795D01*
X108501898Y-84204774D01*
X108301939Y-84165000D01*
X108098061Y-84165000D01*
X107898102Y-84204774D01*
X107709744Y-84282795D01*
X107540226Y-84396063D01*
X107396063Y-84540226D01*
X107282795Y-84709744D01*
X107204774Y-84898102D01*
X107175907Y-85043225D01*
X106878574Y-85340559D01*
X106846710Y-85366709D01*
X106779174Y-85449002D01*
X106742364Y-85493855D01*
X106664828Y-85638914D01*
X106617082Y-85796312D01*
X106600960Y-85960000D01*
X106605001Y-86001028D01*
X106605000Y-87398981D01*
X106605000Y-87398982D01*
X106605001Y-92671934D01*
X106493368Y-92746525D01*
X106361513Y-92878380D01*
X106339502Y-92805820D01*
X106280537Y-92695506D01*
X106201185Y-92598815D01*
X106104494Y-92519463D01*
X105994180Y-92460498D01*
X105874482Y-92424188D01*
X105750000Y-92411928D01*
X104050000Y-92411928D01*
X103925518Y-92424188D01*
X103805820Y-92460498D01*
X103695506Y-92519463D01*
X103598815Y-92598815D01*
X103519463Y-92695506D01*
X103460498Y-92805820D01*
X103424188Y-92925518D01*
X103411928Y-93050000D01*
X103411928Y-94750000D01*
X103424188Y-94874482D01*
X103460498Y-94994180D01*
X103519463Y-95104494D01*
X103598815Y-95201185D01*
X103695506Y-95280537D01*
X103805820Y-95339502D01*
X103925518Y-95375812D01*
X104050000Y-95388072D01*
X105750000Y-95388072D01*
X105874482Y-95375812D01*
X105994180Y-95339502D01*
X106104494Y-95280537D01*
X106201185Y-95201185D01*
X106280537Y-95104494D01*
X106339502Y-94994180D01*
X106361513Y-94921620D01*
X106493368Y-95053475D01*
X106736589Y-95215990D01*
X107006842Y-95327932D01*
X107293740Y-95385000D01*
X107586260Y-95385000D01*
X107873158Y-95327932D01*
X108143411Y-95215990D01*
X108386632Y-95053475D01*
X108593475Y-94846632D01*
X108710000Y-94672240D01*
X108826525Y-94846632D01*
X109033368Y-95053475D01*
X109276589Y-95215990D01*
X109546842Y-95327932D01*
X109833740Y-95385000D01*
X110126260Y-95385000D01*
X110413158Y-95327932D01*
X110683411Y-95215990D01*
X110926632Y-95053475D01*
X111133475Y-94846632D01*
X111250000Y-94672240D01*
X111366525Y-94846632D01*
X111573368Y-95053475D01*
X111816589Y-95215990D01*
X111885102Y-95244369D01*
X111910381Y-95275171D01*
X111979999Y-95360001D01*
X112009002Y-95383803D01*
X112736201Y-96111002D01*
X112759999Y-96140001D01*
X112788997Y-96163799D01*
X112875724Y-96234974D01*
X113007753Y-96305546D01*
X113151014Y-96349003D01*
X113300000Y-96363677D01*
X113337333Y-96360000D01*
X127549090Y-96360000D01*
X127586412Y-96363676D01*
X127623734Y-96360000D01*
X127623745Y-96360000D01*
X127735398Y-96349003D01*
X127878659Y-96305546D01*
X128010688Y-96234974D01*
X128126413Y-96140001D01*
X128150216Y-96110997D01*
X130951214Y-93310000D01*
X141540198Y-93310000D01*
X141060199Y-93790000D01*
X140998061Y-93790000D01*
X140798102Y-93829774D01*
X140609744Y-93907795D01*
X140440226Y-94021063D01*
X140296063Y-94165226D01*
X140182795Y-94334744D01*
X140104774Y-94523102D01*
X140065000Y-94723061D01*
X140065000Y-94926939D01*
X140104774Y-95126898D01*
X140182795Y-95315256D01*
X140296063Y-95484774D01*
X140440226Y-95628937D01*
X140609744Y-95742205D01*
X140798102Y-95820226D01*
X140998061Y-95860000D01*
X141201939Y-95860000D01*
X141401898Y-95820226D01*
X141590256Y-95742205D01*
X141759774Y-95628937D01*
X141903937Y-95484774D01*
X142017205Y-95315256D01*
X142095226Y-95126898D01*
X142135000Y-94926939D01*
X142135000Y-94864801D01*
X142603634Y-94396168D01*
X142604774Y-94401898D01*
X142682795Y-94590256D01*
X142796063Y-94759774D01*
X142940226Y-94903937D01*
X143109744Y-95017205D01*
X143298102Y-95095226D01*
X143498061Y-95135000D01*
X143701939Y-95135000D01*
X143901898Y-95095226D01*
X144090256Y-95017205D01*
X144259774Y-94903937D01*
X144403937Y-94759774D01*
X144462251Y-94672500D01*
X147275178Y-94672500D01*
X147312500Y-94676176D01*
X147349822Y-94672500D01*
X147349833Y-94672500D01*
X147461486Y-94661503D01*
X147604747Y-94618046D01*
X147678072Y-94578853D01*
X147682795Y-94590256D01*
X147796063Y-94759774D01*
X147940226Y-94903937D01*
X148109744Y-95017205D01*
X148298102Y-95095226D01*
X148444566Y-95124359D01*
X148533854Y-95197636D01*
X148678913Y-95275172D01*
X148836311Y-95322918D01*
X148958981Y-95335000D01*
X148958991Y-95335000D01*
X148999999Y-95339039D01*
X149041007Y-95335000D01*
X155658982Y-95335000D01*
X155700000Y-95339040D01*
X155741018Y-95335000D01*
X155741019Y-95335000D01*
X155863689Y-95322918D01*
X156021087Y-95275172D01*
X156166146Y-95197636D01*
X156293291Y-95093291D01*
X156319446Y-95061421D01*
X158745869Y-92635000D01*
X164755705Y-92635000D01*
X164497912Y-92892793D01*
X164187656Y-93357124D01*
X163973948Y-93873061D01*
X163865000Y-94420777D01*
X163865000Y-94979223D01*
X163973948Y-95526939D01*
X164187656Y-96042876D01*
X164497912Y-96507207D01*
X164730705Y-96740000D01*
X100660000Y-96740000D01*
X100660000Y-82700000D01*
X114561928Y-82700000D01*
X114565000Y-83914250D01*
X114723750Y-84073000D01*
X117173000Y-84073000D01*
X117173000Y-82223750D01*
X117427000Y-82223750D01*
X117427000Y-84073000D01*
X119876250Y-84073000D01*
X120035000Y-83914250D01*
X120038072Y-82700000D01*
X120025812Y-82575518D01*
X119989502Y-82455820D01*
X119930537Y-82345506D01*
X119851185Y-82248815D01*
X119754494Y-82169463D01*
X119644180Y-82110498D01*
X119524482Y-82074188D01*
X119400000Y-82061928D01*
X117585750Y-82065000D01*
X117427000Y-82223750D01*
X117173000Y-82223750D01*
X117014250Y-82065000D01*
X115200000Y-82061928D01*
X115075518Y-82074188D01*
X114955820Y-82110498D01*
X114845506Y-82169463D01*
X114748815Y-82248815D01*
X114669463Y-82345506D01*
X114610498Y-82455820D01*
X114574188Y-82575518D01*
X114561928Y-82700000D01*
X100660000Y-82700000D01*
X100660000Y-43156818D01*
X100673948Y-43226939D01*
X100887656Y-43742876D01*
X101197912Y-44207207D01*
X101592793Y-44602088D01*
X102057124Y-44912344D01*
X102573061Y-45126052D01*
X103120777Y-45235000D01*
X103679223Y-45235000D01*
X104226939Y-45126052D01*
X104742876Y-44912344D01*
X105207207Y-44602088D01*
X105602088Y-44207207D01*
X105912344Y-43742876D01*
X106126052Y-43226939D01*
X106235000Y-42679223D01*
X106235000Y-42120777D01*
X106126052Y-41573061D01*
X105912344Y-41057124D01*
X105602088Y-40592793D01*
X105207207Y-40197912D01*
X104742876Y-39887656D01*
X104226939Y-39673948D01*
X103679223Y-39565000D01*
X103120777Y-39565000D01*
X102573061Y-39673948D01*
X102057124Y-39887656D01*
X101592793Y-40197912D01*
X101197912Y-40592793D01*
X100887656Y-41057124D01*
X100673948Y-41573061D01*
X100660000Y-41643182D01*
X100660000Y-37660000D01*
X159359474Y-37660000D01*
X162337758Y-41848213D01*
G37*
X162337758Y-41848213D02*
X162348575Y-41868450D01*
X162375344Y-41901068D01*
X162380917Y-41908905D01*
X162395905Y-41926121D01*
X162431052Y-41968948D01*
X162438533Y-41975088D01*
X162444892Y-41982392D01*
X162488724Y-42016278D01*
X162531550Y-42051425D01*
X162540091Y-42055990D01*
X162547747Y-42061909D01*
X162597340Y-42086590D01*
X162646207Y-42112710D01*
X162655469Y-42115520D01*
X162664138Y-42119834D01*
X162717598Y-42134367D01*
X162770617Y-42150450D01*
X162780255Y-42151399D01*
X162789594Y-42153938D01*
X162844850Y-42157761D01*
X162867581Y-42160000D01*
X162877207Y-42160000D01*
X162919293Y-42162912D01*
X162942049Y-42160000D01*
X164791910Y-42160000D01*
X164713507Y-42347004D01*
X164665000Y-42585500D01*
X164665000Y-42935500D01*
X165773000Y-42935500D01*
X165773000Y-42915500D01*
X166027000Y-42915500D01*
X166027000Y-42935500D01*
X167135000Y-42935500D01*
X167135000Y-42585500D01*
X167086493Y-42347004D01*
X167008090Y-42160000D01*
X171791910Y-42160000D01*
X171713507Y-42347004D01*
X171665000Y-42585500D01*
X171665000Y-42935500D01*
X172773000Y-42935500D01*
X172773000Y-42915500D01*
X173027000Y-42915500D01*
X173027000Y-42935500D01*
X174135000Y-42935500D01*
X174135000Y-42585500D01*
X174086493Y-42347004D01*
X174008090Y-42160000D01*
X176140000Y-42160000D01*
X176140001Y-95967572D01*
X176140000Y-95967582D01*
X176140001Y-96740000D01*
X168669295Y-96740000D01*
X168902088Y-96507207D01*
X169212344Y-96042876D01*
X169426052Y-95526939D01*
X169535000Y-94979223D01*
X169535000Y-94420777D01*
X169426052Y-93873061D01*
X169212344Y-93357124D01*
X168902088Y-92892793D01*
X168644295Y-92635000D01*
X171422722Y-92635000D01*
X171454528Y-92739850D01*
X171536595Y-92893386D01*
X171647038Y-93027962D01*
X171781614Y-93138405D01*
X171935150Y-93220472D01*
X172101746Y-93271008D01*
X172275000Y-93288072D01*
X173725000Y-93288072D01*
X173898254Y-93271008D01*
X174064850Y-93220472D01*
X174218386Y-93138405D01*
X174352962Y-93027962D01*
X174463405Y-92893386D01*
X174545472Y-92739850D01*
X174596008Y-92573254D01*
X174613072Y-92400000D01*
X174613072Y-91200000D01*
X174596008Y-91026746D01*
X174545472Y-90860150D01*
X174463405Y-90706614D01*
X174352962Y-90572038D01*
X174218386Y-90461595D01*
X174116663Y-90407223D01*
X174180134Y-90355134D01*
X174365706Y-90129014D01*
X174503599Y-89871034D01*
X174588513Y-89591111D01*
X174617185Y-89300000D01*
X174588513Y-89008889D01*
X174503599Y-88728966D01*
X174365706Y-88470986D01*
X174180134Y-88244866D01*
X173954014Y-88059294D01*
X173928278Y-88045538D01*
X174134429Y-87889049D01*
X174327496Y-87671193D01*
X174474352Y-87419858D01*
X174566476Y-87156890D01*
X174445155Y-86927000D01*
X173127000Y-86927000D01*
X173127000Y-86947000D01*
X172873000Y-86947000D01*
X172873000Y-86927000D01*
X171554845Y-86927000D01*
X171433524Y-87156890D01*
X171525648Y-87419858D01*
X171672504Y-87671193D01*
X171865571Y-87889049D01*
X172071722Y-88045538D01*
X172045986Y-88059294D01*
X171819866Y-88244866D01*
X171634294Y-88470986D01*
X171496401Y-88728966D01*
X171411487Y-89008889D01*
X171382815Y-89300000D01*
X171411487Y-89591111D01*
X171496401Y-89871034D01*
X171634294Y-90129014D01*
X171819866Y-90355134D01*
X171883337Y-90407223D01*
X171781614Y-90461595D01*
X171647038Y-90572038D01*
X171536595Y-90706614D01*
X171454528Y-90860150D01*
X171422722Y-90965000D01*
X158441018Y-90965000D01*
X158400000Y-90960960D01*
X158358982Y-90965000D01*
X158358981Y-90965000D01*
X158236311Y-90977082D01*
X158078913Y-91024828D01*
X157933854Y-91102364D01*
X157892474Y-91136324D01*
X157806709Y-91206709D01*
X157780563Y-91238568D01*
X155354133Y-93665000D01*
X149540093Y-93665000D01*
X149517205Y-93609744D01*
X149403937Y-93440226D01*
X149259774Y-93296063D01*
X149106292Y-93193510D01*
X152011023Y-90288779D01*
X152040020Y-90264982D01*
X152134993Y-90149257D01*
X152205565Y-90017228D01*
X152249022Y-89873967D01*
X152260019Y-89762314D01*
X152260019Y-89762305D01*
X152263695Y-89724982D01*
X152260019Y-89687659D01*
X152260019Y-86443110D01*
X171433524Y-86443110D01*
X171554845Y-86673000D01*
X172873000Y-86673000D01*
X172873000Y-85473835D01*
X173127000Y-85473835D01*
X173127000Y-86673000D01*
X174445155Y-86673000D01*
X174566476Y-86443110D01*
X174474352Y-86180142D01*
X174327496Y-85928807D01*
X174134429Y-85710951D01*
X173902570Y-85534947D01*
X173640830Y-85407558D01*
X173359267Y-85333680D01*
X173127000Y-85473835D01*
X172873000Y-85473835D01*
X172640733Y-85333680D01*
X172359170Y-85407558D01*
X172097430Y-85534947D01*
X171865571Y-85710951D01*
X171672504Y-85928807D01*
X171525648Y-86180142D01*
X171433524Y-86443110D01*
X152260019Y-86443110D01*
X152260019Y-83298061D01*
X160865000Y-83298061D01*
X160865000Y-83501939D01*
X160904774Y-83701898D01*
X160982795Y-83890256D01*
X161096063Y-84059774D01*
X161240226Y-84203937D01*
X161409744Y-84317205D01*
X161598102Y-84395226D01*
X161743225Y-84424093D01*
X161980558Y-84661426D01*
X162006709Y-84693291D01*
X162133854Y-84797636D01*
X162278913Y-84875172D01*
X162436311Y-84922918D01*
X162558981Y-84935000D01*
X162558991Y-84935000D01*
X162599999Y-84939039D01*
X162641007Y-84935000D01*
X165686715Y-84935000D01*
X165809744Y-85017205D01*
X165998102Y-85095226D01*
X166198061Y-85135000D01*
X166401939Y-85135000D01*
X166601898Y-85095226D01*
X166790256Y-85017205D01*
X166959774Y-84903937D01*
X167103937Y-84759774D01*
X167217205Y-84590256D01*
X167295226Y-84401898D01*
X167335000Y-84201939D01*
X167335000Y-83998061D01*
X167295226Y-83798102D01*
X167217205Y-83609744D01*
X167135000Y-83486715D01*
X167135000Y-81022456D01*
X167198061Y-81035000D01*
X167401939Y-81035000D01*
X167601898Y-80995226D01*
X167790256Y-80917205D01*
X167959774Y-80803937D01*
X168003711Y-80760000D01*
X168962678Y-80760000D01*
X169000000Y-80763676D01*
X169037322Y-80760000D01*
X169037333Y-80760000D01*
X169148986Y-80749003D01*
X169292247Y-80705546D01*
X169424276Y-80634974D01*
X169540001Y-80540001D01*
X169563804Y-80510997D01*
X171603465Y-78471337D01*
X171634294Y-78529014D01*
X171819866Y-78755134D01*
X171883337Y-78807223D01*
X171781614Y-78861595D01*
X171647038Y-78972038D01*
X171536595Y-79106614D01*
X171454528Y-79260150D01*
X171403992Y-79426746D01*
X171386928Y-79600000D01*
X171386928Y-80800000D01*
X171403992Y-80973254D01*
X171454528Y-81139850D01*
X171536595Y-81293386D01*
X171647038Y-81427962D01*
X171781614Y-81538405D01*
X171935150Y-81620472D01*
X172101746Y-81671008D01*
X172275000Y-81688072D01*
X173725000Y-81688072D01*
X173898254Y-81671008D01*
X174064850Y-81620472D01*
X174218386Y-81538405D01*
X174352962Y-81427962D01*
X174463405Y-81293386D01*
X174545472Y-81139850D01*
X174596008Y-80973254D01*
X174613072Y-80800000D01*
X174613072Y-79600000D01*
X174596008Y-79426746D01*
X174545472Y-79260150D01*
X174463405Y-79106614D01*
X174352962Y-78972038D01*
X174218386Y-78861595D01*
X174116663Y-78807223D01*
X174180134Y-78755134D01*
X174365706Y-78529014D01*
X174503599Y-78271034D01*
X174588513Y-77991111D01*
X174617185Y-77700000D01*
X174588513Y-77408889D01*
X174503599Y-77128966D01*
X174365706Y-76870986D01*
X174180134Y-76644866D01*
X173954014Y-76459294D01*
X173928278Y-76445538D01*
X174134429Y-76289049D01*
X174327496Y-76071193D01*
X174474352Y-75819858D01*
X174566476Y-75556890D01*
X174445155Y-75327000D01*
X173127000Y-75327000D01*
X173127000Y-75347000D01*
X172873000Y-75347000D01*
X172873000Y-75327000D01*
X171554845Y-75327000D01*
X171433524Y-75556890D01*
X171525648Y-75819858D01*
X171672504Y-76071193D01*
X171865571Y-76289049D01*
X172071722Y-76445538D01*
X172045986Y-76459294D01*
X171819866Y-76644866D01*
X171634294Y-76870986D01*
X171597405Y-76940000D01*
X171337322Y-76940000D01*
X171299999Y-76936324D01*
X171262676Y-76940000D01*
X171262667Y-76940000D01*
X171151014Y-76950997D01*
X171007753Y-76994454D01*
X170875724Y-77065026D01*
X170759999Y-77159999D01*
X170736201Y-77188997D01*
X168685199Y-79240000D01*
X168003711Y-79240000D01*
X167959774Y-79196063D01*
X167790256Y-79082795D01*
X167601898Y-79004774D01*
X167401939Y-78965000D01*
X167198061Y-78965000D01*
X167135000Y-78977544D01*
X167135000Y-76845867D01*
X167956775Y-76024092D01*
X168101898Y-75995226D01*
X168290256Y-75917205D01*
X168459774Y-75803937D01*
X168603937Y-75659774D01*
X168717205Y-75490256D01*
X168795226Y-75301898D01*
X168835000Y-75101939D01*
X168835000Y-74898061D01*
X168824070Y-74843110D01*
X171433524Y-74843110D01*
X171554845Y-75073000D01*
X172873000Y-75073000D01*
X172873000Y-73873835D01*
X173127000Y-73873835D01*
X173127000Y-75073000D01*
X174445155Y-75073000D01*
X174566476Y-74843110D01*
X174474352Y-74580142D01*
X174327496Y-74328807D01*
X174134429Y-74110951D01*
X173902570Y-73934947D01*
X173640830Y-73807558D01*
X173359267Y-73733680D01*
X173127000Y-73873835D01*
X172873000Y-73873835D01*
X172640733Y-73733680D01*
X172359170Y-73807558D01*
X172097430Y-73934947D01*
X171865571Y-74110951D01*
X171672504Y-74328807D01*
X171525648Y-74580142D01*
X171433524Y-74843110D01*
X168824070Y-74843110D01*
X168795226Y-74698102D01*
X168717205Y-74509744D01*
X168635000Y-74386715D01*
X168635000Y-72841015D01*
X168639040Y-72799999D01*
X168634017Y-72749004D01*
X168622918Y-72636311D01*
X168575172Y-72478913D01*
X168497636Y-72333854D01*
X168393291Y-72206709D01*
X168361426Y-72180558D01*
X167924093Y-71743225D01*
X167895226Y-71598102D01*
X167817205Y-71409744D01*
X167703937Y-71240226D01*
X167559774Y-71096063D01*
X167390256Y-70982795D01*
X167201898Y-70904774D01*
X167001939Y-70865000D01*
X166798061Y-70865000D01*
X166598102Y-70904774D01*
X166409744Y-70982795D01*
X166240226Y-71096063D01*
X166096063Y-71240226D01*
X165982795Y-71409744D01*
X165904774Y-71598102D01*
X165865000Y-71798061D01*
X165865000Y-72001939D01*
X165904774Y-72201898D01*
X165982795Y-72390256D01*
X166096063Y-72559774D01*
X166240226Y-72703937D01*
X166409744Y-72817205D01*
X166598102Y-72895226D01*
X166743225Y-72924093D01*
X166965001Y-73145869D01*
X166965000Y-74386715D01*
X166882795Y-74509744D01*
X166804774Y-74698102D01*
X166775908Y-74843225D01*
X165738574Y-75880559D01*
X165706710Y-75906709D01*
X165625907Y-76005168D01*
X165602364Y-76033855D01*
X165524828Y-76178914D01*
X165477082Y-76336312D01*
X165460960Y-76500000D01*
X165465001Y-76541028D01*
X165465000Y-83265000D01*
X162945868Y-83265000D01*
X162924093Y-83243225D01*
X162895226Y-83098102D01*
X162817205Y-82909744D01*
X162703937Y-82740226D01*
X162559774Y-82596063D01*
X162390256Y-82482795D01*
X162201898Y-82404774D01*
X162001939Y-82365000D01*
X161798061Y-82365000D01*
X161598102Y-82404774D01*
X161409744Y-82482795D01*
X161240226Y-82596063D01*
X161096063Y-82740226D01*
X160982795Y-82909744D01*
X160904774Y-83098102D01*
X160865000Y-83298061D01*
X152260019Y-83298061D01*
X152260019Y-76537341D01*
X152263695Y-76500018D01*
X152260019Y-76462695D01*
X152260019Y-76462686D01*
X152249022Y-76351033D01*
X152205565Y-76207772D01*
X152134993Y-76075743D01*
X152118383Y-76055504D01*
X152063818Y-75989015D01*
X152063814Y-75989011D01*
X152040020Y-75960018D01*
X152011027Y-75936224D01*
X148375315Y-72300514D01*
X148401898Y-72295226D01*
X148547225Y-72235029D01*
X149860228Y-72235029D01*
X155465000Y-77839802D01*
X155465000Y-77901939D01*
X155504774Y-78101898D01*
X155582795Y-78290256D01*
X155696063Y-78459774D01*
X155840226Y-78603937D01*
X156009744Y-78717205D01*
X156198102Y-78795226D01*
X156398061Y-78835000D01*
X156601939Y-78835000D01*
X156801898Y-78795226D01*
X156990256Y-78717205D01*
X157159774Y-78603937D01*
X157303937Y-78459774D01*
X157417205Y-78290256D01*
X157495226Y-78101898D01*
X157535000Y-77901939D01*
X157535000Y-77698061D01*
X157495226Y-77498102D01*
X157417205Y-77309744D01*
X157303937Y-77140226D01*
X157159774Y-76996063D01*
X156990256Y-76882795D01*
X156801898Y-76804774D01*
X156601939Y-76765000D01*
X156539802Y-76765000D01*
X151559820Y-71785019D01*
X162437659Y-71785019D01*
X162474981Y-71788695D01*
X162512303Y-71785019D01*
X162512314Y-71785019D01*
X162623967Y-71774022D01*
X162767228Y-71730565D01*
X162899257Y-71659993D01*
X163014982Y-71565020D01*
X163038785Y-71536016D01*
X163265000Y-71309801D01*
X163265001Y-76786714D01*
X163182795Y-76909744D01*
X163104774Y-77098102D01*
X163075908Y-77243224D01*
X161938574Y-78380559D01*
X161906710Y-78406709D01*
X161853017Y-78472134D01*
X161802364Y-78533855D01*
X161724828Y-78678914D01*
X161677082Y-78836312D01*
X161660960Y-79000000D01*
X161665001Y-79041028D01*
X161665001Y-79586714D01*
X161582795Y-79709744D01*
X161504774Y-79898102D01*
X161465000Y-80098061D01*
X161465000Y-80301939D01*
X161504774Y-80501898D01*
X161582795Y-80690256D01*
X161696063Y-80859774D01*
X161840226Y-81003937D01*
X162009744Y-81117205D01*
X162198102Y-81195226D01*
X162398061Y-81235000D01*
X162601939Y-81235000D01*
X162801898Y-81195226D01*
X162990256Y-81117205D01*
X163159774Y-81003937D01*
X163303937Y-80859774D01*
X163417205Y-80690256D01*
X163495226Y-80501898D01*
X163535000Y-80301939D01*
X163535000Y-80098061D01*
X163495226Y-79898102D01*
X163417205Y-79709744D01*
X163335000Y-79586715D01*
X163335000Y-79345867D01*
X164256776Y-78424092D01*
X164401898Y-78395226D01*
X164590256Y-78317205D01*
X164759774Y-78203937D01*
X164903937Y-78059774D01*
X165017205Y-77890256D01*
X165095226Y-77701898D01*
X165135000Y-77501939D01*
X165135000Y-77298061D01*
X165095226Y-77098102D01*
X165017205Y-76909744D01*
X164935000Y-76786715D01*
X164935000Y-70929869D01*
X167561427Y-68303443D01*
X167593291Y-68277293D01*
X167697636Y-68150148D01*
X167775172Y-68005089D01*
X167822918Y-67847691D01*
X167835000Y-67725021D01*
X167835000Y-67725011D01*
X167839039Y-67684003D01*
X167835000Y-67642995D01*
X167835000Y-65613285D01*
X167917205Y-65490256D01*
X167995226Y-65301898D01*
X168035000Y-65101939D01*
X168035000Y-64898061D01*
X167995226Y-64698102D01*
X167917205Y-64509744D01*
X167803937Y-64340226D01*
X167659774Y-64196063D01*
X167490256Y-64082795D01*
X167301898Y-64004774D01*
X167101939Y-63965000D01*
X166898061Y-63965000D01*
X166760000Y-63992462D01*
X166760000Y-63714801D01*
X167239802Y-63235000D01*
X167301939Y-63235000D01*
X167501898Y-63195226D01*
X167690256Y-63117205D01*
X167859774Y-63003937D01*
X168003937Y-62859774D01*
X168117205Y-62690256D01*
X168195226Y-62501898D01*
X168235000Y-62301939D01*
X168235000Y-62098061D01*
X168195226Y-61898102D01*
X168117205Y-61709744D01*
X168003937Y-61540226D01*
X167859774Y-61396063D01*
X167690256Y-61282795D01*
X167501898Y-61204774D01*
X167301939Y-61165000D01*
X167098061Y-61165000D01*
X166898102Y-61204774D01*
X166709744Y-61282795D01*
X166540226Y-61396063D01*
X166396063Y-61540226D01*
X166282795Y-61709744D01*
X166204774Y-61898102D01*
X166165000Y-62098061D01*
X166165000Y-62160198D01*
X165488998Y-62836201D01*
X165460000Y-62859999D01*
X165436202Y-62888997D01*
X165436201Y-62888998D01*
X165365026Y-62975724D01*
X165294454Y-63107754D01*
X165271026Y-63184989D01*
X165250998Y-63251014D01*
X165240671Y-63355865D01*
X165236324Y-63400000D01*
X165240001Y-63437332D01*
X165240000Y-65971913D01*
X162526740Y-68685173D01*
X162465706Y-68570986D01*
X162280134Y-68344866D01*
X162054014Y-68159294D01*
X162036626Y-68150000D01*
X162054014Y-68140706D01*
X162280134Y-67955134D01*
X162465706Y-67729014D01*
X162603599Y-67471034D01*
X162688513Y-67191111D01*
X162717185Y-66900000D01*
X162688513Y-66608889D01*
X162603599Y-66328966D01*
X162465706Y-66070986D01*
X162280134Y-65844866D01*
X162054014Y-65659294D01*
X162036626Y-65650000D01*
X162054014Y-65640706D01*
X162280134Y-65455134D01*
X162465706Y-65229014D01*
X162603599Y-64971034D01*
X162688513Y-64691111D01*
X162717185Y-64400000D01*
X162688513Y-64108889D01*
X162603599Y-63828966D01*
X162465706Y-63570986D01*
X162284392Y-63350055D01*
X162319180Y-63339502D01*
X162429494Y-63280537D01*
X162526185Y-63201185D01*
X162605537Y-63104494D01*
X162664502Y-62994180D01*
X162700812Y-62874482D01*
X162713072Y-62750000D01*
X162710000Y-62185750D01*
X162551250Y-62027000D01*
X161227000Y-62027000D01*
X161227000Y-62047000D01*
X160973000Y-62047000D01*
X160973000Y-62027000D01*
X159648750Y-62027000D01*
X159490000Y-62185750D01*
X159486928Y-62750000D01*
X159499188Y-62874482D01*
X159535498Y-62994180D01*
X159594463Y-63104494D01*
X159673815Y-63201185D01*
X159770506Y-63280537D01*
X159880820Y-63339502D01*
X159915608Y-63350055D01*
X159734294Y-63570986D01*
X159596401Y-63828966D01*
X159511487Y-64108889D01*
X159482815Y-64400000D01*
X159511487Y-64691111D01*
X159596401Y-64971034D01*
X159734294Y-65229014D01*
X159919866Y-65455134D01*
X160145986Y-65640706D01*
X160163374Y-65650000D01*
X160145986Y-65659294D01*
X159919866Y-65844866D01*
X159734294Y-66070986D01*
X159601080Y-66320212D01*
X159124093Y-65843225D01*
X159095226Y-65698102D01*
X159017205Y-65509744D01*
X158903937Y-65340226D01*
X158759774Y-65196063D01*
X158590256Y-65082795D01*
X158401898Y-65004774D01*
X158201939Y-64965000D01*
X157998061Y-64965000D01*
X157798102Y-65004774D01*
X157609744Y-65082795D01*
X157440226Y-65196063D01*
X157296063Y-65340226D01*
X157182795Y-65509744D01*
X157104774Y-65698102D01*
X157065000Y-65898061D01*
X157065000Y-66101939D01*
X157104774Y-66301898D01*
X157182795Y-66490256D01*
X157296063Y-66659774D01*
X157440226Y-66803937D01*
X157609744Y-66917205D01*
X157798102Y-66995226D01*
X157943225Y-67024093D01*
X159649241Y-68730109D01*
X159596401Y-68828966D01*
X159511487Y-69108889D01*
X159482815Y-69400000D01*
X159511487Y-69691111D01*
X159549071Y-69815010D01*
X150221567Y-69815010D01*
X149759035Y-69352479D01*
X149759035Y-69290341D01*
X149719261Y-69090382D01*
X149641240Y-68902024D01*
X149561662Y-68782927D01*
X149595226Y-68701898D01*
X149635000Y-68501939D01*
X149635000Y-68412803D01*
X151584337Y-66463467D01*
X151667663Y-66588174D01*
X151811826Y-66732337D01*
X151981344Y-66845605D01*
X152169702Y-66923626D01*
X152181196Y-66925912D01*
X152183482Y-66937405D01*
X152261503Y-67125763D01*
X152374771Y-67295281D01*
X152518934Y-67439444D01*
X152688452Y-67552712D01*
X152876810Y-67630733D01*
X153076769Y-67670507D01*
X153280647Y-67670507D01*
X153480606Y-67630733D01*
X153668964Y-67552712D01*
X153838482Y-67439444D01*
X153982645Y-67295281D01*
X154095913Y-67125763D01*
X154173934Y-66937405D01*
X154213708Y-66737446D01*
X154213708Y-66675308D01*
X159488835Y-61400182D01*
X159490000Y-61614250D01*
X159648750Y-61773000D01*
X160973000Y-61773000D01*
X160973000Y-60573750D01*
X161227000Y-60573750D01*
X161227000Y-61773000D01*
X162551250Y-61773000D01*
X162710000Y-61614250D01*
X162713072Y-61050000D01*
X162700812Y-60925518D01*
X162664502Y-60805820D01*
X162605537Y-60695506D01*
X162526185Y-60598815D01*
X162429494Y-60519463D01*
X162319180Y-60460498D01*
X162199482Y-60424188D01*
X162075000Y-60411928D01*
X161385750Y-60415000D01*
X161227000Y-60573750D01*
X160973000Y-60573750D01*
X160814250Y-60415000D01*
X160475526Y-60413490D01*
X170669234Y-50219783D01*
X170698231Y-50195986D01*
X170793204Y-50080261D01*
X170863776Y-49948232D01*
X170907233Y-49804971D01*
X170918230Y-49693318D01*
X170918230Y-49693309D01*
X170921906Y-49655986D01*
X170918230Y-49618663D01*
X170918230Y-48938217D01*
X170962167Y-48894280D01*
X171075435Y-48724762D01*
X171153456Y-48536404D01*
X171193230Y-48336445D01*
X171193230Y-48132567D01*
X171153456Y-47932608D01*
X171075435Y-47744250D01*
X170962167Y-47574732D01*
X170818004Y-47430569D01*
X170648486Y-47317301D01*
X170460128Y-47239280D01*
X170317671Y-47210944D01*
X170295226Y-47098102D01*
X170217205Y-46909744D01*
X170103937Y-46740226D01*
X170065344Y-46701633D01*
X171140472Y-46701633D01*
X171202965Y-46937950D01*
X171445678Y-47051350D01*
X171705849Y-47115219D01*
X171973482Y-47127104D01*
X172238291Y-47086548D01*
X172490100Y-46995109D01*
X172597035Y-46937950D01*
X172659528Y-46701633D01*
X171900000Y-45942105D01*
X171140472Y-46701633D01*
X170065344Y-46701633D01*
X169959774Y-46596063D01*
X169790256Y-46482795D01*
X169601898Y-46404774D01*
X169401939Y-46365000D01*
X169198061Y-46365000D01*
X168998102Y-46404774D01*
X168809744Y-46482795D01*
X168640226Y-46596063D01*
X168496063Y-46740226D01*
X168382795Y-46909744D01*
X168304774Y-47098102D01*
X168265000Y-47298061D01*
X168265000Y-47501939D01*
X168304774Y-47701898D01*
X168382795Y-47890256D01*
X168496063Y-48059774D01*
X168540001Y-48103712D01*
X168540000Y-48785198D01*
X155034265Y-62290934D01*
X155034265Y-60577976D01*
X155078202Y-60534039D01*
X155191470Y-60364521D01*
X155269491Y-60176163D01*
X155309265Y-59976204D01*
X155309265Y-59772326D01*
X155269491Y-59572367D01*
X155191470Y-59384009D01*
X155078202Y-59214491D01*
X154934039Y-59070328D01*
X154764521Y-58957060D01*
X154576163Y-58879039D01*
X154376204Y-58839265D01*
X154172326Y-58839265D01*
X153972367Y-58879039D01*
X153784009Y-58957060D01*
X153614491Y-59070328D01*
X153470328Y-59214491D01*
X153357060Y-59384009D01*
X153279039Y-59572367D01*
X153239265Y-59772326D01*
X153239265Y-59976204D01*
X153279039Y-60176163D01*
X153357060Y-60364521D01*
X153470328Y-60534039D01*
X153514265Y-60577976D01*
X153514266Y-62383934D01*
X150160000Y-65738201D01*
X150160000Y-64437322D01*
X150163676Y-64399999D01*
X150160000Y-64362676D01*
X150160000Y-64362667D01*
X150149003Y-64251014D01*
X150105546Y-64107753D01*
X150034974Y-63975724D01*
X149983026Y-63912425D01*
X149963799Y-63888996D01*
X149963795Y-63888992D01*
X149940001Y-63859999D01*
X149911009Y-63836206D01*
X149460000Y-63385198D01*
X149460000Y-60814801D01*
X150039802Y-60235000D01*
X150101939Y-60235000D01*
X150301898Y-60195226D01*
X150490256Y-60117205D01*
X150659774Y-60003937D01*
X150803937Y-59859774D01*
X150917205Y-59690256D01*
X150995226Y-59501898D01*
X151035000Y-59301939D01*
X151035000Y-59098061D01*
X150995226Y-58898102D01*
X150917205Y-58709744D01*
X150803937Y-58540226D01*
X150659774Y-58396063D01*
X150637647Y-58381279D01*
X150724276Y-58334974D01*
X150840001Y-58240001D01*
X150863804Y-58210997D01*
X150963799Y-58111002D01*
X154139802Y-54935000D01*
X154201939Y-54935000D01*
X154401898Y-54895226D01*
X154590256Y-54817205D01*
X154759774Y-54703937D01*
X154903937Y-54559774D01*
X155017205Y-54390256D01*
X155095226Y-54201898D01*
X155135000Y-54001939D01*
X155135000Y-53798061D01*
X155095226Y-53598102D01*
X155017205Y-53409744D01*
X154903937Y-53240226D01*
X154759774Y-53096063D01*
X154590256Y-52982795D01*
X154401898Y-52904774D01*
X154201939Y-52865000D01*
X153998061Y-52865000D01*
X153798102Y-52904774D01*
X153609744Y-52982795D01*
X153440226Y-53096063D01*
X153296063Y-53240226D01*
X153182795Y-53409744D01*
X153104774Y-53598102D01*
X153065000Y-53798061D01*
X153065000Y-53860198D01*
X153045982Y-53879216D01*
X153017205Y-53809744D01*
X152903937Y-53640226D01*
X152759774Y-53496063D01*
X152590256Y-53382795D01*
X152401898Y-53304774D01*
X152201939Y-53265000D01*
X151998061Y-53265000D01*
X151798102Y-53304774D01*
X151609744Y-53382795D01*
X151440226Y-53496063D01*
X151296063Y-53640226D01*
X151182795Y-53809744D01*
X151104774Y-53998102D01*
X151065000Y-54198061D01*
X151065000Y-54260198D01*
X149238998Y-56086201D01*
X148985199Y-56340000D01*
X147337322Y-56340000D01*
X147299999Y-56336324D01*
X147262676Y-56340000D01*
X147262667Y-56340000D01*
X147151014Y-56350997D01*
X147007753Y-56394454D01*
X146875723Y-56465026D01*
X146831871Y-56501015D01*
X146759999Y-56559999D01*
X146736201Y-56588997D01*
X145745982Y-57579217D01*
X145717205Y-57509744D01*
X145603937Y-57340226D01*
X145459774Y-57196063D01*
X145290256Y-57082795D01*
X145101898Y-57004774D01*
X144901939Y-56965000D01*
X144698061Y-56965000D01*
X144498102Y-57004774D01*
X144309744Y-57082795D01*
X144140226Y-57196063D01*
X143996063Y-57340226D01*
X143882795Y-57509744D01*
X143804774Y-57698102D01*
X143765000Y-57898061D01*
X143765000Y-57960198D01*
X142630397Y-59094802D01*
X142468259Y-59094802D01*
X142268300Y-59134576D01*
X142079942Y-59212597D01*
X141910424Y-59325865D01*
X141766261Y-59470028D01*
X141760000Y-59479398D01*
X141760000Y-57088701D01*
X141803937Y-57044764D01*
X141917205Y-56875246D01*
X141995226Y-56686888D01*
X142035000Y-56486929D01*
X142035000Y-56283051D01*
X141995226Y-56083092D01*
X141917205Y-55894734D01*
X141803937Y-55725216D01*
X141659774Y-55581053D01*
X141490256Y-55467785D01*
X141301898Y-55389764D01*
X141101939Y-55349990D01*
X140898061Y-55349990D01*
X140698102Y-55389764D01*
X140509744Y-55467785D01*
X140340226Y-55581053D01*
X140196063Y-55725216D01*
X140082795Y-55894734D01*
X140004774Y-56083092D01*
X139965000Y-56283051D01*
X139965000Y-56486929D01*
X140004774Y-56686888D01*
X140082795Y-56875246D01*
X140196063Y-57044764D01*
X140240001Y-57088702D01*
X140240000Y-60065000D01*
X140198061Y-60065000D01*
X139998102Y-60104774D01*
X139809744Y-60182795D01*
X139640226Y-60296063D01*
X139496063Y-60440226D01*
X139410010Y-60569014D01*
X139410010Y-59650922D01*
X139413686Y-59613599D01*
X139410010Y-59576276D01*
X139410010Y-59576267D01*
X139399013Y-59464614D01*
X139355556Y-59321353D01*
X139284984Y-59189324D01*
X139232410Y-59125262D01*
X139213809Y-59102596D01*
X139213805Y-59102592D01*
X139190011Y-59073599D01*
X139161019Y-59049806D01*
X138360000Y-58248789D01*
X138360000Y-51103711D01*
X138403937Y-51059774D01*
X138517205Y-50890256D01*
X138595226Y-50701898D01*
X138635000Y-50501939D01*
X138635000Y-50298061D01*
X138595226Y-50098102D01*
X138557508Y-50007042D01*
X138698061Y-50035000D01*
X138901939Y-50035000D01*
X139101898Y-49995226D01*
X139290256Y-49917205D01*
X139459774Y-49803937D01*
X139603937Y-49659774D01*
X139717205Y-49490256D01*
X139795226Y-49301898D01*
X139835000Y-49101939D01*
X139835000Y-49034999D01*
X158054132Y-49034999D01*
X161975908Y-52956777D01*
X162004774Y-53101898D01*
X162082795Y-53290256D01*
X162196063Y-53459774D01*
X162340226Y-53603937D01*
X162509744Y-53717205D01*
X162698102Y-53795226D01*
X162898061Y-53835000D01*
X163101939Y-53835000D01*
X163301898Y-53795226D01*
X163490256Y-53717205D01*
X163659774Y-53603937D01*
X163803937Y-53459774D01*
X163917205Y-53290256D01*
X163995226Y-53101898D01*
X164035000Y-52901939D01*
X164035000Y-52698061D01*
X163995226Y-52498102D01*
X163917205Y-52309744D01*
X163803937Y-52140226D01*
X163659774Y-51996063D01*
X163490256Y-51882795D01*
X163301898Y-51804774D01*
X163156777Y-51775908D01*
X159019445Y-47638578D01*
X158993290Y-47606708D01*
X158866145Y-47502363D01*
X158721086Y-47424827D01*
X158563688Y-47377081D01*
X158441018Y-47364999D01*
X158441017Y-47364999D01*
X158399999Y-47360959D01*
X158358981Y-47364999D01*
X129441019Y-47364999D01*
X129400001Y-47360959D01*
X129358983Y-47364999D01*
X129358982Y-47364999D01*
X129236312Y-47377081D01*
X129078914Y-47424827D01*
X128933855Y-47502363D01*
X128845673Y-47574732D01*
X128806710Y-47606708D01*
X128780564Y-47638567D01*
X128043225Y-48375908D01*
X127898102Y-48404774D01*
X127738072Y-48471061D01*
X127738072Y-46701633D01*
X166140472Y-46701633D01*
X166202965Y-46937950D01*
X166445678Y-47051350D01*
X166705849Y-47115219D01*
X166973482Y-47127104D01*
X167238291Y-47086548D01*
X167490100Y-46995109D01*
X167597035Y-46937950D01*
X167659528Y-46701633D01*
X166900000Y-45942105D01*
X166140472Y-46701633D01*
X127738072Y-46701633D01*
X127738072Y-45098061D01*
X155665000Y-45098061D01*
X155665000Y-45301939D01*
X155704774Y-45501898D01*
X155782795Y-45690256D01*
X155896063Y-45859774D01*
X156040226Y-46003937D01*
X156209744Y-46117205D01*
X156398102Y-46195226D01*
X156598061Y-46235000D01*
X156801939Y-46235000D01*
X157001898Y-46195226D01*
X157190256Y-46117205D01*
X157359774Y-46003937D01*
X157503937Y-45859774D01*
X157617205Y-45690256D01*
X157695226Y-45501898D01*
X157701074Y-45472499D01*
X165570811Y-45472499D01*
X165547281Y-45568349D01*
X165535396Y-45835982D01*
X165575952Y-46100791D01*
X165667391Y-46352600D01*
X165724550Y-46459535D01*
X165960867Y-46522028D01*
X166720395Y-45762500D01*
X166706253Y-45748358D01*
X166885858Y-45568753D01*
X166900000Y-45582895D01*
X166914143Y-45568753D01*
X167093748Y-45748358D01*
X167079605Y-45762500D01*
X167839133Y-46522028D01*
X168075450Y-46459535D01*
X168188850Y-46216822D01*
X168252719Y-45956651D01*
X168264604Y-45689018D01*
X168231444Y-45472499D01*
X170570811Y-45472499D01*
X170547281Y-45568349D01*
X170535396Y-45835982D01*
X170575952Y-46100791D01*
X170667391Y-46352600D01*
X170724550Y-46459535D01*
X170960867Y-46522028D01*
X171720395Y-45762500D01*
X171706253Y-45748358D01*
X171885858Y-45568753D01*
X171900000Y-45582895D01*
X171914143Y-45568753D01*
X172093748Y-45748358D01*
X172079605Y-45762500D01*
X172839133Y-46522028D01*
X173075450Y-46459535D01*
X173188850Y-46216822D01*
X173252719Y-45956651D01*
X173264604Y-45689018D01*
X173238644Y-45519511D01*
X173275907Y-45556775D01*
X173304774Y-45701898D01*
X173382795Y-45890256D01*
X173496063Y-46059774D01*
X173640226Y-46203937D01*
X173809744Y-46317205D01*
X173998102Y-46395226D01*
X174198061Y-46435000D01*
X174401939Y-46435000D01*
X174601898Y-46395226D01*
X174790256Y-46317205D01*
X174959774Y-46203937D01*
X175103937Y-46059774D01*
X175217205Y-45890256D01*
X175295226Y-45701898D01*
X175335000Y-45501939D01*
X175335000Y-45298061D01*
X175295226Y-45098102D01*
X175217205Y-44909744D01*
X175103937Y-44740226D01*
X174959774Y-44596063D01*
X174790256Y-44482795D01*
X174601898Y-44404774D01*
X174456775Y-44375907D01*
X174156945Y-44076078D01*
X174130790Y-44044208D01*
X174014793Y-43949012D01*
X174086493Y-43777996D01*
X174135000Y-43539500D01*
X174135000Y-43189500D01*
X173027000Y-43189500D01*
X173027000Y-43209500D01*
X172773000Y-43209500D01*
X172773000Y-43189500D01*
X171665000Y-43189500D01*
X171665000Y-43539500D01*
X171713507Y-43777996D01*
X171723780Y-43802499D01*
X167076220Y-43802499D01*
X167086493Y-43777996D01*
X167135000Y-43539500D01*
X167135000Y-43189500D01*
X166027000Y-43189500D01*
X166027000Y-43209500D01*
X165773000Y-43209500D01*
X165773000Y-43189500D01*
X164665000Y-43189500D01*
X164665000Y-43539500D01*
X164713507Y-43777996D01*
X164723780Y-43802499D01*
X157303519Y-43802499D01*
X157262501Y-43798459D01*
X157221483Y-43802499D01*
X157221482Y-43802499D01*
X157098812Y-43814581D01*
X156941414Y-43862327D01*
X156796355Y-43939863D01*
X156669210Y-44044208D01*
X156643063Y-44076068D01*
X156543224Y-44175908D01*
X156398102Y-44204774D01*
X156209744Y-44282795D01*
X156040226Y-44396063D01*
X155896063Y-44540226D01*
X155782795Y-44709744D01*
X155704774Y-44898102D01*
X155665000Y-45098061D01*
X127738072Y-45098061D01*
X127738072Y-41198212D01*
X146165000Y-41198212D01*
X146165000Y-41421788D01*
X146208617Y-41641067D01*
X146294176Y-41847624D01*
X146418388Y-42033520D01*
X146576480Y-42191612D01*
X146762376Y-42315824D01*
X146968933Y-42401383D01*
X147188212Y-42445000D01*
X147411788Y-42445000D01*
X147631067Y-42401383D01*
X147837624Y-42315824D01*
X148023520Y-42191612D01*
X148181612Y-42033520D01*
X148305824Y-41847624D01*
X148391383Y-41641067D01*
X148435000Y-41421788D01*
X148435000Y-41198212D01*
X154165000Y-41198212D01*
X154165000Y-41421788D01*
X154208617Y-41641067D01*
X154294176Y-41847624D01*
X154418388Y-42033520D01*
X154576480Y-42191612D01*
X154762376Y-42315824D01*
X154968933Y-42401383D01*
X155188212Y-42445000D01*
X155411788Y-42445000D01*
X155631067Y-42401383D01*
X155837624Y-42315824D01*
X156023520Y-42191612D01*
X156181612Y-42033520D01*
X156305824Y-41847624D01*
X156391383Y-41641067D01*
X156435000Y-41421788D01*
X156435000Y-41198212D01*
X156391383Y-40978933D01*
X156305824Y-40772376D01*
X156181612Y-40586480D01*
X156023520Y-40428388D01*
X155837624Y-40304176D01*
X155631067Y-40218617D01*
X155411788Y-40175000D01*
X155188212Y-40175000D01*
X154968933Y-40218617D01*
X154762376Y-40304176D01*
X154576480Y-40428388D01*
X154418388Y-40586480D01*
X154294176Y-40772376D01*
X154208617Y-40978933D01*
X154165000Y-41198212D01*
X148435000Y-41198212D01*
X148391383Y-40978933D01*
X148305824Y-40772376D01*
X148181612Y-40586480D01*
X148023520Y-40428388D01*
X147837624Y-40304176D01*
X147631067Y-40218617D01*
X147411788Y-40175000D01*
X147188212Y-40175000D01*
X146968933Y-40218617D01*
X146762376Y-40304176D01*
X146576480Y-40428388D01*
X146418388Y-40586480D01*
X146294176Y-40772376D01*
X146208617Y-40978933D01*
X146165000Y-41198212D01*
X127738072Y-41198212D01*
X127738072Y-40100000D01*
X127725812Y-39975518D01*
X127689502Y-39855820D01*
X127630537Y-39745506D01*
X127551185Y-39648815D01*
X127454494Y-39569463D01*
X127344180Y-39510498D01*
X127224482Y-39474188D01*
X127100000Y-39461928D01*
X122100000Y-39461928D01*
X121975518Y-39474188D01*
X121855820Y-39510498D01*
X121745506Y-39569463D01*
X121648815Y-39648815D01*
X121569463Y-39745506D01*
X121510498Y-39855820D01*
X121474188Y-39975518D01*
X121461928Y-40100000D01*
X121461928Y-44558416D01*
X121459999Y-44559999D01*
X121436201Y-44588997D01*
X121060198Y-44965000D01*
X120998061Y-44965000D01*
X120798102Y-45004774D01*
X120609744Y-45082795D01*
X120440226Y-45196063D01*
X120296063Y-45340226D01*
X120182795Y-45509744D01*
X120104774Y-45698102D01*
X120065000Y-45898061D01*
X120065000Y-46101939D01*
X120104774Y-46301898D01*
X120182795Y-46490256D01*
X120296063Y-46659774D01*
X120440226Y-46803937D01*
X120609744Y-46917205D01*
X120798102Y-46995226D01*
X120998061Y-47035000D01*
X121201939Y-47035000D01*
X121401898Y-46995226D01*
X121461928Y-46970361D01*
X121461928Y-50100000D01*
X121474188Y-50224482D01*
X121510498Y-50344180D01*
X121569463Y-50454494D01*
X121648815Y-50551185D01*
X121665649Y-50565000D01*
X116821005Y-50565000D01*
X116779997Y-50560961D01*
X116738989Y-50565000D01*
X116738979Y-50565000D01*
X116616309Y-50577082D01*
X116458911Y-50624828D01*
X116313852Y-50702364D01*
X116186707Y-50806709D01*
X116160559Y-50838571D01*
X114238573Y-52760558D01*
X114206709Y-52786708D01*
X114180561Y-52818570D01*
X114102363Y-52913854D01*
X114024827Y-53058913D01*
X113977081Y-53216311D01*
X113960959Y-53379999D01*
X113965000Y-53421028D01*
X113964999Y-75913595D01*
X113960959Y-75954613D01*
X113969007Y-76036323D01*
X113977081Y-76118301D01*
X114024827Y-76275699D01*
X114102363Y-76420758D01*
X114206708Y-76547904D01*
X114238578Y-76574059D01*
X118754631Y-81090113D01*
X118780781Y-81121977D01*
X118907926Y-81226322D01*
X119052985Y-81303858D01*
X119210383Y-81351604D01*
X119374071Y-81367726D01*
X119415090Y-81363686D01*
X122132819Y-81363686D01*
X125426492Y-84657360D01*
X125319866Y-84744866D01*
X125134294Y-84970986D01*
X124996401Y-85228966D01*
X124911487Y-85508889D01*
X124882815Y-85800000D01*
X124911487Y-86091111D01*
X124996401Y-86371034D01*
X125134294Y-86629014D01*
X125319866Y-86855134D01*
X125545986Y-87040706D01*
X125563374Y-87050000D01*
X125545986Y-87059294D01*
X125319866Y-87244866D01*
X125134294Y-87470986D01*
X124996401Y-87728966D01*
X124911487Y-88008889D01*
X124882815Y-88300000D01*
X124911487Y-88591111D01*
X124996401Y-88871034D01*
X125134294Y-89129014D01*
X125319866Y-89355134D01*
X125545986Y-89540706D01*
X125563374Y-89550000D01*
X125545986Y-89559294D01*
X125319866Y-89744866D01*
X125134294Y-89970986D01*
X124996401Y-90228966D01*
X124911487Y-90508889D01*
X124882815Y-90800000D01*
X124911487Y-91091111D01*
X124996401Y-91371034D01*
X125134294Y-91629014D01*
X125315608Y-91849945D01*
X125280820Y-91860498D01*
X125170506Y-91919463D01*
X125073815Y-91998815D01*
X124994463Y-92095506D01*
X124935498Y-92205820D01*
X124899188Y-92325518D01*
X124886928Y-92450000D01*
X124890000Y-93014250D01*
X125048750Y-93173000D01*
X126373000Y-93173000D01*
X126373000Y-93153000D01*
X126627000Y-93153000D01*
X126627000Y-93173000D01*
X127951250Y-93173000D01*
X128110000Y-93014250D01*
X128113072Y-92450000D01*
X128100812Y-92325518D01*
X128064502Y-92205820D01*
X128005537Y-92095506D01*
X127926185Y-91998815D01*
X127829494Y-91919463D01*
X127719180Y-91860498D01*
X127684392Y-91849945D01*
X127865706Y-91629014D01*
X128003599Y-91371034D01*
X128088513Y-91091111D01*
X128117185Y-90800000D01*
X128088513Y-90508889D01*
X128003599Y-90228966D01*
X127865706Y-89970986D01*
X127680134Y-89744866D01*
X127454014Y-89559294D01*
X127436626Y-89550000D01*
X127454014Y-89540706D01*
X127680134Y-89355134D01*
X127865706Y-89129014D01*
X128003599Y-88871034D01*
X128088513Y-88591111D01*
X128117185Y-88300000D01*
X128088513Y-88008889D01*
X128003599Y-87728966D01*
X127865706Y-87470986D01*
X127680134Y-87244866D01*
X127454014Y-87059294D01*
X127436626Y-87050000D01*
X127454014Y-87040706D01*
X127680134Y-86855134D01*
X127865706Y-86629014D01*
X128003599Y-86371034D01*
X128088513Y-86091111D01*
X128117185Y-85800000D01*
X128088513Y-85508889D01*
X128003599Y-85228966D01*
X127865706Y-84970986D01*
X127680134Y-84744866D01*
X127454014Y-84559294D01*
X127333617Y-84494941D01*
X127322918Y-84386311D01*
X127275172Y-84228913D01*
X127197636Y-84083854D01*
X127169020Y-84048985D01*
X127119439Y-83988570D01*
X127119437Y-83988568D01*
X127093291Y-83956709D01*
X127061432Y-83930563D01*
X123894543Y-80763676D01*
X141881054Y-80763676D01*
X141875431Y-80791947D01*
X141875431Y-80854084D01*
X140464516Y-82265000D01*
X140398061Y-82265000D01*
X140198102Y-82304774D01*
X140009744Y-82382795D01*
X139840226Y-82496063D01*
X139696063Y-82640226D01*
X139582795Y-82809744D01*
X139504774Y-82998102D01*
X139465000Y-83198061D01*
X139465000Y-83401939D01*
X139504774Y-83601898D01*
X139582795Y-83790256D01*
X139696063Y-83959774D01*
X139840226Y-84103937D01*
X139918532Y-84156259D01*
X139882795Y-84209744D01*
X139804774Y-84398102D01*
X139765000Y-84598061D01*
X139765000Y-84801939D01*
X139797435Y-84965000D01*
X132945869Y-84965000D01*
X132324092Y-84343225D01*
X132295226Y-84198102D01*
X132217205Y-84009744D01*
X132103937Y-83840226D01*
X132061772Y-83798061D01*
X134465000Y-83798061D01*
X134465000Y-84001939D01*
X134504774Y-84201898D01*
X134582795Y-84390256D01*
X134696063Y-84559774D01*
X134840226Y-84703937D01*
X135009744Y-84817205D01*
X135198102Y-84895226D01*
X135398061Y-84935000D01*
X135601939Y-84935000D01*
X135801898Y-84895226D01*
X135990256Y-84817205D01*
X136159774Y-84703937D01*
X136303937Y-84559774D01*
X136417205Y-84390256D01*
X136495226Y-84201898D01*
X136523451Y-84060000D01*
X136596289Y-84060000D01*
X136640226Y-84103937D01*
X136809744Y-84217205D01*
X136998102Y-84295226D01*
X137198061Y-84335000D01*
X137401939Y-84335000D01*
X137601898Y-84295226D01*
X137790256Y-84217205D01*
X137959774Y-84103937D01*
X138103937Y-83959774D01*
X138217205Y-83790256D01*
X138295226Y-83601898D01*
X138335000Y-83401939D01*
X138335000Y-83198061D01*
X138295226Y-82998102D01*
X138217205Y-82809744D01*
X138103937Y-82640226D01*
X137959774Y-82496063D01*
X137790256Y-82382795D01*
X137601898Y-82304774D01*
X137401939Y-82265000D01*
X137198061Y-82265000D01*
X136998102Y-82304774D01*
X136809744Y-82382795D01*
X136640226Y-82496063D01*
X136596289Y-82540000D01*
X136137322Y-82540000D01*
X136099999Y-82536324D01*
X136062676Y-82540000D01*
X136062667Y-82540000D01*
X135951014Y-82550997D01*
X135807753Y-82594454D01*
X135675723Y-82665026D01*
X135633108Y-82700000D01*
X135559999Y-82759999D01*
X135536200Y-82788998D01*
X135460198Y-82865000D01*
X135398061Y-82865000D01*
X135198102Y-82904774D01*
X135009744Y-82982795D01*
X134840226Y-83096063D01*
X134696063Y-83240226D01*
X134582795Y-83409744D01*
X134504774Y-83598102D01*
X134465000Y-83798061D01*
X132061772Y-83798061D01*
X131959774Y-83696063D01*
X131790256Y-83582795D01*
X131601898Y-83504774D01*
X131401939Y-83465000D01*
X131198061Y-83465000D01*
X130998102Y-83504774D01*
X130809744Y-83582795D01*
X130640226Y-83696063D01*
X130496063Y-83840226D01*
X130382795Y-84009744D01*
X130304774Y-84198102D01*
X130265000Y-84398061D01*
X130265000Y-84601939D01*
X130304774Y-84801898D01*
X130382795Y-84990256D01*
X130496063Y-85159774D01*
X130640226Y-85303937D01*
X130809744Y-85417205D01*
X130998102Y-85495226D01*
X131143225Y-85524092D01*
X131980563Y-86361432D01*
X132006709Y-86393291D01*
X132038568Y-86419437D01*
X132038570Y-86419439D01*
X132087719Y-86459774D01*
X132133854Y-86497636D01*
X132278913Y-86575172D01*
X132436311Y-86622918D01*
X132558981Y-86635000D01*
X132558982Y-86635000D01*
X132600000Y-86639040D01*
X132641018Y-86635000D01*
X145386715Y-86635000D01*
X145509744Y-86717205D01*
X145698102Y-86795226D01*
X145898061Y-86835000D01*
X146101939Y-86835000D01*
X146301898Y-86795226D01*
X146490256Y-86717205D01*
X146659774Y-86603937D01*
X146803937Y-86459774D01*
X146917205Y-86290256D01*
X146995226Y-86101898D01*
X147035000Y-85901939D01*
X147035000Y-85698061D01*
X146995226Y-85498102D01*
X146917205Y-85309744D01*
X146803937Y-85140226D01*
X146659774Y-84996063D01*
X146490256Y-84882795D01*
X146301898Y-84804774D01*
X146101939Y-84765000D01*
X145898061Y-84765000D01*
X145698102Y-84804774D01*
X145509744Y-84882795D01*
X145386715Y-84965000D01*
X141802565Y-84965000D01*
X141825599Y-84849202D01*
X144239802Y-82435000D01*
X144301939Y-82435000D01*
X144501898Y-82395226D01*
X144690256Y-82317205D01*
X144859774Y-82203937D01*
X145003937Y-82059774D01*
X145076450Y-81951251D01*
X147965000Y-84839802D01*
X147965000Y-84901939D01*
X148004774Y-85101898D01*
X148082795Y-85290256D01*
X148196063Y-85459774D01*
X148340226Y-85603937D01*
X148509744Y-85717205D01*
X148698102Y-85795226D01*
X148898061Y-85835000D01*
X149101939Y-85835000D01*
X149240000Y-85807538D01*
X149240000Y-88085197D01*
X146185199Y-91140000D01*
X130687324Y-91140000D01*
X130650001Y-91136324D01*
X130612678Y-91140000D01*
X130612669Y-91140000D01*
X130501016Y-91150997D01*
X130357755Y-91194454D01*
X130225726Y-91265026D01*
X130225724Y-91265027D01*
X130225725Y-91265027D01*
X130138998Y-91336201D01*
X130138994Y-91336205D01*
X130110001Y-91359999D01*
X130086207Y-91388992D01*
X127999725Y-93475475D01*
X127951250Y-93427000D01*
X126627000Y-93427000D01*
X126627000Y-93447000D01*
X126373000Y-93447000D01*
X126373000Y-93427000D01*
X125048750Y-93427000D01*
X124890000Y-93585750D01*
X124886928Y-94150000D01*
X124899188Y-94274482D01*
X124911479Y-94315001D01*
X121560868Y-94315001D01*
X121581481Y-94256891D01*
X121460814Y-94027000D01*
X120267000Y-94027000D01*
X120267000Y-94047000D01*
X120013000Y-94047000D01*
X120013000Y-94027000D01*
X119993000Y-94027000D01*
X119993000Y-93773000D01*
X120013000Y-93773000D01*
X120013000Y-92579845D01*
X120267000Y-92579845D01*
X120267000Y-93773000D01*
X121460814Y-93773000D01*
X121581481Y-93543109D01*
X121484157Y-93268748D01*
X121335178Y-93018645D01*
X121140269Y-92802412D01*
X120906920Y-92628359D01*
X120644099Y-92503175D01*
X120496890Y-92458524D01*
X120267000Y-92579845D01*
X120013000Y-92579845D01*
X119783110Y-92458524D01*
X119635901Y-92503175D01*
X119373080Y-92628359D01*
X119139731Y-92802412D01*
X118944822Y-93018645D01*
X118875195Y-93135534D01*
X118753475Y-92953368D01*
X118546632Y-92746525D01*
X118303411Y-92584010D01*
X118033158Y-92472068D01*
X117746260Y-92415000D01*
X117453740Y-92415000D01*
X117166842Y-92472068D01*
X116896589Y-92584010D01*
X116653368Y-92746525D01*
X116446525Y-92953368D01*
X116330000Y-93127760D01*
X116213475Y-92953368D01*
X116006632Y-92746525D01*
X115763411Y-92584010D01*
X115493158Y-92472068D01*
X115206260Y-92415000D01*
X114913740Y-92415000D01*
X114626842Y-92472068D01*
X114356589Y-92584010D01*
X114113368Y-92746525D01*
X113906525Y-92953368D01*
X113790000Y-93127760D01*
X113673475Y-92953368D01*
X113466632Y-92746525D01*
X113223411Y-92584010D01*
X112953158Y-92472068D01*
X112666260Y-92415000D01*
X112373740Y-92415000D01*
X112086842Y-92472068D01*
X111816589Y-92584010D01*
X111573368Y-92746525D01*
X111366525Y-92953368D01*
X111250000Y-93127760D01*
X111133475Y-92953368D01*
X110926632Y-92746525D01*
X110683411Y-92584010D01*
X110413158Y-92472068D01*
X110126260Y-92415000D01*
X109833740Y-92415000D01*
X109546842Y-92472068D01*
X109276589Y-92584010D01*
X109033368Y-92746525D01*
X108826525Y-92953368D01*
X108710000Y-93127760D01*
X108593475Y-92953368D01*
X108386632Y-92746525D01*
X108275000Y-92671935D01*
X108275000Y-86305867D01*
X108356775Y-86224093D01*
X108501898Y-86195226D01*
X108690256Y-86117205D01*
X108859774Y-86003937D01*
X109003937Y-85859774D01*
X109110694Y-85700000D01*
X114561928Y-85700000D01*
X114574188Y-85824482D01*
X114610498Y-85944180D01*
X114669463Y-86054494D01*
X114748815Y-86151185D01*
X114845506Y-86230537D01*
X114955820Y-86289502D01*
X115075518Y-86325812D01*
X115200000Y-86338072D01*
X117014250Y-86335000D01*
X117173000Y-86176250D01*
X117173000Y-84327000D01*
X117427000Y-84327000D01*
X117427000Y-86176250D01*
X117585750Y-86335000D01*
X119400000Y-86338072D01*
X119524482Y-86325812D01*
X119644180Y-86289502D01*
X119754494Y-86230537D01*
X119851185Y-86151185D01*
X119930537Y-86054494D01*
X119989502Y-85944180D01*
X120025812Y-85824482D01*
X120038072Y-85700000D01*
X120035000Y-84485750D01*
X119876250Y-84327000D01*
X117427000Y-84327000D01*
X117173000Y-84327000D01*
X114723750Y-84327000D01*
X114565000Y-84485750D01*
X114561928Y-85700000D01*
X109110694Y-85700000D01*
X109117205Y-85690256D01*
X109195226Y-85501898D01*
X109235000Y-85301939D01*
X109235000Y-85098061D01*
X109195226Y-84898102D01*
X109117205Y-84709744D01*
X109003937Y-84540226D01*
X108859774Y-84396063D01*
X108690256Y-84282795D01*
X108501898Y-84204774D01*
X108301939Y-84165000D01*
X108098061Y-84165000D01*
X107898102Y-84204774D01*
X107709744Y-84282795D01*
X107540226Y-84396063D01*
X107396063Y-84540226D01*
X107282795Y-84709744D01*
X107204774Y-84898102D01*
X107175907Y-85043225D01*
X106878574Y-85340559D01*
X106846710Y-85366709D01*
X106779174Y-85449002D01*
X106742364Y-85493855D01*
X106664828Y-85638914D01*
X106617082Y-85796312D01*
X106600960Y-85960000D01*
X106605001Y-86001028D01*
X106605000Y-87398981D01*
X106605000Y-87398982D01*
X106605001Y-92671934D01*
X106493368Y-92746525D01*
X106361513Y-92878380D01*
X106339502Y-92805820D01*
X106280537Y-92695506D01*
X106201185Y-92598815D01*
X106104494Y-92519463D01*
X105994180Y-92460498D01*
X105874482Y-92424188D01*
X105750000Y-92411928D01*
X104050000Y-92411928D01*
X103925518Y-92424188D01*
X103805820Y-92460498D01*
X103695506Y-92519463D01*
X103598815Y-92598815D01*
X103519463Y-92695506D01*
X103460498Y-92805820D01*
X103424188Y-92925518D01*
X103411928Y-93050000D01*
X103411928Y-94750000D01*
X103424188Y-94874482D01*
X103460498Y-94994180D01*
X103519463Y-95104494D01*
X103598815Y-95201185D01*
X103695506Y-95280537D01*
X103805820Y-95339502D01*
X103925518Y-95375812D01*
X104050000Y-95388072D01*
X105750000Y-95388072D01*
X105874482Y-95375812D01*
X105994180Y-95339502D01*
X106104494Y-95280537D01*
X106201185Y-95201185D01*
X106280537Y-95104494D01*
X106339502Y-94994180D01*
X106361513Y-94921620D01*
X106493368Y-95053475D01*
X106736589Y-95215990D01*
X107006842Y-95327932D01*
X107293740Y-95385000D01*
X107586260Y-95385000D01*
X107873158Y-95327932D01*
X108143411Y-95215990D01*
X108386632Y-95053475D01*
X108593475Y-94846632D01*
X108710000Y-94672240D01*
X108826525Y-94846632D01*
X109033368Y-95053475D01*
X109276589Y-95215990D01*
X109546842Y-95327932D01*
X109833740Y-95385000D01*
X110126260Y-95385000D01*
X110413158Y-95327932D01*
X110683411Y-95215990D01*
X110926632Y-95053475D01*
X111133475Y-94846632D01*
X111250000Y-94672240D01*
X111366525Y-94846632D01*
X111573368Y-95053475D01*
X111816589Y-95215990D01*
X111885102Y-95244369D01*
X111910381Y-95275171D01*
X111979999Y-95360001D01*
X112009002Y-95383803D01*
X112736201Y-96111002D01*
X112759999Y-96140001D01*
X112788997Y-96163799D01*
X112875724Y-96234974D01*
X113007753Y-96305546D01*
X113151014Y-96349003D01*
X113300000Y-96363677D01*
X113337333Y-96360000D01*
X127549090Y-96360000D01*
X127586412Y-96363676D01*
X127623734Y-96360000D01*
X127623745Y-96360000D01*
X127735398Y-96349003D01*
X127878659Y-96305546D01*
X128010688Y-96234974D01*
X128126413Y-96140001D01*
X128150216Y-96110997D01*
X130951214Y-93310000D01*
X141540198Y-93310000D01*
X141060199Y-93790000D01*
X140998061Y-93790000D01*
X140798102Y-93829774D01*
X140609744Y-93907795D01*
X140440226Y-94021063D01*
X140296063Y-94165226D01*
X140182795Y-94334744D01*
X140104774Y-94523102D01*
X140065000Y-94723061D01*
X140065000Y-94926939D01*
X140104774Y-95126898D01*
X140182795Y-95315256D01*
X140296063Y-95484774D01*
X140440226Y-95628937D01*
X140609744Y-95742205D01*
X140798102Y-95820226D01*
X140998061Y-95860000D01*
X141201939Y-95860000D01*
X141401898Y-95820226D01*
X141590256Y-95742205D01*
X141759774Y-95628937D01*
X141903937Y-95484774D01*
X142017205Y-95315256D01*
X142095226Y-95126898D01*
X142135000Y-94926939D01*
X142135000Y-94864801D01*
X142603634Y-94396168D01*
X142604774Y-94401898D01*
X142682795Y-94590256D01*
X142796063Y-94759774D01*
X142940226Y-94903937D01*
X143109744Y-95017205D01*
X143298102Y-95095226D01*
X143498061Y-95135000D01*
X143701939Y-95135000D01*
X143901898Y-95095226D01*
X144090256Y-95017205D01*
X144259774Y-94903937D01*
X144403937Y-94759774D01*
X144462251Y-94672500D01*
X147275178Y-94672500D01*
X147312500Y-94676176D01*
X147349822Y-94672500D01*
X147349833Y-94672500D01*
X147461486Y-94661503D01*
X147604747Y-94618046D01*
X147678072Y-94578853D01*
X147682795Y-94590256D01*
X147796063Y-94759774D01*
X147940226Y-94903937D01*
X148109744Y-95017205D01*
X148298102Y-95095226D01*
X148444566Y-95124359D01*
X148533854Y-95197636D01*
X148678913Y-95275172D01*
X148836311Y-95322918D01*
X148958981Y-95335000D01*
X148958991Y-95335000D01*
X148999999Y-95339039D01*
X149041007Y-95335000D01*
X155658982Y-95335000D01*
X155700000Y-95339040D01*
X155741018Y-95335000D01*
X155741019Y-95335000D01*
X155863689Y-95322918D01*
X156021087Y-95275172D01*
X156166146Y-95197636D01*
X156293291Y-95093291D01*
X156319446Y-95061421D01*
X158745869Y-92635000D01*
X164755705Y-92635000D01*
X164497912Y-92892793D01*
X164187656Y-93357124D01*
X163973948Y-93873061D01*
X163865000Y-94420777D01*
X163865000Y-94979223D01*
X163973948Y-95526939D01*
X164187656Y-96042876D01*
X164497912Y-96507207D01*
X164730705Y-96740000D01*
X100660000Y-96740000D01*
X100660000Y-82700000D01*
X114561928Y-82700000D01*
X114565000Y-83914250D01*
X114723750Y-84073000D01*
X117173000Y-84073000D01*
X117173000Y-82223750D01*
X117427000Y-82223750D01*
X117427000Y-84073000D01*
X119876250Y-84073000D01*
X120035000Y-83914250D01*
X120038072Y-82700000D01*
X120025812Y-82575518D01*
X119989502Y-82455820D01*
X119930537Y-82345506D01*
X119851185Y-82248815D01*
X119754494Y-82169463D01*
X119644180Y-82110498D01*
X119524482Y-82074188D01*
X119400000Y-82061928D01*
X117585750Y-82065000D01*
X117427000Y-82223750D01*
X117173000Y-82223750D01*
X117014250Y-82065000D01*
X115200000Y-82061928D01*
X115075518Y-82074188D01*
X114955820Y-82110498D01*
X114845506Y-82169463D01*
X114748815Y-82248815D01*
X114669463Y-82345506D01*
X114610498Y-82455820D01*
X114574188Y-82575518D01*
X114561928Y-82700000D01*
X100660000Y-82700000D01*
X100660000Y-43156818D01*
X100673948Y-43226939D01*
X100887656Y-43742876D01*
X101197912Y-44207207D01*
X101592793Y-44602088D01*
X102057124Y-44912344D01*
X102573061Y-45126052D01*
X103120777Y-45235000D01*
X103679223Y-45235000D01*
X104226939Y-45126052D01*
X104742876Y-44912344D01*
X105207207Y-44602088D01*
X105602088Y-44207207D01*
X105912344Y-43742876D01*
X106126052Y-43226939D01*
X106235000Y-42679223D01*
X106235000Y-42120777D01*
X106126052Y-41573061D01*
X105912344Y-41057124D01*
X105602088Y-40592793D01*
X105207207Y-40197912D01*
X104742876Y-39887656D01*
X104226939Y-39673948D01*
X103679223Y-39565000D01*
X103120777Y-39565000D01*
X102573061Y-39673948D01*
X102057124Y-39887656D01*
X101592793Y-40197912D01*
X101197912Y-40592793D01*
X100887656Y-41057124D01*
X100673948Y-41573061D01*
X100660000Y-41643182D01*
X100660000Y-37660000D01*
X159359474Y-37660000D01*
X162337758Y-41848213D01*
G36*
X136640000Y-60441800D02*
G01*
X136640001Y-61396288D01*
X136596063Y-61440226D01*
X136482795Y-61609744D01*
X136404774Y-61798102D01*
X136365000Y-61998061D01*
X136365000Y-62201939D01*
X136404774Y-62401898D01*
X136482795Y-62590256D01*
X136596063Y-62759774D01*
X136740226Y-62903937D01*
X136909744Y-63017205D01*
X137098102Y-63095226D01*
X137298061Y-63135000D01*
X137501939Y-63135000D01*
X137701898Y-63095226D01*
X137890256Y-63017205D01*
X138059774Y-62903937D01*
X138203937Y-62759774D01*
X138316504Y-62591305D01*
X139111199Y-63386001D01*
X139134998Y-63415000D01*
X139163996Y-63438798D01*
X139250723Y-63509973D01*
X139382752Y-63580545D01*
X139526013Y-63624002D01*
X139665000Y-63637691D01*
X139665000Y-63701939D01*
X139704774Y-63901898D01*
X139782795Y-64090256D01*
X139896063Y-64259774D01*
X140040226Y-64403937D01*
X140209744Y-64517205D01*
X140398102Y-64595226D01*
X140598061Y-64635000D01*
X140801939Y-64635000D01*
X140911423Y-64613222D01*
X141165002Y-64866801D01*
X141165001Y-65487195D01*
X140563997Y-66088200D01*
X140534999Y-66111998D01*
X140511201Y-66140996D01*
X140511200Y-66140997D01*
X140440025Y-66227723D01*
X140369453Y-66359753D01*
X140367854Y-66365026D01*
X140325996Y-66503013D01*
X140314999Y-66614666D01*
X140314999Y-66614677D01*
X140311323Y-66651999D01*
X140314999Y-66689321D01*
X140314999Y-67310679D01*
X140311323Y-67348001D01*
X140314999Y-67385323D01*
X140314999Y-67385333D01*
X140325996Y-67496986D01*
X140368780Y-67638028D01*
X140369453Y-67640247D01*
X140440025Y-67772277D01*
X140466008Y-67803937D01*
X140534998Y-67888002D01*
X140564001Y-67911804D01*
X141240001Y-68587804D01*
X141240001Y-68796288D01*
X141196063Y-68840226D01*
X141082795Y-69009744D01*
X141004774Y-69198102D01*
X140965000Y-69398061D01*
X140965000Y-69460198D01*
X139489003Y-70936196D01*
X139459999Y-70959999D01*
X139420808Y-71007754D01*
X139365026Y-71075724D01*
X139307802Y-71182782D01*
X139294454Y-71207754D01*
X139250997Y-71351015D01*
X139240000Y-71462668D01*
X139240000Y-71462678D01*
X139236324Y-71500000D01*
X139240000Y-71537323D01*
X139240001Y-73196288D01*
X139196063Y-73240226D01*
X139082795Y-73409744D01*
X139004774Y-73598102D01*
X138965000Y-73798061D01*
X138965000Y-74001939D01*
X139004774Y-74201898D01*
X139082795Y-74390256D01*
X139179846Y-74535504D01*
X136410306Y-74535504D01*
X132460000Y-70585199D01*
X132460000Y-61975870D01*
X132517205Y-61890256D01*
X132595226Y-61701898D01*
X132635000Y-61501939D01*
X132635000Y-61298061D01*
X132595226Y-61098102D01*
X132517205Y-60909744D01*
X132403937Y-60740226D01*
X132259774Y-60596063D01*
X132090256Y-60482795D01*
X131901898Y-60404774D01*
X131701939Y-60365000D01*
X131498061Y-60365000D01*
X131298102Y-60404774D01*
X131109744Y-60482795D01*
X130940226Y-60596063D01*
X130796063Y-60740226D01*
X130682795Y-60909744D01*
X130604774Y-61098102D01*
X130565000Y-61298061D01*
X130565000Y-61501939D01*
X130604774Y-61701898D01*
X130682795Y-61890256D01*
X130796063Y-62059774D01*
X130940001Y-62203712D01*
X130940001Y-62765000D01*
X130873061Y-62765000D01*
X130673102Y-62804774D01*
X130484744Y-62882795D01*
X130315226Y-62996063D01*
X130171063Y-63140226D01*
X130057795Y-63309744D01*
X129979774Y-63498102D01*
X129940000Y-63698061D01*
X129940000Y-63901939D01*
X129979774Y-64101898D01*
X130057795Y-64290256D01*
X130171063Y-64459774D01*
X130215001Y-64503712D01*
X130215000Y-70774087D01*
X130211324Y-70811410D01*
X130215000Y-70848732D01*
X130215000Y-70848742D01*
X130225997Y-70960395D01*
X130261393Y-71077082D01*
X130269454Y-71103656D01*
X130340026Y-71235686D01*
X130359795Y-71259774D01*
X130434999Y-71351411D01*
X130464003Y-71375214D01*
X135767280Y-76678492D01*
X135791079Y-76707491D01*
X135820077Y-76731289D01*
X135906803Y-76802464D01*
X136005513Y-76855226D01*
X136038833Y-76873036D01*
X136182094Y-76916493D01*
X136293747Y-76927490D01*
X136293757Y-76927490D01*
X136331080Y-76931166D01*
X136368403Y-76927490D01*
X139365000Y-76927490D01*
X139365000Y-77001939D01*
X139404774Y-77201898D01*
X139482795Y-77390256D01*
X139596063Y-77559774D01*
X139636289Y-77600000D01*
X139596289Y-77640000D01*
X120794803Y-77640000D01*
X118975000Y-75820199D01*
X118975000Y-75758061D01*
X118935226Y-75558102D01*
X118857205Y-75369744D01*
X118743937Y-75200226D01*
X118599774Y-75056063D01*
X118430256Y-74942795D01*
X118241898Y-74864774D01*
X118041939Y-74825000D01*
X117838061Y-74825000D01*
X117638102Y-74864774D01*
X117449744Y-74942795D01*
X117280226Y-75056063D01*
X117136063Y-75200226D01*
X117022795Y-75369744D01*
X116944774Y-75558102D01*
X116905000Y-75758061D01*
X116905000Y-75961939D01*
X116944774Y-76161898D01*
X117022795Y-76350256D01*
X117136063Y-76519774D01*
X117280226Y-76663937D01*
X117449744Y-76777205D01*
X117638102Y-76855226D01*
X117838061Y-76895000D01*
X117900199Y-76895000D01*
X118020744Y-77015545D01*
X117973410Y-77062879D01*
X117860142Y-77232397D01*
X117782121Y-77420755D01*
X117742347Y-77620714D01*
X117742347Y-77716093D01*
X115634999Y-75608746D01*
X115634999Y-57338072D01*
X119400000Y-57338072D01*
X119524482Y-57325812D01*
X119644180Y-57289502D01*
X119754494Y-57230537D01*
X119851185Y-57151185D01*
X119930537Y-57054494D01*
X119989502Y-56944180D01*
X120025812Y-56824482D01*
X120038072Y-56700000D01*
X120038072Y-53834999D01*
X130033200Y-53834999D01*
X136640000Y-60441800D01*
G37*
X136640000Y-60441800D02*
X136640001Y-61396288D01*
X136596063Y-61440226D01*
X136482795Y-61609744D01*
X136404774Y-61798102D01*
X136365000Y-61998061D01*
X136365000Y-62201939D01*
X136404774Y-62401898D01*
X136482795Y-62590256D01*
X136596063Y-62759774D01*
X136740226Y-62903937D01*
X136909744Y-63017205D01*
X137098102Y-63095226D01*
X137298061Y-63135000D01*
X137501939Y-63135000D01*
X137701898Y-63095226D01*
X137890256Y-63017205D01*
X138059774Y-62903937D01*
X138203937Y-62759774D01*
X138316504Y-62591305D01*
X139111199Y-63386001D01*
X139134998Y-63415000D01*
X139163996Y-63438798D01*
X139250723Y-63509973D01*
X139382752Y-63580545D01*
X139526013Y-63624002D01*
X139665000Y-63637691D01*
X139665000Y-63701939D01*
X139704774Y-63901898D01*
X139782795Y-64090256D01*
X139896063Y-64259774D01*
X140040226Y-64403937D01*
X140209744Y-64517205D01*
X140398102Y-64595226D01*
X140598061Y-64635000D01*
X140801939Y-64635000D01*
X140911423Y-64613222D01*
X141165002Y-64866801D01*
X141165001Y-65487195D01*
X140563997Y-66088200D01*
X140534999Y-66111998D01*
X140511201Y-66140996D01*
X140511200Y-66140997D01*
X140440025Y-66227723D01*
X140369453Y-66359753D01*
X140367854Y-66365026D01*
X140325996Y-66503013D01*
X140314999Y-66614666D01*
X140314999Y-66614677D01*
X140311323Y-66651999D01*
X140314999Y-66689321D01*
X140314999Y-67310679D01*
X140311323Y-67348001D01*
X140314999Y-67385323D01*
X140314999Y-67385333D01*
X140325996Y-67496986D01*
X140368780Y-67638028D01*
X140369453Y-67640247D01*
X140440025Y-67772277D01*
X140466008Y-67803937D01*
X140534998Y-67888002D01*
X140564001Y-67911804D01*
X141240001Y-68587804D01*
X141240001Y-68796288D01*
X141196063Y-68840226D01*
X141082795Y-69009744D01*
X141004774Y-69198102D01*
X140965000Y-69398061D01*
X140965000Y-69460198D01*
X139489003Y-70936196D01*
X139459999Y-70959999D01*
X139420808Y-71007754D01*
X139365026Y-71075724D01*
X139307802Y-71182782D01*
X139294454Y-71207754D01*
X139250997Y-71351015D01*
X139240000Y-71462668D01*
X139240000Y-71462678D01*
X139236324Y-71500000D01*
X139240000Y-71537323D01*
X139240001Y-73196288D01*
X139196063Y-73240226D01*
X139082795Y-73409744D01*
X139004774Y-73598102D01*
X138965000Y-73798061D01*
X138965000Y-74001939D01*
X139004774Y-74201898D01*
X139082795Y-74390256D01*
X139179846Y-74535504D01*
X136410306Y-74535504D01*
X132460000Y-70585199D01*
X132460000Y-61975870D01*
X132517205Y-61890256D01*
X132595226Y-61701898D01*
X132635000Y-61501939D01*
X132635000Y-61298061D01*
X132595226Y-61098102D01*
X132517205Y-60909744D01*
X132403937Y-60740226D01*
X132259774Y-60596063D01*
X132090256Y-60482795D01*
X131901898Y-60404774D01*
X131701939Y-60365000D01*
X131498061Y-60365000D01*
X131298102Y-60404774D01*
X131109744Y-60482795D01*
X130940226Y-60596063D01*
X130796063Y-60740226D01*
X130682795Y-60909744D01*
X130604774Y-61098102D01*
X130565000Y-61298061D01*
X130565000Y-61501939D01*
X130604774Y-61701898D01*
X130682795Y-61890256D01*
X130796063Y-62059774D01*
X130940001Y-62203712D01*
X130940001Y-62765000D01*
X130873061Y-62765000D01*
X130673102Y-62804774D01*
X130484744Y-62882795D01*
X130315226Y-62996063D01*
X130171063Y-63140226D01*
X130057795Y-63309744D01*
X129979774Y-63498102D01*
X129940000Y-63698061D01*
X129940000Y-63901939D01*
X129979774Y-64101898D01*
X130057795Y-64290256D01*
X130171063Y-64459774D01*
X130215001Y-64503712D01*
X130215000Y-70774087D01*
X130211324Y-70811410D01*
X130215000Y-70848732D01*
X130215000Y-70848742D01*
X130225997Y-70960395D01*
X130261393Y-71077082D01*
X130269454Y-71103656D01*
X130340026Y-71235686D01*
X130359795Y-71259774D01*
X130434999Y-71351411D01*
X130464003Y-71375214D01*
X135767280Y-76678492D01*
X135791079Y-76707491D01*
X135820077Y-76731289D01*
X135906803Y-76802464D01*
X136005513Y-76855226D01*
X136038833Y-76873036D01*
X136182094Y-76916493D01*
X136293747Y-76927490D01*
X136293757Y-76927490D01*
X136331080Y-76931166D01*
X136368403Y-76927490D01*
X139365000Y-76927490D01*
X139365000Y-77001939D01*
X139404774Y-77201898D01*
X139482795Y-77390256D01*
X139596063Y-77559774D01*
X139636289Y-77600000D01*
X139596289Y-77640000D01*
X120794803Y-77640000D01*
X118975000Y-75820199D01*
X118975000Y-75758061D01*
X118935226Y-75558102D01*
X118857205Y-75369744D01*
X118743937Y-75200226D01*
X118599774Y-75056063D01*
X118430256Y-74942795D01*
X118241898Y-74864774D01*
X118041939Y-74825000D01*
X117838061Y-74825000D01*
X117638102Y-74864774D01*
X117449744Y-74942795D01*
X117280226Y-75056063D01*
X117136063Y-75200226D01*
X117022795Y-75369744D01*
X116944774Y-75558102D01*
X116905000Y-75758061D01*
X116905000Y-75961939D01*
X116944774Y-76161898D01*
X117022795Y-76350256D01*
X117136063Y-76519774D01*
X117280226Y-76663937D01*
X117449744Y-76777205D01*
X117638102Y-76855226D01*
X117838061Y-76895000D01*
X117900199Y-76895000D01*
X118020744Y-77015545D01*
X117973410Y-77062879D01*
X117860142Y-77232397D01*
X117782121Y-77420755D01*
X117742347Y-77620714D01*
X117742347Y-77716093D01*
X115634999Y-75608746D01*
X115634999Y-57338072D01*
X119400000Y-57338072D01*
X119524482Y-57325812D01*
X119644180Y-57289502D01*
X119754494Y-57230537D01*
X119851185Y-57151185D01*
X119930537Y-57054494D01*
X119989502Y-56944180D01*
X120025812Y-56824482D01*
X120038072Y-56700000D01*
X120038072Y-53834999D01*
X130033200Y-53834999D01*
X136640000Y-60441800D01*
%TD*%
M02*
