%TF.GenerationSoftware,KiCad,Pcbnew,5.1.6-c6e7f7d~87~ubuntu20.04.1*%
%TF.CreationDate,2020-09-08T12:35:41+02:00*%
%TF.ProjectId,FShort,4653686f-7274-42e6-9b69-6361645f7063,rev?*%
%TF.SameCoordinates,Original*%
%TF.FileFunction,Soldermask,Top*%
%TF.FilePolarity,Negative*%
%FSLAX46Y46*%
G04 Gerber Fmt 4.6, Leading zero omitted, Abs format (unit mm)*
G04 Created by KiCad (PCBNEW 5.1.6-c6e7f7d~87~ubuntu20.04.1) date 2020-09-08 12:35:41*
%MOMM*%
%LPD*%
G01*
G04 APERTURE LIST*
%ADD10C,1.100000*%
%ADD11R,1.300000X2.100000*%
%ADD12R,0.800000X1.400000*%
%ADD13R,1.300000X1.500000*%
%ADD14R,1.600000X2.600000*%
%ADD15R,4.100000X1.624000*%
%ADD16R,1.624000X4.100000*%
%ADD17C,0.100000*%
%ADD18R,1.400000X1.800000*%
%ADD19R,1.800000X1.400000*%
%ADD20R,0.600000X0.750000*%
%ADD21R,0.700000X1.600000*%
%ADD22R,0.600000X0.600000*%
%ADD23R,2.500000X2.100000*%
%ADD24R,2.600000X1.900000*%
%ADD25R,1.100000X1.600000*%
%ADD26R,1.800000X1.800000*%
%ADD27O,1.800000X1.800000*%
%ADD28O,2.050000X1.800000*%
%ADD29R,1.600000X2.000000*%
%ADD30C,1.550000*%
%ADD31R,0.500000X1.450000*%
%ADD32O,1.300000X2.000000*%
%ADD33R,1.300000X2.000000*%
%ADD34R,1.100000X3.250000*%
%ADD35R,2.100000X4.100000*%
%ADD36R,4.100000X2.100000*%
%ADD37R,3.250000X1.100000*%
%ADD38R,1.200000X1.100000*%
%ADD39R,1.160000X0.750000*%
%ADD40R,0.900000X0.900000*%
G04 APERTURE END LIST*
D10*
%TO.C,J13*%
X157100000Y-41300000D03*
X148500000Y-41310000D03*
D11*
X144595000Y-41600000D03*
X159925000Y-41600000D03*
D12*
X158500000Y-52150000D03*
X157400000Y-52150000D03*
X156300000Y-52150000D03*
X155200000Y-52150000D03*
X154100000Y-52150000D03*
X153000000Y-52150000D03*
X151900000Y-52150000D03*
X150800000Y-52150000D03*
X149700000Y-52150000D03*
D13*
X144900000Y-51300000D03*
X159925000Y-51300000D03*
%TD*%
%TO.C,R7*%
G36*
G01*
X163081250Y-93912500D02*
X162518750Y-93912500D01*
G75*
G02*
X162275000Y-93668750I0J243750D01*
G01*
X162275000Y-93181250D01*
G75*
G02*
X162518750Y-92937500I243750J0D01*
G01*
X163081250Y-92937500D01*
G75*
G02*
X163325000Y-93181250I0J-243750D01*
G01*
X163325000Y-93668750D01*
G75*
G02*
X163081250Y-93912500I-243750J0D01*
G01*
G37*
G36*
G01*
X163081250Y-95487500D02*
X162518750Y-95487500D01*
G75*
G02*
X162275000Y-95243750I0J243750D01*
G01*
X162275000Y-94756250D01*
G75*
G02*
X162518750Y-94512500I243750J0D01*
G01*
X163081250Y-94512500D01*
G75*
G02*
X163325000Y-94756250I0J-243750D01*
G01*
X163325000Y-95243750D01*
G75*
G02*
X163081250Y-95487500I-243750J0D01*
G01*
G37*
%TD*%
D14*
%TO.C,U6*%
X116800000Y-59900000D03*
X112800000Y-59900000D03*
X122800000Y-59900000D03*
X110800000Y-59900000D03*
X118800000Y-59900000D03*
X120800000Y-59900000D03*
X108800000Y-59900000D03*
X114800000Y-59900000D03*
X108800000Y-76900000D03*
X110800000Y-76900000D03*
X112800000Y-76900000D03*
X114800000Y-76900000D03*
X116800000Y-76900000D03*
X118800000Y-76900000D03*
X120800000Y-76900000D03*
X122800000Y-76900000D03*
D15*
X127800000Y-76400000D03*
X127800000Y-73860000D03*
X127800000Y-71320000D03*
X127800000Y-68780000D03*
X127800000Y-66240000D03*
X127800000Y-63700000D03*
X127800000Y-61160000D03*
X127800000Y-58620000D03*
X127800000Y-56080000D03*
X103035000Y-76400000D03*
X103035000Y-73860000D03*
X103035000Y-71320000D03*
X103035000Y-68780000D03*
X103035000Y-66240000D03*
X103035000Y-63700000D03*
X103035000Y-61160000D03*
X103035000Y-58620000D03*
X103035000Y-56080000D03*
D16*
X122300000Y-39900000D03*
X119800000Y-39900000D03*
X108300000Y-40400000D03*
X110800000Y-40400000D03*
%TD*%
%TO.C,U5*%
G36*
G01*
X138450000Y-55370000D02*
X138450000Y-55020000D01*
G75*
G02*
X138625000Y-54845000I175000J0D01*
G01*
X139975000Y-54845000D01*
G75*
G02*
X140150000Y-55020000I0J-175000D01*
G01*
X140150000Y-55370000D01*
G75*
G02*
X139975000Y-55545000I-175000J0D01*
G01*
X138625000Y-55545000D01*
G75*
G02*
X138450000Y-55370000I0J175000D01*
G01*
G37*
G36*
G01*
X138450000Y-56640000D02*
X138450000Y-56290000D01*
G75*
G02*
X138625000Y-56115000I175000J0D01*
G01*
X139975000Y-56115000D01*
G75*
G02*
X140150000Y-56290000I0J-175000D01*
G01*
X140150000Y-56640000D01*
G75*
G02*
X139975000Y-56815000I-175000J0D01*
G01*
X138625000Y-56815000D01*
G75*
G02*
X138450000Y-56640000I0J175000D01*
G01*
G37*
G36*
G01*
X138450000Y-57910000D02*
X138450000Y-57560000D01*
G75*
G02*
X138625000Y-57385000I175000J0D01*
G01*
X139975000Y-57385000D01*
G75*
G02*
X140150000Y-57560000I0J-175000D01*
G01*
X140150000Y-57910000D01*
G75*
G02*
X139975000Y-58085000I-175000J0D01*
G01*
X138625000Y-58085000D01*
G75*
G02*
X138450000Y-57910000I0J175000D01*
G01*
G37*
G36*
G01*
X138450000Y-59180000D02*
X138450000Y-58830000D01*
G75*
G02*
X138625000Y-58655000I175000J0D01*
G01*
X139975000Y-58655000D01*
G75*
G02*
X140150000Y-58830000I0J-175000D01*
G01*
X140150000Y-59180000D01*
G75*
G02*
X139975000Y-59355000I-175000J0D01*
G01*
X138625000Y-59355000D01*
G75*
G02*
X138450000Y-59180000I0J175000D01*
G01*
G37*
G36*
G01*
X131250000Y-59180000D02*
X131250000Y-58830000D01*
G75*
G02*
X131425000Y-58655000I175000J0D01*
G01*
X132775000Y-58655000D01*
G75*
G02*
X132950000Y-58830000I0J-175000D01*
G01*
X132950000Y-59180000D01*
G75*
G02*
X132775000Y-59355000I-175000J0D01*
G01*
X131425000Y-59355000D01*
G75*
G02*
X131250000Y-59180000I0J175000D01*
G01*
G37*
G36*
G01*
X131250000Y-57910000D02*
X131250000Y-57560000D01*
G75*
G02*
X131425000Y-57385000I175000J0D01*
G01*
X132775000Y-57385000D01*
G75*
G02*
X132950000Y-57560000I0J-175000D01*
G01*
X132950000Y-57910000D01*
G75*
G02*
X132775000Y-58085000I-175000J0D01*
G01*
X131425000Y-58085000D01*
G75*
G02*
X131250000Y-57910000I0J175000D01*
G01*
G37*
G36*
G01*
X131250000Y-56640000D02*
X131250000Y-56290000D01*
G75*
G02*
X131425000Y-56115000I175000J0D01*
G01*
X132775000Y-56115000D01*
G75*
G02*
X132950000Y-56290000I0J-175000D01*
G01*
X132950000Y-56640000D01*
G75*
G02*
X132775000Y-56815000I-175000J0D01*
G01*
X131425000Y-56815000D01*
G75*
G02*
X131250000Y-56640000I0J175000D01*
G01*
G37*
G36*
G01*
X131250000Y-55370000D02*
X131250000Y-55020000D01*
G75*
G02*
X131425000Y-54845000I175000J0D01*
G01*
X132775000Y-54845000D01*
G75*
G02*
X132950000Y-55020000I0J-175000D01*
G01*
X132950000Y-55370000D01*
G75*
G02*
X132775000Y-55545000I-175000J0D01*
G01*
X131425000Y-55545000D01*
G75*
G02*
X131250000Y-55370000I0J175000D01*
G01*
G37*
%TD*%
%TO.C,R12*%
G36*
G01*
X167818750Y-84212500D02*
X168381250Y-84212500D01*
G75*
G02*
X168625000Y-84456250I0J-243750D01*
G01*
X168625000Y-84943750D01*
G75*
G02*
X168381250Y-85187500I-243750J0D01*
G01*
X167818750Y-85187500D01*
G75*
G02*
X167575000Y-84943750I0J243750D01*
G01*
X167575000Y-84456250D01*
G75*
G02*
X167818750Y-84212500I243750J0D01*
G01*
G37*
G36*
G01*
X167818750Y-82637500D02*
X168381250Y-82637500D01*
G75*
G02*
X168625000Y-82881250I0J-243750D01*
G01*
X168625000Y-83368750D01*
G75*
G02*
X168381250Y-83612500I-243750J0D01*
G01*
X167818750Y-83612500D01*
G75*
G02*
X167575000Y-83368750I0J243750D01*
G01*
X167575000Y-82881250D01*
G75*
G02*
X167818750Y-82637500I243750J0D01*
G01*
G37*
%TD*%
%TO.C,R11*%
G36*
G01*
X165587500Y-81381250D02*
X165587500Y-80818750D01*
G75*
G02*
X165831250Y-80575000I243750J0D01*
G01*
X166318750Y-80575000D01*
G75*
G02*
X166562500Y-80818750I0J-243750D01*
G01*
X166562500Y-81381250D01*
G75*
G02*
X166318750Y-81625000I-243750J0D01*
G01*
X165831250Y-81625000D01*
G75*
G02*
X165587500Y-81381250I0J243750D01*
G01*
G37*
G36*
G01*
X164012500Y-81381250D02*
X164012500Y-80818750D01*
G75*
G02*
X164256250Y-80575000I243750J0D01*
G01*
X164743750Y-80575000D01*
G75*
G02*
X164987500Y-80818750I0J-243750D01*
G01*
X164987500Y-81381250D01*
G75*
G02*
X164743750Y-81625000I-243750J0D01*
G01*
X164256250Y-81625000D01*
G75*
G02*
X164012500Y-81381250I0J243750D01*
G01*
G37*
%TD*%
%TO.C,R10*%
G36*
G01*
X163081250Y-90587500D02*
X162518750Y-90587500D01*
G75*
G02*
X162275000Y-90343750I0J243750D01*
G01*
X162275000Y-89856250D01*
G75*
G02*
X162518750Y-89612500I243750J0D01*
G01*
X163081250Y-89612500D01*
G75*
G02*
X163325000Y-89856250I0J-243750D01*
G01*
X163325000Y-90343750D01*
G75*
G02*
X163081250Y-90587500I-243750J0D01*
G01*
G37*
G36*
G01*
X163081250Y-92162500D02*
X162518750Y-92162500D01*
G75*
G02*
X162275000Y-91918750I0J243750D01*
G01*
X162275000Y-91431250D01*
G75*
G02*
X162518750Y-91187500I243750J0D01*
G01*
X163081250Y-91187500D01*
G75*
G02*
X163325000Y-91431250I0J-243750D01*
G01*
X163325000Y-91918750D01*
G75*
G02*
X163081250Y-92162500I-243750J0D01*
G01*
G37*
%TD*%
%TO.C,R9*%
G36*
G01*
X169612500Y-80681250D02*
X169612500Y-80118750D01*
G75*
G02*
X169856250Y-79875000I243750J0D01*
G01*
X170343750Y-79875000D01*
G75*
G02*
X170587500Y-80118750I0J-243750D01*
G01*
X170587500Y-80681250D01*
G75*
G02*
X170343750Y-80925000I-243750J0D01*
G01*
X169856250Y-80925000D01*
G75*
G02*
X169612500Y-80681250I0J243750D01*
G01*
G37*
G36*
G01*
X168037500Y-80681250D02*
X168037500Y-80118750D01*
G75*
G02*
X168281250Y-79875000I243750J0D01*
G01*
X168768750Y-79875000D01*
G75*
G02*
X169012500Y-80118750I0J-243750D01*
G01*
X169012500Y-80681250D01*
G75*
G02*
X168768750Y-80925000I-243750J0D01*
G01*
X168281250Y-80925000D01*
G75*
G02*
X168037500Y-80681250I0J243750D01*
G01*
G37*
%TD*%
%TO.C,R8*%
G36*
G01*
X161081250Y-93912500D02*
X160518750Y-93912500D01*
G75*
G02*
X160275000Y-93668750I0J243750D01*
G01*
X160275000Y-93181250D01*
G75*
G02*
X160518750Y-92937500I243750J0D01*
G01*
X161081250Y-92937500D01*
G75*
G02*
X161325000Y-93181250I0J-243750D01*
G01*
X161325000Y-93668750D01*
G75*
G02*
X161081250Y-93912500I-243750J0D01*
G01*
G37*
G36*
G01*
X161081250Y-95487500D02*
X160518750Y-95487500D01*
G75*
G02*
X160275000Y-95243750I0J243750D01*
G01*
X160275000Y-94756250D01*
G75*
G02*
X160518750Y-94512500I243750J0D01*
G01*
X161081250Y-94512500D01*
G75*
G02*
X161325000Y-94756250I0J-243750D01*
G01*
X161325000Y-95243750D01*
G75*
G02*
X161081250Y-95487500I-243750J0D01*
G01*
G37*
%TD*%
D17*
%TO.C,E2*%
G36*
X168400961Y-69965245D02*
G01*
X168403806Y-69955866D01*
X168408427Y-69947221D01*
X168414645Y-69939645D01*
X168422221Y-69933427D01*
X168430866Y-69928806D01*
X168440245Y-69925961D01*
X168450000Y-69925000D01*
X168600000Y-69925000D01*
X168600000Y-68800000D01*
X168600241Y-68795098D01*
X168601202Y-68785343D01*
X168603114Y-68775731D01*
X168605959Y-68766352D01*
X168609710Y-68757296D01*
X168614331Y-68748651D01*
X168619778Y-68740500D01*
X168625996Y-68732924D01*
X168632924Y-68725996D01*
X168640500Y-68719778D01*
X168648651Y-68714331D01*
X168657296Y-68709710D01*
X168666352Y-68705959D01*
X168675731Y-68703114D01*
X168685343Y-68701202D01*
X168695098Y-68700241D01*
X168700000Y-68700000D01*
X169200000Y-68700000D01*
X169204902Y-68700241D01*
X169214657Y-68701202D01*
X169225958Y-68703659D01*
X169238564Y-68707977D01*
X169244722Y-68710558D01*
X170244722Y-69210558D01*
X170248995Y-69212963D01*
X170257290Y-69218184D01*
X170265037Y-69224196D01*
X170272154Y-69230936D01*
X170278575Y-69238340D01*
X170284240Y-69246338D01*
X170289095Y-69254855D01*
X170293091Y-69263806D01*
X170296190Y-69273103D01*
X170298363Y-69282660D01*
X170299588Y-69292384D01*
X170299855Y-69302182D01*
X170299160Y-69311961D01*
X170297510Y-69321623D01*
X170294922Y-69331074D01*
X170291419Y-69340229D01*
X170287037Y-69348995D01*
X170281816Y-69357290D01*
X170275804Y-69365037D01*
X170269064Y-69372154D01*
X170260537Y-69379347D01*
X170250138Y-69386295D01*
X170244722Y-69389442D01*
X169423606Y-69800000D01*
X170244722Y-70210558D01*
X170248995Y-70212963D01*
X170257290Y-70218184D01*
X170265037Y-70224196D01*
X170272154Y-70230936D01*
X170278575Y-70238340D01*
X170284240Y-70246338D01*
X170289095Y-70254855D01*
X170293091Y-70263806D01*
X170296190Y-70273103D01*
X170298363Y-70282660D01*
X170299588Y-70292384D01*
X170299855Y-70302182D01*
X170299160Y-70311961D01*
X170297510Y-70321623D01*
X170294922Y-70331074D01*
X170291419Y-70340229D01*
X170287037Y-70348995D01*
X170281816Y-70357290D01*
X170275804Y-70365037D01*
X170269064Y-70372154D01*
X170260537Y-70379347D01*
X170250138Y-70386295D01*
X170244722Y-70389442D01*
X169423606Y-70800000D01*
X170244722Y-71210558D01*
X170248995Y-71212963D01*
X170257290Y-71218184D01*
X170265037Y-71224196D01*
X170272154Y-71230936D01*
X170278575Y-71238340D01*
X170284240Y-71246338D01*
X170289095Y-71254855D01*
X170293091Y-71263806D01*
X170296190Y-71273103D01*
X170298363Y-71282660D01*
X170299588Y-71292384D01*
X170299855Y-71302182D01*
X170299160Y-71311961D01*
X170297510Y-71321623D01*
X170294922Y-71331074D01*
X170291419Y-71340229D01*
X170287037Y-71348995D01*
X170281816Y-71357290D01*
X170275804Y-71365037D01*
X170269064Y-71372154D01*
X170260537Y-71379347D01*
X170250138Y-71386295D01*
X170244722Y-71389442D01*
X169244722Y-71889442D01*
X169240229Y-71891419D01*
X169231074Y-71894922D01*
X169219870Y-71897778D01*
X169206664Y-71899554D01*
X169200000Y-71900000D01*
X168700000Y-71900000D01*
X168695098Y-71899759D01*
X168685343Y-71898798D01*
X168675731Y-71896886D01*
X168666352Y-71894041D01*
X168657296Y-71890290D01*
X168648651Y-71885669D01*
X168640500Y-71880222D01*
X168632924Y-71874004D01*
X168625996Y-71867076D01*
X168619778Y-71859500D01*
X168614331Y-71851349D01*
X168609710Y-71842704D01*
X168605959Y-71833648D01*
X168603114Y-71824269D01*
X168601202Y-71814657D01*
X168600241Y-71804902D01*
X168600000Y-71800000D01*
X168600000Y-70675000D01*
X168450000Y-70675000D01*
X168440245Y-70674039D01*
X168430866Y-70671194D01*
X168422221Y-70666573D01*
X168414645Y-70660355D01*
X168408427Y-70652779D01*
X168403806Y-70644134D01*
X168400961Y-70634755D01*
X168400000Y-70625000D01*
X168400000Y-69975000D01*
X168400961Y-69965245D01*
G37*
G36*
X170500840Y-69288039D02*
G01*
X170502490Y-69278377D01*
X170505078Y-69268926D01*
X170508581Y-69259771D01*
X170512963Y-69251005D01*
X170518184Y-69242710D01*
X170524196Y-69234963D01*
X170530936Y-69227846D01*
X170539463Y-69220653D01*
X170549862Y-69213705D01*
X170555278Y-69210558D01*
X171555278Y-68710558D01*
X171559771Y-68708581D01*
X171568926Y-68705078D01*
X171580130Y-68702222D01*
X171593336Y-68700446D01*
X171600000Y-68700000D01*
X172100000Y-68700000D01*
X172104902Y-68700241D01*
X172114657Y-68701202D01*
X172124269Y-68703114D01*
X172133648Y-68705959D01*
X172142704Y-68709710D01*
X172151349Y-68714331D01*
X172159500Y-68719778D01*
X172167076Y-68725996D01*
X172174004Y-68732924D01*
X172180222Y-68740500D01*
X172185669Y-68748651D01*
X172190290Y-68757296D01*
X172194041Y-68766352D01*
X172196886Y-68775731D01*
X172198798Y-68785343D01*
X172199759Y-68795098D01*
X172200000Y-68800000D01*
X172200000Y-69925000D01*
X172450000Y-69925000D01*
X172459755Y-69925961D01*
X172469134Y-69928806D01*
X172477779Y-69933427D01*
X172485355Y-69939645D01*
X172491573Y-69947221D01*
X172496194Y-69955866D01*
X172499039Y-69965245D01*
X172500000Y-69975000D01*
X172500000Y-70625000D01*
X172499039Y-70634755D01*
X172496194Y-70644134D01*
X172491573Y-70652779D01*
X172485355Y-70660355D01*
X172477779Y-70666573D01*
X172469134Y-70671194D01*
X172459755Y-70674039D01*
X172450000Y-70675000D01*
X172200000Y-70675000D01*
X172200000Y-71800000D01*
X172199759Y-71804902D01*
X172198798Y-71814657D01*
X172196886Y-71824269D01*
X172194041Y-71833648D01*
X172190290Y-71842704D01*
X172185669Y-71851349D01*
X172180222Y-71859500D01*
X172174004Y-71867076D01*
X172167076Y-71874004D01*
X172159500Y-71880222D01*
X172151349Y-71885669D01*
X172142704Y-71890290D01*
X172133648Y-71894041D01*
X172124269Y-71896886D01*
X172114657Y-71898798D01*
X172104902Y-71899759D01*
X172100000Y-71900000D01*
X171600000Y-71900000D01*
X171595098Y-71899759D01*
X171585343Y-71898798D01*
X171574042Y-71896341D01*
X171561436Y-71892023D01*
X171555278Y-71889442D01*
X170555278Y-71389442D01*
X170551005Y-71387037D01*
X170542710Y-71381816D01*
X170534963Y-71375804D01*
X170527846Y-71369064D01*
X170521425Y-71361660D01*
X170515760Y-71353662D01*
X170510905Y-71345145D01*
X170506909Y-71336194D01*
X170503810Y-71326897D01*
X170501637Y-71317340D01*
X170500412Y-71307616D01*
X170500145Y-71297818D01*
X170500840Y-71288039D01*
X170502490Y-71278377D01*
X170505078Y-71268926D01*
X170508581Y-71259771D01*
X170512963Y-71251005D01*
X170518184Y-71242710D01*
X170524196Y-71234963D01*
X170530936Y-71227846D01*
X170539463Y-71220653D01*
X170549862Y-71213705D01*
X170555278Y-71210558D01*
X171376394Y-70800000D01*
X170555278Y-70389442D01*
X170551005Y-70387037D01*
X170542710Y-70381816D01*
X170534963Y-70375804D01*
X170527846Y-70369064D01*
X170521425Y-70361660D01*
X170515760Y-70353662D01*
X170510905Y-70345145D01*
X170506909Y-70336194D01*
X170503810Y-70326897D01*
X170501637Y-70317340D01*
X170500412Y-70307616D01*
X170500145Y-70297818D01*
X170500840Y-70288039D01*
X170502490Y-70278377D01*
X170505078Y-70268926D01*
X170508581Y-70259771D01*
X170512963Y-70251005D01*
X170518184Y-70242710D01*
X170524196Y-70234963D01*
X170530936Y-70227846D01*
X170539463Y-70220653D01*
X170549862Y-70213705D01*
X170555278Y-70210558D01*
X171376394Y-69800000D01*
X170555278Y-69389442D01*
X170551005Y-69387037D01*
X170542710Y-69381816D01*
X170534963Y-69375804D01*
X170527846Y-69369064D01*
X170521425Y-69361660D01*
X170515760Y-69353662D01*
X170510905Y-69345145D01*
X170506909Y-69336194D01*
X170503810Y-69326897D01*
X170501637Y-69317340D01*
X170500412Y-69307616D01*
X170500145Y-69297818D01*
X170500840Y-69288039D01*
G37*
%TD*%
%TO.C,E1*%
G36*
X168734755Y-92900961D02*
G01*
X168744134Y-92903806D01*
X168752779Y-92908427D01*
X168760355Y-92914645D01*
X168766573Y-92922221D01*
X168771194Y-92930866D01*
X168774039Y-92940245D01*
X168775000Y-92950000D01*
X168775000Y-93100000D01*
X169900000Y-93100000D01*
X169904902Y-93100241D01*
X169914657Y-93101202D01*
X169924269Y-93103114D01*
X169933648Y-93105959D01*
X169942704Y-93109710D01*
X169951349Y-93114331D01*
X169959500Y-93119778D01*
X169967076Y-93125996D01*
X169974004Y-93132924D01*
X169980222Y-93140500D01*
X169985669Y-93148651D01*
X169990290Y-93157296D01*
X169994041Y-93166352D01*
X169996886Y-93175731D01*
X169998798Y-93185343D01*
X169999759Y-93195098D01*
X170000000Y-93200000D01*
X170000000Y-93700000D01*
X169999759Y-93704902D01*
X169998798Y-93714657D01*
X169996341Y-93725958D01*
X169992023Y-93738564D01*
X169989442Y-93744722D01*
X169489442Y-94744722D01*
X169487037Y-94748995D01*
X169481816Y-94757290D01*
X169475804Y-94765037D01*
X169469064Y-94772154D01*
X169461660Y-94778575D01*
X169453662Y-94784240D01*
X169445145Y-94789095D01*
X169436194Y-94793091D01*
X169426897Y-94796190D01*
X169417340Y-94798363D01*
X169407616Y-94799588D01*
X169397818Y-94799855D01*
X169388039Y-94799160D01*
X169378377Y-94797510D01*
X169368926Y-94794922D01*
X169359771Y-94791419D01*
X169351005Y-94787037D01*
X169342710Y-94781816D01*
X169334963Y-94775804D01*
X169327846Y-94769064D01*
X169320653Y-94760537D01*
X169313705Y-94750138D01*
X169310558Y-94744722D01*
X168900000Y-93923606D01*
X168489442Y-94744722D01*
X168487037Y-94748995D01*
X168481816Y-94757290D01*
X168475804Y-94765037D01*
X168469064Y-94772154D01*
X168461660Y-94778575D01*
X168453662Y-94784240D01*
X168445145Y-94789095D01*
X168436194Y-94793091D01*
X168426897Y-94796190D01*
X168417340Y-94798363D01*
X168407616Y-94799588D01*
X168397818Y-94799855D01*
X168388039Y-94799160D01*
X168378377Y-94797510D01*
X168368926Y-94794922D01*
X168359771Y-94791419D01*
X168351005Y-94787037D01*
X168342710Y-94781816D01*
X168334963Y-94775804D01*
X168327846Y-94769064D01*
X168320653Y-94760537D01*
X168313705Y-94750138D01*
X168310558Y-94744722D01*
X167900000Y-93923606D01*
X167489442Y-94744722D01*
X167487037Y-94748995D01*
X167481816Y-94757290D01*
X167475804Y-94765037D01*
X167469064Y-94772154D01*
X167461660Y-94778575D01*
X167453662Y-94784240D01*
X167445145Y-94789095D01*
X167436194Y-94793091D01*
X167426897Y-94796190D01*
X167417340Y-94798363D01*
X167407616Y-94799588D01*
X167397818Y-94799855D01*
X167388039Y-94799160D01*
X167378377Y-94797510D01*
X167368926Y-94794922D01*
X167359771Y-94791419D01*
X167351005Y-94787037D01*
X167342710Y-94781816D01*
X167334963Y-94775804D01*
X167327846Y-94769064D01*
X167320653Y-94760537D01*
X167313705Y-94750138D01*
X167310558Y-94744722D01*
X166810558Y-93744722D01*
X166808581Y-93740229D01*
X166805078Y-93731074D01*
X166802222Y-93719870D01*
X166800446Y-93706664D01*
X166800000Y-93700000D01*
X166800000Y-93200000D01*
X166800241Y-93195098D01*
X166801202Y-93185343D01*
X166803114Y-93175731D01*
X166805959Y-93166352D01*
X166809710Y-93157296D01*
X166814331Y-93148651D01*
X166819778Y-93140500D01*
X166825996Y-93132924D01*
X166832924Y-93125996D01*
X166840500Y-93119778D01*
X166848651Y-93114331D01*
X166857296Y-93109710D01*
X166866352Y-93105959D01*
X166875731Y-93103114D01*
X166885343Y-93101202D01*
X166895098Y-93100241D01*
X166900000Y-93100000D01*
X168025000Y-93100000D01*
X168025000Y-92950000D01*
X168025961Y-92940245D01*
X168028806Y-92930866D01*
X168033427Y-92922221D01*
X168039645Y-92914645D01*
X168047221Y-92908427D01*
X168055866Y-92903806D01*
X168065245Y-92900961D01*
X168075000Y-92900000D01*
X168725000Y-92900000D01*
X168734755Y-92900961D01*
G37*
G36*
X169411961Y-95000840D02*
G01*
X169421623Y-95002490D01*
X169431074Y-95005078D01*
X169440229Y-95008581D01*
X169448995Y-95012963D01*
X169457290Y-95018184D01*
X169465037Y-95024196D01*
X169472154Y-95030936D01*
X169479347Y-95039463D01*
X169486295Y-95049862D01*
X169489442Y-95055278D01*
X169989442Y-96055278D01*
X169991419Y-96059771D01*
X169994922Y-96068926D01*
X169997778Y-96080130D01*
X169999554Y-96093336D01*
X170000000Y-96100000D01*
X170000000Y-96600000D01*
X169999759Y-96604902D01*
X169998798Y-96614657D01*
X169996886Y-96624269D01*
X169994041Y-96633648D01*
X169990290Y-96642704D01*
X169985669Y-96651349D01*
X169980222Y-96659500D01*
X169974004Y-96667076D01*
X169967076Y-96674004D01*
X169959500Y-96680222D01*
X169951349Y-96685669D01*
X169942704Y-96690290D01*
X169933648Y-96694041D01*
X169924269Y-96696886D01*
X169914657Y-96698798D01*
X169904902Y-96699759D01*
X169900000Y-96700000D01*
X168775000Y-96700000D01*
X168775000Y-96950000D01*
X168774039Y-96959755D01*
X168771194Y-96969134D01*
X168766573Y-96977779D01*
X168760355Y-96985355D01*
X168752779Y-96991573D01*
X168744134Y-96996194D01*
X168734755Y-96999039D01*
X168725000Y-97000000D01*
X168075000Y-97000000D01*
X168065245Y-96999039D01*
X168055866Y-96996194D01*
X168047221Y-96991573D01*
X168039645Y-96985355D01*
X168033427Y-96977779D01*
X168028806Y-96969134D01*
X168025961Y-96959755D01*
X168025000Y-96950000D01*
X168025000Y-96700000D01*
X166900000Y-96700000D01*
X166895098Y-96699759D01*
X166885343Y-96698798D01*
X166875731Y-96696886D01*
X166866352Y-96694041D01*
X166857296Y-96690290D01*
X166848651Y-96685669D01*
X166840500Y-96680222D01*
X166832924Y-96674004D01*
X166825996Y-96667076D01*
X166819778Y-96659500D01*
X166814331Y-96651349D01*
X166809710Y-96642704D01*
X166805959Y-96633648D01*
X166803114Y-96624269D01*
X166801202Y-96614657D01*
X166800241Y-96604902D01*
X166800000Y-96600000D01*
X166800000Y-96100000D01*
X166800241Y-96095098D01*
X166801202Y-96085343D01*
X166803659Y-96074042D01*
X166807977Y-96061436D01*
X166810558Y-96055278D01*
X167310558Y-95055278D01*
X167312963Y-95051005D01*
X167318184Y-95042710D01*
X167324196Y-95034963D01*
X167330936Y-95027846D01*
X167338340Y-95021425D01*
X167346338Y-95015760D01*
X167354855Y-95010905D01*
X167363806Y-95006909D01*
X167373103Y-95003810D01*
X167382660Y-95001637D01*
X167392384Y-95000412D01*
X167402182Y-95000145D01*
X167411961Y-95000840D01*
X167421623Y-95002490D01*
X167431074Y-95005078D01*
X167440229Y-95008581D01*
X167448995Y-95012963D01*
X167457290Y-95018184D01*
X167465037Y-95024196D01*
X167472154Y-95030936D01*
X167479347Y-95039463D01*
X167486295Y-95049862D01*
X167489442Y-95055278D01*
X167900000Y-95876394D01*
X168310558Y-95055278D01*
X168312963Y-95051005D01*
X168318184Y-95042710D01*
X168324196Y-95034963D01*
X168330936Y-95027846D01*
X168338340Y-95021425D01*
X168346338Y-95015760D01*
X168354855Y-95010905D01*
X168363806Y-95006909D01*
X168373103Y-95003810D01*
X168382660Y-95001637D01*
X168392384Y-95000412D01*
X168402182Y-95000145D01*
X168411961Y-95000840D01*
X168421623Y-95002490D01*
X168431074Y-95005078D01*
X168440229Y-95008581D01*
X168448995Y-95012963D01*
X168457290Y-95018184D01*
X168465037Y-95024196D01*
X168472154Y-95030936D01*
X168479347Y-95039463D01*
X168486295Y-95049862D01*
X168489442Y-95055278D01*
X168900000Y-95876394D01*
X169310558Y-95055278D01*
X169312963Y-95051005D01*
X169318184Y-95042710D01*
X169324196Y-95034963D01*
X169330936Y-95027846D01*
X169338340Y-95021425D01*
X169346338Y-95015760D01*
X169354855Y-95010905D01*
X169363806Y-95006909D01*
X169373103Y-95003810D01*
X169382660Y-95001637D01*
X169392384Y-95000412D01*
X169402182Y-95000145D01*
X169411961Y-95000840D01*
G37*
%TD*%
D18*
%TO.C,D3*%
X162400000Y-84900000D03*
X165900000Y-84900000D03*
%TD*%
D19*
%TO.C,D2*%
X165100000Y-95600000D03*
X165100000Y-92100000D03*
%TD*%
%TO.C,C16*%
G36*
G01*
X164970000Y-82518750D02*
X164970000Y-83081250D01*
G75*
G02*
X164726250Y-83325000I-243750J0D01*
G01*
X164238750Y-83325000D01*
G75*
G02*
X163995000Y-83081250I0J243750D01*
G01*
X163995000Y-82518750D01*
G75*
G02*
X164238750Y-82275000I243750J0D01*
G01*
X164726250Y-82275000D01*
G75*
G02*
X164970000Y-82518750I0J-243750D01*
G01*
G37*
G36*
G01*
X166545000Y-82518750D02*
X166545000Y-83081250D01*
G75*
G02*
X166301250Y-83325000I-243750J0D01*
G01*
X165813750Y-83325000D01*
G75*
G02*
X165570000Y-83081250I0J243750D01*
G01*
X165570000Y-82518750D01*
G75*
G02*
X165813750Y-82275000I243750J0D01*
G01*
X166301250Y-82275000D01*
G75*
G02*
X166545000Y-82518750I0J-243750D01*
G01*
G37*
%TD*%
%TO.C,C15*%
G36*
G01*
X160518750Y-91212500D02*
X161081250Y-91212500D01*
G75*
G02*
X161325000Y-91456250I0J-243750D01*
G01*
X161325000Y-91943750D01*
G75*
G02*
X161081250Y-92187500I-243750J0D01*
G01*
X160518750Y-92187500D01*
G75*
G02*
X160275000Y-91943750I0J243750D01*
G01*
X160275000Y-91456250D01*
G75*
G02*
X160518750Y-91212500I243750J0D01*
G01*
G37*
G36*
G01*
X160518750Y-89637500D02*
X161081250Y-89637500D01*
G75*
G02*
X161325000Y-89881250I0J-243750D01*
G01*
X161325000Y-90368750D01*
G75*
G02*
X161081250Y-90612500I-243750J0D01*
G01*
X160518750Y-90612500D01*
G75*
G02*
X160275000Y-90368750I0J243750D01*
G01*
X160275000Y-89881250D01*
G75*
G02*
X160518750Y-89637500I243750J0D01*
G01*
G37*
%TD*%
D20*
%TO.C,AE1*%
X104100000Y-81425000D03*
D21*
X105100000Y-82400000D03*
X103100000Y-82400000D03*
D22*
X104100000Y-83450000D03*
%TD*%
%TO.C,C14*%
G36*
G01*
X114118750Y-83987500D02*
X114681250Y-83987500D01*
G75*
G02*
X114925000Y-84231250I0J-243750D01*
G01*
X114925000Y-84718750D01*
G75*
G02*
X114681250Y-84962500I-243750J0D01*
G01*
X114118750Y-84962500D01*
G75*
G02*
X113875000Y-84718750I0J243750D01*
G01*
X113875000Y-84231250D01*
G75*
G02*
X114118750Y-83987500I243750J0D01*
G01*
G37*
G36*
G01*
X114118750Y-82412500D02*
X114681250Y-82412500D01*
G75*
G02*
X114925000Y-82656250I0J-243750D01*
G01*
X114925000Y-83143750D01*
G75*
G02*
X114681250Y-83387500I-243750J0D01*
G01*
X114118750Y-83387500D01*
G75*
G02*
X113875000Y-83143750I0J243750D01*
G01*
X113875000Y-82656250D01*
G75*
G02*
X114118750Y-82412500I243750J0D01*
G01*
G37*
%TD*%
%TO.C,C13*%
G36*
G01*
X112318750Y-83987500D02*
X112881250Y-83987500D01*
G75*
G02*
X113125000Y-84231250I0J-243750D01*
G01*
X113125000Y-84718750D01*
G75*
G02*
X112881250Y-84962500I-243750J0D01*
G01*
X112318750Y-84962500D01*
G75*
G02*
X112075000Y-84718750I0J243750D01*
G01*
X112075000Y-84231250D01*
G75*
G02*
X112318750Y-83987500I243750J0D01*
G01*
G37*
G36*
G01*
X112318750Y-82412500D02*
X112881250Y-82412500D01*
G75*
G02*
X113125000Y-82656250I0J-243750D01*
G01*
X113125000Y-83143750D01*
G75*
G02*
X112881250Y-83387500I-243750J0D01*
G01*
X112318750Y-83387500D01*
G75*
G02*
X112075000Y-83143750I0J243750D01*
G01*
X112075000Y-82656250D01*
G75*
G02*
X112318750Y-82412500I243750J0D01*
G01*
G37*
%TD*%
D23*
%TO.C,Y1*%
X133900000Y-74900000D03*
X133900000Y-71200000D03*
%TD*%
%TO.C,C1*%
G36*
G01*
X135262500Y-68818750D02*
X135262500Y-69381250D01*
G75*
G02*
X135018750Y-69625000I-243750J0D01*
G01*
X134531250Y-69625000D01*
G75*
G02*
X134287500Y-69381250I0J243750D01*
G01*
X134287500Y-68818750D01*
G75*
G02*
X134531250Y-68575000I243750J0D01*
G01*
X135018750Y-68575000D01*
G75*
G02*
X135262500Y-68818750I0J-243750D01*
G01*
G37*
G36*
G01*
X133687500Y-68818750D02*
X133687500Y-69381250D01*
G75*
G02*
X133443750Y-69625000I-243750J0D01*
G01*
X132956250Y-69625000D01*
G75*
G02*
X132712500Y-69381250I0J243750D01*
G01*
X132712500Y-68818750D01*
G75*
G02*
X132956250Y-68575000I243750J0D01*
G01*
X133443750Y-68575000D01*
G75*
G02*
X133687500Y-68818750I0J-243750D01*
G01*
G37*
%TD*%
%TO.C,C2*%
G36*
G01*
X133712500Y-76818750D02*
X133712500Y-77381250D01*
G75*
G02*
X133468750Y-77625000I-243750J0D01*
G01*
X132981250Y-77625000D01*
G75*
G02*
X132737500Y-77381250I0J243750D01*
G01*
X132737500Y-76818750D01*
G75*
G02*
X132981250Y-76575000I243750J0D01*
G01*
X133468750Y-76575000D01*
G75*
G02*
X133712500Y-76818750I0J-243750D01*
G01*
G37*
G36*
G01*
X135287500Y-76818750D02*
X135287500Y-77381250D01*
G75*
G02*
X135043750Y-77625000I-243750J0D01*
G01*
X134556250Y-77625000D01*
G75*
G02*
X134312500Y-77381250I0J243750D01*
G01*
X134312500Y-76818750D01*
G75*
G02*
X134556250Y-76575000I243750J0D01*
G01*
X135043750Y-76575000D01*
G75*
G02*
X135287500Y-76818750I0J-243750D01*
G01*
G37*
%TD*%
%TO.C,C3*%
G36*
G01*
X135962500Y-62518750D02*
X135962500Y-63081250D01*
G75*
G02*
X135718750Y-63325000I-243750J0D01*
G01*
X135231250Y-63325000D01*
G75*
G02*
X134987500Y-63081250I0J243750D01*
G01*
X134987500Y-62518750D01*
G75*
G02*
X135231250Y-62275000I243750J0D01*
G01*
X135718750Y-62275000D01*
G75*
G02*
X135962500Y-62518750I0J-243750D01*
G01*
G37*
G36*
G01*
X134387500Y-62518750D02*
X134387500Y-63081250D01*
G75*
G02*
X134143750Y-63325000I-243750J0D01*
G01*
X133656250Y-63325000D01*
G75*
G02*
X133412500Y-63081250I0J243750D01*
G01*
X133412500Y-62518750D01*
G75*
G02*
X133656250Y-62275000I243750J0D01*
G01*
X134143750Y-62275000D01*
G75*
G02*
X134387500Y-62518750I0J-243750D01*
G01*
G37*
%TD*%
%TO.C,C4*%
G36*
G01*
X133712500Y-66818750D02*
X133712500Y-67381250D01*
G75*
G02*
X133468750Y-67625000I-243750J0D01*
G01*
X132981250Y-67625000D01*
G75*
G02*
X132737500Y-67381250I0J243750D01*
G01*
X132737500Y-66818750D01*
G75*
G02*
X132981250Y-66575000I243750J0D01*
G01*
X133468750Y-66575000D01*
G75*
G02*
X133712500Y-66818750I0J-243750D01*
G01*
G37*
G36*
G01*
X135287500Y-66818750D02*
X135287500Y-67381250D01*
G75*
G02*
X135043750Y-67625000I-243750J0D01*
G01*
X134556250Y-67625000D01*
G75*
G02*
X134312500Y-67381250I0J243750D01*
G01*
X134312500Y-66818750D01*
G75*
G02*
X134556250Y-66575000I243750J0D01*
G01*
X135043750Y-66575000D01*
G75*
G02*
X135287500Y-66818750I0J-243750D01*
G01*
G37*
%TD*%
%TO.C,C5*%
G36*
G01*
X143162500Y-53418750D02*
X143162500Y-53981250D01*
G75*
G02*
X142918750Y-54225000I-243750J0D01*
G01*
X142431250Y-54225000D01*
G75*
G02*
X142187500Y-53981250I0J243750D01*
G01*
X142187500Y-53418750D01*
G75*
G02*
X142431250Y-53175000I243750J0D01*
G01*
X142918750Y-53175000D01*
G75*
G02*
X143162500Y-53418750I0J-243750D01*
G01*
G37*
G36*
G01*
X141587500Y-53418750D02*
X141587500Y-53981250D01*
G75*
G02*
X141343750Y-54225000I-243750J0D01*
G01*
X140856250Y-54225000D01*
G75*
G02*
X140612500Y-53981250I0J243750D01*
G01*
X140612500Y-53418750D01*
G75*
G02*
X140856250Y-53175000I243750J0D01*
G01*
X141343750Y-53175000D01*
G75*
G02*
X141587500Y-53418750I0J-243750D01*
G01*
G37*
%TD*%
%TO.C,C6*%
G36*
G01*
X154418750Y-57400000D02*
X154981250Y-57400000D01*
G75*
G02*
X155225000Y-57643750I0J-243750D01*
G01*
X155225000Y-58131250D01*
G75*
G02*
X154981250Y-58375000I-243750J0D01*
G01*
X154418750Y-58375000D01*
G75*
G02*
X154175000Y-58131250I0J243750D01*
G01*
X154175000Y-57643750D01*
G75*
G02*
X154418750Y-57400000I243750J0D01*
G01*
G37*
G36*
G01*
X154418750Y-55825000D02*
X154981250Y-55825000D01*
G75*
G02*
X155225000Y-56068750I0J-243750D01*
G01*
X155225000Y-56556250D01*
G75*
G02*
X154981250Y-56800000I-243750J0D01*
G01*
X154418750Y-56800000D01*
G75*
G02*
X154175000Y-56556250I0J243750D01*
G01*
X154175000Y-56068750D01*
G75*
G02*
X154418750Y-55825000I243750J0D01*
G01*
G37*
%TD*%
%TO.C,C7*%
G36*
G01*
X148337500Y-76981250D02*
X148337500Y-76418750D01*
G75*
G02*
X148581250Y-76175000I243750J0D01*
G01*
X149068750Y-76175000D01*
G75*
G02*
X149312500Y-76418750I0J-243750D01*
G01*
X149312500Y-76981250D01*
G75*
G02*
X149068750Y-77225000I-243750J0D01*
G01*
X148581250Y-77225000D01*
G75*
G02*
X148337500Y-76981250I0J243750D01*
G01*
G37*
G36*
G01*
X149912500Y-76981250D02*
X149912500Y-76418750D01*
G75*
G02*
X150156250Y-76175000I243750J0D01*
G01*
X150643750Y-76175000D01*
G75*
G02*
X150887500Y-76418750I0J-243750D01*
G01*
X150887500Y-76981250D01*
G75*
G02*
X150643750Y-77225000I-243750J0D01*
G01*
X150156250Y-77225000D01*
G75*
G02*
X149912500Y-76981250I0J243750D01*
G01*
G37*
%TD*%
%TO.C,C8*%
G36*
G01*
X140281250Y-74387500D02*
X139718750Y-74387500D01*
G75*
G02*
X139475000Y-74143750I0J243750D01*
G01*
X139475000Y-73656250D01*
G75*
G02*
X139718750Y-73412500I243750J0D01*
G01*
X140281250Y-73412500D01*
G75*
G02*
X140525000Y-73656250I0J-243750D01*
G01*
X140525000Y-74143750D01*
G75*
G02*
X140281250Y-74387500I-243750J0D01*
G01*
G37*
G36*
G01*
X140281250Y-75962500D02*
X139718750Y-75962500D01*
G75*
G02*
X139475000Y-75718750I0J243750D01*
G01*
X139475000Y-75231250D01*
G75*
G02*
X139718750Y-74987500I243750J0D01*
G01*
X140281250Y-74987500D01*
G75*
G02*
X140525000Y-75231250I0J-243750D01*
G01*
X140525000Y-75718750D01*
G75*
G02*
X140281250Y-75962500I-243750J0D01*
G01*
G37*
%TD*%
%TO.C,C9*%
G36*
G01*
X150918750Y-60612500D02*
X151481250Y-60612500D01*
G75*
G02*
X151725000Y-60856250I0J-243750D01*
G01*
X151725000Y-61343750D01*
G75*
G02*
X151481250Y-61587500I-243750J0D01*
G01*
X150918750Y-61587500D01*
G75*
G02*
X150675000Y-61343750I0J243750D01*
G01*
X150675000Y-60856250D01*
G75*
G02*
X150918750Y-60612500I243750J0D01*
G01*
G37*
G36*
G01*
X150918750Y-62187500D02*
X151481250Y-62187500D01*
G75*
G02*
X151725000Y-62431250I0J-243750D01*
G01*
X151725000Y-62918750D01*
G75*
G02*
X151481250Y-63162500I-243750J0D01*
G01*
X150918750Y-63162500D01*
G75*
G02*
X150675000Y-62918750I0J243750D01*
G01*
X150675000Y-62431250D01*
G75*
G02*
X150918750Y-62187500I243750J0D01*
G01*
G37*
%TD*%
%TO.C,C10*%
G36*
G01*
X154281250Y-64100000D02*
X153718750Y-64100000D01*
G75*
G02*
X153475000Y-63856250I0J243750D01*
G01*
X153475000Y-63368750D01*
G75*
G02*
X153718750Y-63125000I243750J0D01*
G01*
X154281250Y-63125000D01*
G75*
G02*
X154525000Y-63368750I0J-243750D01*
G01*
X154525000Y-63856250D01*
G75*
G02*
X154281250Y-64100000I-243750J0D01*
G01*
G37*
G36*
G01*
X154281250Y-65675000D02*
X153718750Y-65675000D01*
G75*
G02*
X153475000Y-65431250I0J243750D01*
G01*
X153475000Y-64943750D01*
G75*
G02*
X153718750Y-64700000I243750J0D01*
G01*
X154281250Y-64700000D01*
G75*
G02*
X154525000Y-64943750I0J-243750D01*
G01*
X154525000Y-65431250D01*
G75*
G02*
X154281250Y-65675000I-243750J0D01*
G01*
G37*
%TD*%
%TO.C,C11*%
G36*
G01*
X169637500Y-53381250D02*
X169637500Y-52818750D01*
G75*
G02*
X169881250Y-52575000I243750J0D01*
G01*
X170368750Y-52575000D01*
G75*
G02*
X170612500Y-52818750I0J-243750D01*
G01*
X170612500Y-53381250D01*
G75*
G02*
X170368750Y-53625000I-243750J0D01*
G01*
X169881250Y-53625000D01*
G75*
G02*
X169637500Y-53381250I0J243750D01*
G01*
G37*
G36*
G01*
X171212500Y-53381250D02*
X171212500Y-52818750D01*
G75*
G02*
X171456250Y-52575000I243750J0D01*
G01*
X171943750Y-52575000D01*
G75*
G02*
X172187500Y-52818750I0J-243750D01*
G01*
X172187500Y-53381250D01*
G75*
G02*
X171943750Y-53625000I-243750J0D01*
G01*
X171456250Y-53625000D01*
G75*
G02*
X171212500Y-53381250I0J243750D01*
G01*
G37*
%TD*%
%TO.C,C12*%
G36*
G01*
X173887500Y-52818750D02*
X173887500Y-53381250D01*
G75*
G02*
X173643750Y-53625000I-243750J0D01*
G01*
X173156250Y-53625000D01*
G75*
G02*
X172912500Y-53381250I0J243750D01*
G01*
X172912500Y-52818750D01*
G75*
G02*
X173156250Y-52575000I243750J0D01*
G01*
X173643750Y-52575000D01*
G75*
G02*
X173887500Y-52818750I0J-243750D01*
G01*
G37*
G36*
G01*
X175462500Y-52818750D02*
X175462500Y-53381250D01*
G75*
G02*
X175218750Y-53625000I-243750J0D01*
G01*
X174731250Y-53625000D01*
G75*
G02*
X174487500Y-53381250I0J243750D01*
G01*
X174487500Y-52818750D01*
G75*
G02*
X174731250Y-52575000I243750J0D01*
G01*
X175218750Y-52575000D01*
G75*
G02*
X175462500Y-52818750I0J-243750D01*
G01*
G37*
%TD*%
D24*
%TO.C,D1*%
X166900000Y-50600000D03*
X162900000Y-50600000D03*
%TD*%
D25*
%TO.C,J1*%
X145600000Y-55800000D03*
X144300000Y-55800000D03*
X143000000Y-55800000D03*
%TD*%
D26*
%TO.C,J2*%
X104900000Y-93900000D03*
D27*
X107440000Y-93900000D03*
X109980000Y-93900000D03*
X112520000Y-93900000D03*
X115060000Y-93900000D03*
X117600000Y-93900000D03*
X120140000Y-93900000D03*
%TD*%
%TO.C,J3*%
G36*
G01*
X173760294Y-92700000D02*
X172239706Y-92700000D01*
G75*
G02*
X171975000Y-92435294I0J264706D01*
G01*
X171975000Y-91164706D01*
G75*
G02*
X172239706Y-90900000I264706J0D01*
G01*
X173760294Y-90900000D01*
G75*
G02*
X174025000Y-91164706I0J-264706D01*
G01*
X174025000Y-92435294D01*
G75*
G02*
X173760294Y-92700000I-264706J0D01*
G01*
G37*
D28*
X173000000Y-89300000D03*
X173000000Y-86800000D03*
%TD*%
%TO.C,J4*%
X173000000Y-75200000D03*
X173000000Y-77700000D03*
G36*
G01*
X173760294Y-81100000D02*
X172239706Y-81100000D01*
G75*
G02*
X171975000Y-80835294I0J264706D01*
G01*
X171975000Y-79564706D01*
G75*
G02*
X172239706Y-79300000I264706J0D01*
G01*
X173760294Y-79300000D01*
G75*
G02*
X174025000Y-79564706I0J-264706D01*
G01*
X174025000Y-80835294D01*
G75*
G02*
X173760294Y-81100000I-264706J0D01*
G01*
G37*
%TD*%
D29*
%TO.C,J5*%
X168400000Y-43062500D03*
D30*
X171900000Y-45762500D03*
D31*
X170050000Y-45762500D03*
X170700000Y-45762500D03*
X168100000Y-45762500D03*
X168750000Y-45762500D03*
X169400000Y-45762500D03*
D30*
X166900000Y-45762500D03*
D29*
X170400000Y-43062500D03*
D32*
X172900000Y-43062500D03*
X165900000Y-43062500D03*
D33*
X166500000Y-43062500D03*
X172300000Y-43062500D03*
%TD*%
D34*
%TO.C,J6*%
X142300000Y-87150000D03*
X142300000Y-92200000D03*
X139760000Y-87150000D03*
X139760000Y-92200000D03*
X137220000Y-87150000D03*
X137220000Y-92200000D03*
X134680000Y-87150000D03*
X134680000Y-92200000D03*
X132140000Y-87150000D03*
X132140000Y-92200000D03*
%TD*%
D28*
%TO.C,J7*%
X161100000Y-69400000D03*
X161100000Y-66900000D03*
X161100000Y-64400000D03*
G36*
G01*
X160339706Y-61000000D02*
X161860294Y-61000000D01*
G75*
G02*
X162125000Y-61264706I0J-264706D01*
G01*
X162125000Y-62535294D01*
G75*
G02*
X161860294Y-62800000I-264706J0D01*
G01*
X160339706Y-62800000D01*
G75*
G02*
X160075000Y-62535294I0J264706D01*
G01*
X160075000Y-61264706D01*
G75*
G02*
X160339706Y-61000000I264706J0D01*
G01*
G37*
%TD*%
%TO.C,J8*%
G36*
G01*
X127260294Y-94200000D02*
X125739706Y-94200000D01*
G75*
G02*
X125475000Y-93935294I0J264706D01*
G01*
X125475000Y-92664706D01*
G75*
G02*
X125739706Y-92400000I264706J0D01*
G01*
X127260294Y-92400000D01*
G75*
G02*
X127525000Y-92664706I0J-264706D01*
G01*
X127525000Y-93935294D01*
G75*
G02*
X127260294Y-94200000I-264706J0D01*
G01*
G37*
X126500000Y-90800000D03*
X126500000Y-88300000D03*
X126500000Y-85800000D03*
%TD*%
D35*
%TO.C,J9*%
X140400000Y-44700000D03*
X137400000Y-44700000D03*
X134400000Y-44700000D03*
X131400000Y-44700000D03*
%TD*%
D36*
%TO.C,J10*%
X173600000Y-66800000D03*
X173600000Y-63800000D03*
X173600000Y-60800000D03*
X173600000Y-57800000D03*
%TD*%
D34*
%TO.C,J11*%
X147440000Y-92300000D03*
X147440000Y-87250000D03*
X149980000Y-92300000D03*
X149980000Y-87250000D03*
X152520000Y-92300000D03*
X152520000Y-87250000D03*
X155060000Y-92300000D03*
X155060000Y-87250000D03*
X157600000Y-92300000D03*
X157600000Y-87250000D03*
%TD*%
D37*
%TO.C,J12*%
X160525000Y-81540000D03*
X155475000Y-81540000D03*
X160525000Y-79000000D03*
X155475000Y-79000000D03*
X160525000Y-76460000D03*
X155475000Y-76460000D03*
%TD*%
%TO.C,R1*%
G36*
G01*
X114387500Y-89718750D02*
X114387500Y-90281250D01*
G75*
G02*
X114143750Y-90525000I-243750J0D01*
G01*
X113656250Y-90525000D01*
G75*
G02*
X113412500Y-90281250I0J243750D01*
G01*
X113412500Y-89718750D01*
G75*
G02*
X113656250Y-89475000I243750J0D01*
G01*
X114143750Y-89475000D01*
G75*
G02*
X114387500Y-89718750I0J-243750D01*
G01*
G37*
G36*
G01*
X115962500Y-89718750D02*
X115962500Y-90281250D01*
G75*
G02*
X115718750Y-90525000I-243750J0D01*
G01*
X115231250Y-90525000D01*
G75*
G02*
X114987500Y-90281250I0J243750D01*
G01*
X114987500Y-89718750D01*
G75*
G02*
X115231250Y-89475000I243750J0D01*
G01*
X115718750Y-89475000D01*
G75*
G02*
X115962500Y-89718750I0J-243750D01*
G01*
G37*
%TD*%
%TO.C,R2*%
G36*
G01*
X112587500Y-89718750D02*
X112587500Y-90281250D01*
G75*
G02*
X112343750Y-90525000I-243750J0D01*
G01*
X111856250Y-90525000D01*
G75*
G02*
X111612500Y-90281250I0J243750D01*
G01*
X111612500Y-89718750D01*
G75*
G02*
X111856250Y-89475000I243750J0D01*
G01*
X112343750Y-89475000D01*
G75*
G02*
X112587500Y-89718750I0J-243750D01*
G01*
G37*
G36*
G01*
X111012500Y-89718750D02*
X111012500Y-90281250D01*
G75*
G02*
X110768750Y-90525000I-243750J0D01*
G01*
X110281250Y-90525000D01*
G75*
G02*
X110037500Y-90281250I0J243750D01*
G01*
X110037500Y-89718750D01*
G75*
G02*
X110281250Y-89475000I243750J0D01*
G01*
X110768750Y-89475000D01*
G75*
G02*
X111012500Y-89718750I0J-243750D01*
G01*
G37*
%TD*%
%TO.C,R3*%
G36*
G01*
X145312500Y-53981250D02*
X145312500Y-53418750D01*
G75*
G02*
X145556250Y-53175000I243750J0D01*
G01*
X146043750Y-53175000D01*
G75*
G02*
X146287500Y-53418750I0J-243750D01*
G01*
X146287500Y-53981250D01*
G75*
G02*
X146043750Y-54225000I-243750J0D01*
G01*
X145556250Y-54225000D01*
G75*
G02*
X145312500Y-53981250I0J243750D01*
G01*
G37*
G36*
G01*
X143737500Y-53981250D02*
X143737500Y-53418750D01*
G75*
G02*
X143981250Y-53175000I243750J0D01*
G01*
X144468750Y-53175000D01*
G75*
G02*
X144712500Y-53418750I0J-243750D01*
G01*
X144712500Y-53981250D01*
G75*
G02*
X144468750Y-54225000I-243750J0D01*
G01*
X143981250Y-54225000D01*
G75*
G02*
X143737500Y-53981250I0J243750D01*
G01*
G37*
%TD*%
%TO.C,R4*%
G36*
G01*
X168718750Y-64937500D02*
X169281250Y-64937500D01*
G75*
G02*
X169525000Y-65181250I0J-243750D01*
G01*
X169525000Y-65668750D01*
G75*
G02*
X169281250Y-65912500I-243750J0D01*
G01*
X168718750Y-65912500D01*
G75*
G02*
X168475000Y-65668750I0J243750D01*
G01*
X168475000Y-65181250D01*
G75*
G02*
X168718750Y-64937500I243750J0D01*
G01*
G37*
G36*
G01*
X168718750Y-66512500D02*
X169281250Y-66512500D01*
G75*
G02*
X169525000Y-66756250I0J-243750D01*
G01*
X169525000Y-67243750D01*
G75*
G02*
X169281250Y-67487500I-243750J0D01*
G01*
X168718750Y-67487500D01*
G75*
G02*
X168475000Y-67243750I0J243750D01*
G01*
X168475000Y-66756250D01*
G75*
G02*
X168718750Y-66512500I243750J0D01*
G01*
G37*
%TD*%
%TO.C,R5*%
G36*
G01*
X170881250Y-50087500D02*
X170318750Y-50087500D01*
G75*
G02*
X170075000Y-49843750I0J243750D01*
G01*
X170075000Y-49356250D01*
G75*
G02*
X170318750Y-49112500I243750J0D01*
G01*
X170881250Y-49112500D01*
G75*
G02*
X171125000Y-49356250I0J-243750D01*
G01*
X171125000Y-49843750D01*
G75*
G02*
X170881250Y-50087500I-243750J0D01*
G01*
G37*
G36*
G01*
X170881250Y-51662500D02*
X170318750Y-51662500D01*
G75*
G02*
X170075000Y-51418750I0J243750D01*
G01*
X170075000Y-50931250D01*
G75*
G02*
X170318750Y-50687500I243750J0D01*
G01*
X170881250Y-50687500D01*
G75*
G02*
X171125000Y-50931250I0J-243750D01*
G01*
X171125000Y-51418750D01*
G75*
G02*
X170881250Y-51662500I-243750J0D01*
G01*
G37*
%TD*%
%TO.C,R6*%
G36*
G01*
X168718750Y-61412500D02*
X169281250Y-61412500D01*
G75*
G02*
X169525000Y-61656250I0J-243750D01*
G01*
X169525000Y-62143750D01*
G75*
G02*
X169281250Y-62387500I-243750J0D01*
G01*
X168718750Y-62387500D01*
G75*
G02*
X168475000Y-62143750I0J243750D01*
G01*
X168475000Y-61656250D01*
G75*
G02*
X168718750Y-61412500I243750J0D01*
G01*
G37*
G36*
G01*
X168718750Y-62987500D02*
X169281250Y-62987500D01*
G75*
G02*
X169525000Y-63231250I0J-243750D01*
G01*
X169525000Y-63718750D01*
G75*
G02*
X169281250Y-63962500I-243750J0D01*
G01*
X168718750Y-63962500D01*
G75*
G02*
X168475000Y-63718750I0J243750D01*
G01*
X168475000Y-63231250D01*
G75*
G02*
X168718750Y-62987500I243750J0D01*
G01*
G37*
%TD*%
D38*
%TO.C,SW1*%
X147500000Y-55250000D03*
X153300000Y-55250000D03*
X147500000Y-58950000D03*
X153300000Y-58950000D03*
%TD*%
D39*
%TO.C,U2*%
X166000000Y-87950000D03*
X166000000Y-88900000D03*
X166000000Y-89850000D03*
X168200000Y-89850000D03*
X168200000Y-87950000D03*
X168200000Y-88900000D03*
%TD*%
%TO.C,U3*%
X168200000Y-77400000D03*
X168200000Y-76450000D03*
X168200000Y-78350000D03*
X166000000Y-78350000D03*
X166000000Y-77400000D03*
X166000000Y-76450000D03*
%TD*%
%TO.C,U4*%
X172400000Y-49350000D03*
X172400000Y-50300000D03*
X172400000Y-51250000D03*
X174600000Y-51250000D03*
X174600000Y-49350000D03*
%TD*%
D40*
%TO.C,Y2*%
X135600000Y-65700000D03*
X135600000Y-64300000D03*
%TD*%
%TO.C,U1*%
G36*
G01*
X138500000Y-64150000D02*
X138500000Y-63950000D01*
G75*
G02*
X138600000Y-63850000I100000J0D01*
G01*
X140050000Y-63850000D01*
G75*
G02*
X140150000Y-63950000I0J-100000D01*
G01*
X140150000Y-64150000D01*
G75*
G02*
X140050000Y-64250000I-100000J0D01*
G01*
X138600000Y-64250000D01*
G75*
G02*
X138500000Y-64150000I0J100000D01*
G01*
G37*
G36*
G01*
X138500000Y-64650000D02*
X138500000Y-64450000D01*
G75*
G02*
X138600000Y-64350000I100000J0D01*
G01*
X140050000Y-64350000D01*
G75*
G02*
X140150000Y-64450000I0J-100000D01*
G01*
X140150000Y-64650000D01*
G75*
G02*
X140050000Y-64750000I-100000J0D01*
G01*
X138600000Y-64750000D01*
G75*
G02*
X138500000Y-64650000I0J100000D01*
G01*
G37*
G36*
G01*
X138500000Y-65150000D02*
X138500000Y-64950000D01*
G75*
G02*
X138600000Y-64850000I100000J0D01*
G01*
X140050000Y-64850000D01*
G75*
G02*
X140150000Y-64950000I0J-100000D01*
G01*
X140150000Y-65150000D01*
G75*
G02*
X140050000Y-65250000I-100000J0D01*
G01*
X138600000Y-65250000D01*
G75*
G02*
X138500000Y-65150000I0J100000D01*
G01*
G37*
G36*
G01*
X138500000Y-65650000D02*
X138500000Y-65450000D01*
G75*
G02*
X138600000Y-65350000I100000J0D01*
G01*
X140050000Y-65350000D01*
G75*
G02*
X140150000Y-65450000I0J-100000D01*
G01*
X140150000Y-65650000D01*
G75*
G02*
X140050000Y-65750000I-100000J0D01*
G01*
X138600000Y-65750000D01*
G75*
G02*
X138500000Y-65650000I0J100000D01*
G01*
G37*
G36*
G01*
X138500000Y-66150000D02*
X138500000Y-65950000D01*
G75*
G02*
X138600000Y-65850000I100000J0D01*
G01*
X140050000Y-65850000D01*
G75*
G02*
X140150000Y-65950000I0J-100000D01*
G01*
X140150000Y-66150000D01*
G75*
G02*
X140050000Y-66250000I-100000J0D01*
G01*
X138600000Y-66250000D01*
G75*
G02*
X138500000Y-66150000I0J100000D01*
G01*
G37*
G36*
G01*
X138500000Y-66650000D02*
X138500000Y-66450000D01*
G75*
G02*
X138600000Y-66350000I100000J0D01*
G01*
X140050000Y-66350000D01*
G75*
G02*
X140150000Y-66450000I0J-100000D01*
G01*
X140150000Y-66650000D01*
G75*
G02*
X140050000Y-66750000I-100000J0D01*
G01*
X138600000Y-66750000D01*
G75*
G02*
X138500000Y-66650000I0J100000D01*
G01*
G37*
G36*
G01*
X138500000Y-67150000D02*
X138500000Y-66950000D01*
G75*
G02*
X138600000Y-66850000I100000J0D01*
G01*
X140050000Y-66850000D01*
G75*
G02*
X140150000Y-66950000I0J-100000D01*
G01*
X140150000Y-67150000D01*
G75*
G02*
X140050000Y-67250000I-100000J0D01*
G01*
X138600000Y-67250000D01*
G75*
G02*
X138500000Y-67150000I0J100000D01*
G01*
G37*
G36*
G01*
X138500000Y-67650000D02*
X138500000Y-67450000D01*
G75*
G02*
X138600000Y-67350000I100000J0D01*
G01*
X140050000Y-67350000D01*
G75*
G02*
X140150000Y-67450000I0J-100000D01*
G01*
X140150000Y-67650000D01*
G75*
G02*
X140050000Y-67750000I-100000J0D01*
G01*
X138600000Y-67750000D01*
G75*
G02*
X138500000Y-67650000I0J100000D01*
G01*
G37*
G36*
G01*
X138500000Y-68150000D02*
X138500000Y-67950000D01*
G75*
G02*
X138600000Y-67850000I100000J0D01*
G01*
X140050000Y-67850000D01*
G75*
G02*
X140150000Y-67950000I0J-100000D01*
G01*
X140150000Y-68150000D01*
G75*
G02*
X140050000Y-68250000I-100000J0D01*
G01*
X138600000Y-68250000D01*
G75*
G02*
X138500000Y-68150000I0J100000D01*
G01*
G37*
G36*
G01*
X138500000Y-68650000D02*
X138500000Y-68450000D01*
G75*
G02*
X138600000Y-68350000I100000J0D01*
G01*
X140050000Y-68350000D01*
G75*
G02*
X140150000Y-68450000I0J-100000D01*
G01*
X140150000Y-68650000D01*
G75*
G02*
X140050000Y-68750000I-100000J0D01*
G01*
X138600000Y-68750000D01*
G75*
G02*
X138500000Y-68650000I0J100000D01*
G01*
G37*
G36*
G01*
X138500000Y-69150000D02*
X138500000Y-68950000D01*
G75*
G02*
X138600000Y-68850000I100000J0D01*
G01*
X140050000Y-68850000D01*
G75*
G02*
X140150000Y-68950000I0J-100000D01*
G01*
X140150000Y-69150000D01*
G75*
G02*
X140050000Y-69250000I-100000J0D01*
G01*
X138600000Y-69250000D01*
G75*
G02*
X138500000Y-69150000I0J100000D01*
G01*
G37*
G36*
G01*
X138500000Y-69650000D02*
X138500000Y-69450000D01*
G75*
G02*
X138600000Y-69350000I100000J0D01*
G01*
X140050000Y-69350000D01*
G75*
G02*
X140150000Y-69450000I0J-100000D01*
G01*
X140150000Y-69650000D01*
G75*
G02*
X140050000Y-69750000I-100000J0D01*
G01*
X138600000Y-69750000D01*
G75*
G02*
X138500000Y-69650000I0J100000D01*
G01*
G37*
G36*
G01*
X138500000Y-70150000D02*
X138500000Y-69950000D01*
G75*
G02*
X138600000Y-69850000I100000J0D01*
G01*
X140050000Y-69850000D01*
G75*
G02*
X140150000Y-69950000I0J-100000D01*
G01*
X140150000Y-70150000D01*
G75*
G02*
X140050000Y-70250000I-100000J0D01*
G01*
X138600000Y-70250000D01*
G75*
G02*
X138500000Y-70150000I0J100000D01*
G01*
G37*
G36*
G01*
X138500000Y-70650000D02*
X138500000Y-70450000D01*
G75*
G02*
X138600000Y-70350000I100000J0D01*
G01*
X140050000Y-70350000D01*
G75*
G02*
X140150000Y-70450000I0J-100000D01*
G01*
X140150000Y-70650000D01*
G75*
G02*
X140050000Y-70750000I-100000J0D01*
G01*
X138600000Y-70750000D01*
G75*
G02*
X138500000Y-70650000I0J100000D01*
G01*
G37*
G36*
G01*
X138500000Y-71150000D02*
X138500000Y-70950000D01*
G75*
G02*
X138600000Y-70850000I100000J0D01*
G01*
X140050000Y-70850000D01*
G75*
G02*
X140150000Y-70950000I0J-100000D01*
G01*
X140150000Y-71150000D01*
G75*
G02*
X140050000Y-71250000I-100000J0D01*
G01*
X138600000Y-71250000D01*
G75*
G02*
X138500000Y-71150000I0J100000D01*
G01*
G37*
G36*
G01*
X138500000Y-71650000D02*
X138500000Y-71450000D01*
G75*
G02*
X138600000Y-71350000I100000J0D01*
G01*
X140050000Y-71350000D01*
G75*
G02*
X140150000Y-71450000I0J-100000D01*
G01*
X140150000Y-71650000D01*
G75*
G02*
X140050000Y-71750000I-100000J0D01*
G01*
X138600000Y-71750000D01*
G75*
G02*
X138500000Y-71650000I0J100000D01*
G01*
G37*
G36*
G01*
X141050000Y-74200000D02*
X141050000Y-72750000D01*
G75*
G02*
X141150000Y-72650000I100000J0D01*
G01*
X141350000Y-72650000D01*
G75*
G02*
X141450000Y-72750000I0J-100000D01*
G01*
X141450000Y-74200000D01*
G75*
G02*
X141350000Y-74300000I-100000J0D01*
G01*
X141150000Y-74300000D01*
G75*
G02*
X141050000Y-74200000I0J100000D01*
G01*
G37*
G36*
G01*
X141550000Y-74200000D02*
X141550000Y-72750000D01*
G75*
G02*
X141650000Y-72650000I100000J0D01*
G01*
X141850000Y-72650000D01*
G75*
G02*
X141950000Y-72750000I0J-100000D01*
G01*
X141950000Y-74200000D01*
G75*
G02*
X141850000Y-74300000I-100000J0D01*
G01*
X141650000Y-74300000D01*
G75*
G02*
X141550000Y-74200000I0J100000D01*
G01*
G37*
G36*
G01*
X142050000Y-74200000D02*
X142050000Y-72750000D01*
G75*
G02*
X142150000Y-72650000I100000J0D01*
G01*
X142350000Y-72650000D01*
G75*
G02*
X142450000Y-72750000I0J-100000D01*
G01*
X142450000Y-74200000D01*
G75*
G02*
X142350000Y-74300000I-100000J0D01*
G01*
X142150000Y-74300000D01*
G75*
G02*
X142050000Y-74200000I0J100000D01*
G01*
G37*
G36*
G01*
X142550000Y-74200000D02*
X142550000Y-72750000D01*
G75*
G02*
X142650000Y-72650000I100000J0D01*
G01*
X142850000Y-72650000D01*
G75*
G02*
X142950000Y-72750000I0J-100000D01*
G01*
X142950000Y-74200000D01*
G75*
G02*
X142850000Y-74300000I-100000J0D01*
G01*
X142650000Y-74300000D01*
G75*
G02*
X142550000Y-74200000I0J100000D01*
G01*
G37*
G36*
G01*
X143050000Y-74200000D02*
X143050000Y-72750000D01*
G75*
G02*
X143150000Y-72650000I100000J0D01*
G01*
X143350000Y-72650000D01*
G75*
G02*
X143450000Y-72750000I0J-100000D01*
G01*
X143450000Y-74200000D01*
G75*
G02*
X143350000Y-74300000I-100000J0D01*
G01*
X143150000Y-74300000D01*
G75*
G02*
X143050000Y-74200000I0J100000D01*
G01*
G37*
G36*
G01*
X143550000Y-74200000D02*
X143550000Y-72750000D01*
G75*
G02*
X143650000Y-72650000I100000J0D01*
G01*
X143850000Y-72650000D01*
G75*
G02*
X143950000Y-72750000I0J-100000D01*
G01*
X143950000Y-74200000D01*
G75*
G02*
X143850000Y-74300000I-100000J0D01*
G01*
X143650000Y-74300000D01*
G75*
G02*
X143550000Y-74200000I0J100000D01*
G01*
G37*
G36*
G01*
X144050000Y-74200000D02*
X144050000Y-72750000D01*
G75*
G02*
X144150000Y-72650000I100000J0D01*
G01*
X144350000Y-72650000D01*
G75*
G02*
X144450000Y-72750000I0J-100000D01*
G01*
X144450000Y-74200000D01*
G75*
G02*
X144350000Y-74300000I-100000J0D01*
G01*
X144150000Y-74300000D01*
G75*
G02*
X144050000Y-74200000I0J100000D01*
G01*
G37*
G36*
G01*
X144550000Y-74200000D02*
X144550000Y-72750000D01*
G75*
G02*
X144650000Y-72650000I100000J0D01*
G01*
X144850000Y-72650000D01*
G75*
G02*
X144950000Y-72750000I0J-100000D01*
G01*
X144950000Y-74200000D01*
G75*
G02*
X144850000Y-74300000I-100000J0D01*
G01*
X144650000Y-74300000D01*
G75*
G02*
X144550000Y-74200000I0J100000D01*
G01*
G37*
G36*
G01*
X145050000Y-74200000D02*
X145050000Y-72750000D01*
G75*
G02*
X145150000Y-72650000I100000J0D01*
G01*
X145350000Y-72650000D01*
G75*
G02*
X145450000Y-72750000I0J-100000D01*
G01*
X145450000Y-74200000D01*
G75*
G02*
X145350000Y-74300000I-100000J0D01*
G01*
X145150000Y-74300000D01*
G75*
G02*
X145050000Y-74200000I0J100000D01*
G01*
G37*
G36*
G01*
X145550000Y-74200000D02*
X145550000Y-72750000D01*
G75*
G02*
X145650000Y-72650000I100000J0D01*
G01*
X145850000Y-72650000D01*
G75*
G02*
X145950000Y-72750000I0J-100000D01*
G01*
X145950000Y-74200000D01*
G75*
G02*
X145850000Y-74300000I-100000J0D01*
G01*
X145650000Y-74300000D01*
G75*
G02*
X145550000Y-74200000I0J100000D01*
G01*
G37*
G36*
G01*
X146050000Y-74200000D02*
X146050000Y-72750000D01*
G75*
G02*
X146150000Y-72650000I100000J0D01*
G01*
X146350000Y-72650000D01*
G75*
G02*
X146450000Y-72750000I0J-100000D01*
G01*
X146450000Y-74200000D01*
G75*
G02*
X146350000Y-74300000I-100000J0D01*
G01*
X146150000Y-74300000D01*
G75*
G02*
X146050000Y-74200000I0J100000D01*
G01*
G37*
G36*
G01*
X146550000Y-74200000D02*
X146550000Y-72750000D01*
G75*
G02*
X146650000Y-72650000I100000J0D01*
G01*
X146850000Y-72650000D01*
G75*
G02*
X146950000Y-72750000I0J-100000D01*
G01*
X146950000Y-74200000D01*
G75*
G02*
X146850000Y-74300000I-100000J0D01*
G01*
X146650000Y-74300000D01*
G75*
G02*
X146550000Y-74200000I0J100000D01*
G01*
G37*
G36*
G01*
X147050000Y-74200000D02*
X147050000Y-72750000D01*
G75*
G02*
X147150000Y-72650000I100000J0D01*
G01*
X147350000Y-72650000D01*
G75*
G02*
X147450000Y-72750000I0J-100000D01*
G01*
X147450000Y-74200000D01*
G75*
G02*
X147350000Y-74300000I-100000J0D01*
G01*
X147150000Y-74300000D01*
G75*
G02*
X147050000Y-74200000I0J100000D01*
G01*
G37*
G36*
G01*
X147550000Y-74200000D02*
X147550000Y-72750000D01*
G75*
G02*
X147650000Y-72650000I100000J0D01*
G01*
X147850000Y-72650000D01*
G75*
G02*
X147950000Y-72750000I0J-100000D01*
G01*
X147950000Y-74200000D01*
G75*
G02*
X147850000Y-74300000I-100000J0D01*
G01*
X147650000Y-74300000D01*
G75*
G02*
X147550000Y-74200000I0J100000D01*
G01*
G37*
G36*
G01*
X148050000Y-74200000D02*
X148050000Y-72750000D01*
G75*
G02*
X148150000Y-72650000I100000J0D01*
G01*
X148350000Y-72650000D01*
G75*
G02*
X148450000Y-72750000I0J-100000D01*
G01*
X148450000Y-74200000D01*
G75*
G02*
X148350000Y-74300000I-100000J0D01*
G01*
X148150000Y-74300000D01*
G75*
G02*
X148050000Y-74200000I0J100000D01*
G01*
G37*
G36*
G01*
X148550000Y-74200000D02*
X148550000Y-72750000D01*
G75*
G02*
X148650000Y-72650000I100000J0D01*
G01*
X148850000Y-72650000D01*
G75*
G02*
X148950000Y-72750000I0J-100000D01*
G01*
X148950000Y-74200000D01*
G75*
G02*
X148850000Y-74300000I-100000J0D01*
G01*
X148650000Y-74300000D01*
G75*
G02*
X148550000Y-74200000I0J100000D01*
G01*
G37*
G36*
G01*
X149850000Y-71650000D02*
X149850000Y-71450000D01*
G75*
G02*
X149950000Y-71350000I100000J0D01*
G01*
X151400000Y-71350000D01*
G75*
G02*
X151500000Y-71450000I0J-100000D01*
G01*
X151500000Y-71650000D01*
G75*
G02*
X151400000Y-71750000I-100000J0D01*
G01*
X149950000Y-71750000D01*
G75*
G02*
X149850000Y-71650000I0J100000D01*
G01*
G37*
G36*
G01*
X149850000Y-71150000D02*
X149850000Y-70950000D01*
G75*
G02*
X149950000Y-70850000I100000J0D01*
G01*
X151400000Y-70850000D01*
G75*
G02*
X151500000Y-70950000I0J-100000D01*
G01*
X151500000Y-71150000D01*
G75*
G02*
X151400000Y-71250000I-100000J0D01*
G01*
X149950000Y-71250000D01*
G75*
G02*
X149850000Y-71150000I0J100000D01*
G01*
G37*
G36*
G01*
X149850000Y-70650000D02*
X149850000Y-70450000D01*
G75*
G02*
X149950000Y-70350000I100000J0D01*
G01*
X151400000Y-70350000D01*
G75*
G02*
X151500000Y-70450000I0J-100000D01*
G01*
X151500000Y-70650000D01*
G75*
G02*
X151400000Y-70750000I-100000J0D01*
G01*
X149950000Y-70750000D01*
G75*
G02*
X149850000Y-70650000I0J100000D01*
G01*
G37*
G36*
G01*
X149850000Y-70150000D02*
X149850000Y-69950000D01*
G75*
G02*
X149950000Y-69850000I100000J0D01*
G01*
X151400000Y-69850000D01*
G75*
G02*
X151500000Y-69950000I0J-100000D01*
G01*
X151500000Y-70150000D01*
G75*
G02*
X151400000Y-70250000I-100000J0D01*
G01*
X149950000Y-70250000D01*
G75*
G02*
X149850000Y-70150000I0J100000D01*
G01*
G37*
G36*
G01*
X149850000Y-69650000D02*
X149850000Y-69450000D01*
G75*
G02*
X149950000Y-69350000I100000J0D01*
G01*
X151400000Y-69350000D01*
G75*
G02*
X151500000Y-69450000I0J-100000D01*
G01*
X151500000Y-69650000D01*
G75*
G02*
X151400000Y-69750000I-100000J0D01*
G01*
X149950000Y-69750000D01*
G75*
G02*
X149850000Y-69650000I0J100000D01*
G01*
G37*
G36*
G01*
X149850000Y-69150000D02*
X149850000Y-68950000D01*
G75*
G02*
X149950000Y-68850000I100000J0D01*
G01*
X151400000Y-68850000D01*
G75*
G02*
X151500000Y-68950000I0J-100000D01*
G01*
X151500000Y-69150000D01*
G75*
G02*
X151400000Y-69250000I-100000J0D01*
G01*
X149950000Y-69250000D01*
G75*
G02*
X149850000Y-69150000I0J100000D01*
G01*
G37*
G36*
G01*
X149850000Y-68650000D02*
X149850000Y-68450000D01*
G75*
G02*
X149950000Y-68350000I100000J0D01*
G01*
X151400000Y-68350000D01*
G75*
G02*
X151500000Y-68450000I0J-100000D01*
G01*
X151500000Y-68650000D01*
G75*
G02*
X151400000Y-68750000I-100000J0D01*
G01*
X149950000Y-68750000D01*
G75*
G02*
X149850000Y-68650000I0J100000D01*
G01*
G37*
G36*
G01*
X149850000Y-68150000D02*
X149850000Y-67950000D01*
G75*
G02*
X149950000Y-67850000I100000J0D01*
G01*
X151400000Y-67850000D01*
G75*
G02*
X151500000Y-67950000I0J-100000D01*
G01*
X151500000Y-68150000D01*
G75*
G02*
X151400000Y-68250000I-100000J0D01*
G01*
X149950000Y-68250000D01*
G75*
G02*
X149850000Y-68150000I0J100000D01*
G01*
G37*
G36*
G01*
X149850000Y-67650000D02*
X149850000Y-67450000D01*
G75*
G02*
X149950000Y-67350000I100000J0D01*
G01*
X151400000Y-67350000D01*
G75*
G02*
X151500000Y-67450000I0J-100000D01*
G01*
X151500000Y-67650000D01*
G75*
G02*
X151400000Y-67750000I-100000J0D01*
G01*
X149950000Y-67750000D01*
G75*
G02*
X149850000Y-67650000I0J100000D01*
G01*
G37*
G36*
G01*
X149850000Y-67150000D02*
X149850000Y-66950000D01*
G75*
G02*
X149950000Y-66850000I100000J0D01*
G01*
X151400000Y-66850000D01*
G75*
G02*
X151500000Y-66950000I0J-100000D01*
G01*
X151500000Y-67150000D01*
G75*
G02*
X151400000Y-67250000I-100000J0D01*
G01*
X149950000Y-67250000D01*
G75*
G02*
X149850000Y-67150000I0J100000D01*
G01*
G37*
G36*
G01*
X149850000Y-66650000D02*
X149850000Y-66450000D01*
G75*
G02*
X149950000Y-66350000I100000J0D01*
G01*
X151400000Y-66350000D01*
G75*
G02*
X151500000Y-66450000I0J-100000D01*
G01*
X151500000Y-66650000D01*
G75*
G02*
X151400000Y-66750000I-100000J0D01*
G01*
X149950000Y-66750000D01*
G75*
G02*
X149850000Y-66650000I0J100000D01*
G01*
G37*
G36*
G01*
X149850000Y-66150000D02*
X149850000Y-65950000D01*
G75*
G02*
X149950000Y-65850000I100000J0D01*
G01*
X151400000Y-65850000D01*
G75*
G02*
X151500000Y-65950000I0J-100000D01*
G01*
X151500000Y-66150000D01*
G75*
G02*
X151400000Y-66250000I-100000J0D01*
G01*
X149950000Y-66250000D01*
G75*
G02*
X149850000Y-66150000I0J100000D01*
G01*
G37*
G36*
G01*
X149850000Y-65650000D02*
X149850000Y-65450000D01*
G75*
G02*
X149950000Y-65350000I100000J0D01*
G01*
X151400000Y-65350000D01*
G75*
G02*
X151500000Y-65450000I0J-100000D01*
G01*
X151500000Y-65650000D01*
G75*
G02*
X151400000Y-65750000I-100000J0D01*
G01*
X149950000Y-65750000D01*
G75*
G02*
X149850000Y-65650000I0J100000D01*
G01*
G37*
G36*
G01*
X149850000Y-65150000D02*
X149850000Y-64950000D01*
G75*
G02*
X149950000Y-64850000I100000J0D01*
G01*
X151400000Y-64850000D01*
G75*
G02*
X151500000Y-64950000I0J-100000D01*
G01*
X151500000Y-65150000D01*
G75*
G02*
X151400000Y-65250000I-100000J0D01*
G01*
X149950000Y-65250000D01*
G75*
G02*
X149850000Y-65150000I0J100000D01*
G01*
G37*
G36*
G01*
X149850000Y-64650000D02*
X149850000Y-64450000D01*
G75*
G02*
X149950000Y-64350000I100000J0D01*
G01*
X151400000Y-64350000D01*
G75*
G02*
X151500000Y-64450000I0J-100000D01*
G01*
X151500000Y-64650000D01*
G75*
G02*
X151400000Y-64750000I-100000J0D01*
G01*
X149950000Y-64750000D01*
G75*
G02*
X149850000Y-64650000I0J100000D01*
G01*
G37*
G36*
G01*
X149850000Y-64150000D02*
X149850000Y-63950000D01*
G75*
G02*
X149950000Y-63850000I100000J0D01*
G01*
X151400000Y-63850000D01*
G75*
G02*
X151500000Y-63950000I0J-100000D01*
G01*
X151500000Y-64150000D01*
G75*
G02*
X151400000Y-64250000I-100000J0D01*
G01*
X149950000Y-64250000D01*
G75*
G02*
X149850000Y-64150000I0J100000D01*
G01*
G37*
G36*
G01*
X148550000Y-62850000D02*
X148550000Y-61400000D01*
G75*
G02*
X148650000Y-61300000I100000J0D01*
G01*
X148850000Y-61300000D01*
G75*
G02*
X148950000Y-61400000I0J-100000D01*
G01*
X148950000Y-62850000D01*
G75*
G02*
X148850000Y-62950000I-100000J0D01*
G01*
X148650000Y-62950000D01*
G75*
G02*
X148550000Y-62850000I0J100000D01*
G01*
G37*
G36*
G01*
X148050000Y-62850000D02*
X148050000Y-61400000D01*
G75*
G02*
X148150000Y-61300000I100000J0D01*
G01*
X148350000Y-61300000D01*
G75*
G02*
X148450000Y-61400000I0J-100000D01*
G01*
X148450000Y-62850000D01*
G75*
G02*
X148350000Y-62950000I-100000J0D01*
G01*
X148150000Y-62950000D01*
G75*
G02*
X148050000Y-62850000I0J100000D01*
G01*
G37*
G36*
G01*
X147550000Y-62850000D02*
X147550000Y-61400000D01*
G75*
G02*
X147650000Y-61300000I100000J0D01*
G01*
X147850000Y-61300000D01*
G75*
G02*
X147950000Y-61400000I0J-100000D01*
G01*
X147950000Y-62850000D01*
G75*
G02*
X147850000Y-62950000I-100000J0D01*
G01*
X147650000Y-62950000D01*
G75*
G02*
X147550000Y-62850000I0J100000D01*
G01*
G37*
G36*
G01*
X147050000Y-62850000D02*
X147050000Y-61400000D01*
G75*
G02*
X147150000Y-61300000I100000J0D01*
G01*
X147350000Y-61300000D01*
G75*
G02*
X147450000Y-61400000I0J-100000D01*
G01*
X147450000Y-62850000D01*
G75*
G02*
X147350000Y-62950000I-100000J0D01*
G01*
X147150000Y-62950000D01*
G75*
G02*
X147050000Y-62850000I0J100000D01*
G01*
G37*
G36*
G01*
X146550000Y-62850000D02*
X146550000Y-61400000D01*
G75*
G02*
X146650000Y-61300000I100000J0D01*
G01*
X146850000Y-61300000D01*
G75*
G02*
X146950000Y-61400000I0J-100000D01*
G01*
X146950000Y-62850000D01*
G75*
G02*
X146850000Y-62950000I-100000J0D01*
G01*
X146650000Y-62950000D01*
G75*
G02*
X146550000Y-62850000I0J100000D01*
G01*
G37*
G36*
G01*
X146050000Y-62850000D02*
X146050000Y-61400000D01*
G75*
G02*
X146150000Y-61300000I100000J0D01*
G01*
X146350000Y-61300000D01*
G75*
G02*
X146450000Y-61400000I0J-100000D01*
G01*
X146450000Y-62850000D01*
G75*
G02*
X146350000Y-62950000I-100000J0D01*
G01*
X146150000Y-62950000D01*
G75*
G02*
X146050000Y-62850000I0J100000D01*
G01*
G37*
G36*
G01*
X145550000Y-62850000D02*
X145550000Y-61400000D01*
G75*
G02*
X145650000Y-61300000I100000J0D01*
G01*
X145850000Y-61300000D01*
G75*
G02*
X145950000Y-61400000I0J-100000D01*
G01*
X145950000Y-62850000D01*
G75*
G02*
X145850000Y-62950000I-100000J0D01*
G01*
X145650000Y-62950000D01*
G75*
G02*
X145550000Y-62850000I0J100000D01*
G01*
G37*
G36*
G01*
X145050000Y-62850000D02*
X145050000Y-61400000D01*
G75*
G02*
X145150000Y-61300000I100000J0D01*
G01*
X145350000Y-61300000D01*
G75*
G02*
X145450000Y-61400000I0J-100000D01*
G01*
X145450000Y-62850000D01*
G75*
G02*
X145350000Y-62950000I-100000J0D01*
G01*
X145150000Y-62950000D01*
G75*
G02*
X145050000Y-62850000I0J100000D01*
G01*
G37*
G36*
G01*
X144550000Y-62850000D02*
X144550000Y-61400000D01*
G75*
G02*
X144650000Y-61300000I100000J0D01*
G01*
X144850000Y-61300000D01*
G75*
G02*
X144950000Y-61400000I0J-100000D01*
G01*
X144950000Y-62850000D01*
G75*
G02*
X144850000Y-62950000I-100000J0D01*
G01*
X144650000Y-62950000D01*
G75*
G02*
X144550000Y-62850000I0J100000D01*
G01*
G37*
G36*
G01*
X144050000Y-62850000D02*
X144050000Y-61400000D01*
G75*
G02*
X144150000Y-61300000I100000J0D01*
G01*
X144350000Y-61300000D01*
G75*
G02*
X144450000Y-61400000I0J-100000D01*
G01*
X144450000Y-62850000D01*
G75*
G02*
X144350000Y-62950000I-100000J0D01*
G01*
X144150000Y-62950000D01*
G75*
G02*
X144050000Y-62850000I0J100000D01*
G01*
G37*
G36*
G01*
X143550000Y-62850000D02*
X143550000Y-61400000D01*
G75*
G02*
X143650000Y-61300000I100000J0D01*
G01*
X143850000Y-61300000D01*
G75*
G02*
X143950000Y-61400000I0J-100000D01*
G01*
X143950000Y-62850000D01*
G75*
G02*
X143850000Y-62950000I-100000J0D01*
G01*
X143650000Y-62950000D01*
G75*
G02*
X143550000Y-62850000I0J100000D01*
G01*
G37*
G36*
G01*
X143050000Y-62850000D02*
X143050000Y-61400000D01*
G75*
G02*
X143150000Y-61300000I100000J0D01*
G01*
X143350000Y-61300000D01*
G75*
G02*
X143450000Y-61400000I0J-100000D01*
G01*
X143450000Y-62850000D01*
G75*
G02*
X143350000Y-62950000I-100000J0D01*
G01*
X143150000Y-62950000D01*
G75*
G02*
X143050000Y-62850000I0J100000D01*
G01*
G37*
G36*
G01*
X142550000Y-62850000D02*
X142550000Y-61400000D01*
G75*
G02*
X142650000Y-61300000I100000J0D01*
G01*
X142850000Y-61300000D01*
G75*
G02*
X142950000Y-61400000I0J-100000D01*
G01*
X142950000Y-62850000D01*
G75*
G02*
X142850000Y-62950000I-100000J0D01*
G01*
X142650000Y-62950000D01*
G75*
G02*
X142550000Y-62850000I0J100000D01*
G01*
G37*
G36*
G01*
X142050000Y-62850000D02*
X142050000Y-61400000D01*
G75*
G02*
X142150000Y-61300000I100000J0D01*
G01*
X142350000Y-61300000D01*
G75*
G02*
X142450000Y-61400000I0J-100000D01*
G01*
X142450000Y-62850000D01*
G75*
G02*
X142350000Y-62950000I-100000J0D01*
G01*
X142150000Y-62950000D01*
G75*
G02*
X142050000Y-62850000I0J100000D01*
G01*
G37*
G36*
G01*
X141550000Y-62850000D02*
X141550000Y-61400000D01*
G75*
G02*
X141650000Y-61300000I100000J0D01*
G01*
X141850000Y-61300000D01*
G75*
G02*
X141950000Y-61400000I0J-100000D01*
G01*
X141950000Y-62850000D01*
G75*
G02*
X141850000Y-62950000I-100000J0D01*
G01*
X141650000Y-62950000D01*
G75*
G02*
X141550000Y-62850000I0J100000D01*
G01*
G37*
G36*
G01*
X141050000Y-62850000D02*
X141050000Y-61400000D01*
G75*
G02*
X141150000Y-61300000I100000J0D01*
G01*
X141350000Y-61300000D01*
G75*
G02*
X141450000Y-61400000I0J-100000D01*
G01*
X141450000Y-62850000D01*
G75*
G02*
X141350000Y-62950000I-100000J0D01*
G01*
X141150000Y-62950000D01*
G75*
G02*
X141050000Y-62850000I0J100000D01*
G01*
G37*
%TD*%
M02*
