%TF.GenerationSoftware,KiCad,Pcbnew,5.1.6-c6e7f7d~86~ubuntu20.04.1*%
%TF.CreationDate,2020-06-03T17:40:23+02:00*%
%TF.ProjectId,FShort,4653686f-7274-42e6-9b69-6361645f7063,rev?*%
%TF.SameCoordinates,Original*%
%TF.FileFunction,Legend,Top*%
%TF.FilePolarity,Positive*%
%FSLAX46Y46*%
G04 Gerber Fmt 4.6, Leading zero omitted, Abs format (unit mm)*
G04 Created by KiCad (PCBNEW 5.1.6-c6e7f7d~86~ubuntu20.04.1) date 2020-06-03 17:40:23*
%MOMM*%
%LPD*%
G01*
G04 APERTURE LIST*
%ADD10C,0.150000*%
%ADD11C,0.120000*%
G04 APERTURE END LIST*
D10*
X164104761Y-69757142D02*
X164152380Y-69614285D01*
X164152380Y-69376190D01*
X164104761Y-69280952D01*
X164057142Y-69233333D01*
X163961904Y-69185714D01*
X163866666Y-69185714D01*
X163771428Y-69233333D01*
X163723809Y-69280952D01*
X163676190Y-69376190D01*
X163628571Y-69566666D01*
X163580952Y-69661904D01*
X163533333Y-69709523D01*
X163438095Y-69757142D01*
X163342857Y-69757142D01*
X163247619Y-69709523D01*
X163200000Y-69661904D01*
X163152380Y-69566666D01*
X163152380Y-69328571D01*
X163200000Y-69185714D01*
X163152380Y-68852380D02*
X164152380Y-68614285D01*
X163438095Y-68423809D01*
X164152380Y-68233333D01*
X163152380Y-67995238D01*
X164152380Y-67614285D02*
X163152380Y-67614285D01*
X163152380Y-67376190D01*
X163200000Y-67233333D01*
X163295238Y-67138095D01*
X163390476Y-67090476D01*
X163580952Y-67042857D01*
X163723809Y-67042857D01*
X163914285Y-67090476D01*
X164009523Y-67138095D01*
X164104761Y-67233333D01*
X164152380Y-67376190D01*
X164152380Y-67614285D01*
X170704761Y-89933333D02*
X170752380Y-89790476D01*
X170752380Y-89552380D01*
X170704761Y-89457142D01*
X170657142Y-89409523D01*
X170561904Y-89361904D01*
X170466666Y-89361904D01*
X170371428Y-89409523D01*
X170323809Y-89457142D01*
X170276190Y-89552380D01*
X170228571Y-89742857D01*
X170180952Y-89838095D01*
X170133333Y-89885714D01*
X170038095Y-89933333D01*
X169942857Y-89933333D01*
X169847619Y-89885714D01*
X169800000Y-89838095D01*
X169752380Y-89742857D01*
X169752380Y-89504761D01*
X169800000Y-89361904D01*
X170752380Y-88933333D02*
X169752380Y-88933333D01*
X169752380Y-88695238D01*
X169800000Y-88552380D01*
X169895238Y-88457142D01*
X169990476Y-88409523D01*
X170180952Y-88361904D01*
X170323809Y-88361904D01*
X170514285Y-88409523D01*
X170609523Y-88457142D01*
X170704761Y-88552380D01*
X170752380Y-88695238D01*
X170752380Y-88933333D01*
X170752380Y-87933333D02*
X169752380Y-87933333D01*
X170752380Y-86933333D02*
X170752380Y-87504761D01*
X170752380Y-87219047D02*
X169752380Y-87219047D01*
X169895238Y-87314285D01*
X169990476Y-87409523D01*
X170038095Y-87504761D01*
X169847619Y-86552380D02*
X169800000Y-86504761D01*
X169752380Y-86409523D01*
X169752380Y-86171428D01*
X169800000Y-86076190D01*
X169847619Y-86028571D01*
X169942857Y-85980952D01*
X170038095Y-85980952D01*
X170180952Y-86028571D01*
X170752380Y-86600000D01*
X170752380Y-85980952D01*
X170847619Y-85790476D02*
X170847619Y-85028571D01*
X169752380Y-84600000D02*
X169752380Y-84504761D01*
X169800000Y-84409523D01*
X169847619Y-84361904D01*
X169942857Y-84314285D01*
X170133333Y-84266666D01*
X170371428Y-84266666D01*
X170561904Y-84314285D01*
X170657142Y-84361904D01*
X170704761Y-84409523D01*
X170752380Y-84504761D01*
X170752380Y-84600000D01*
X170704761Y-84695238D01*
X170657142Y-84742857D01*
X170561904Y-84790476D01*
X170371428Y-84838095D01*
X170133333Y-84838095D01*
X169942857Y-84790476D01*
X169847619Y-84742857D01*
X169800000Y-84695238D01*
X169752380Y-84600000D01*
X170704761Y-78233333D02*
X170752380Y-78090476D01*
X170752380Y-77852380D01*
X170704761Y-77757142D01*
X170657142Y-77709523D01*
X170561904Y-77661904D01*
X170466666Y-77661904D01*
X170371428Y-77709523D01*
X170323809Y-77757142D01*
X170276190Y-77852380D01*
X170228571Y-78042857D01*
X170180952Y-78138095D01*
X170133333Y-78185714D01*
X170038095Y-78233333D01*
X169942857Y-78233333D01*
X169847619Y-78185714D01*
X169800000Y-78138095D01*
X169752380Y-78042857D01*
X169752380Y-77804761D01*
X169800000Y-77661904D01*
X170752380Y-77233333D02*
X169752380Y-77233333D01*
X169752380Y-76995238D01*
X169800000Y-76852380D01*
X169895238Y-76757142D01*
X169990476Y-76709523D01*
X170180952Y-76661904D01*
X170323809Y-76661904D01*
X170514285Y-76709523D01*
X170609523Y-76757142D01*
X170704761Y-76852380D01*
X170752380Y-76995238D01*
X170752380Y-77233333D01*
X170752380Y-76233333D02*
X169752380Y-76233333D01*
X170752380Y-75233333D02*
X170752380Y-75804761D01*
X170752380Y-75519047D02*
X169752380Y-75519047D01*
X169895238Y-75614285D01*
X169990476Y-75709523D01*
X170038095Y-75804761D01*
X169847619Y-74852380D02*
X169800000Y-74804761D01*
X169752380Y-74709523D01*
X169752380Y-74471428D01*
X169800000Y-74376190D01*
X169847619Y-74328571D01*
X169942857Y-74280952D01*
X170038095Y-74280952D01*
X170180952Y-74328571D01*
X170752380Y-74900000D01*
X170752380Y-74280952D01*
X170847619Y-74090476D02*
X170847619Y-73328571D01*
X170752380Y-72566666D02*
X170752380Y-73138095D01*
X170752380Y-72852380D02*
X169752380Y-72852380D01*
X169895238Y-72947619D01*
X169990476Y-73042857D01*
X170038095Y-73138095D01*
X123152380Y-94971428D02*
X123961904Y-94971428D01*
X124057142Y-94923809D01*
X124104761Y-94876190D01*
X124152380Y-94780952D01*
X124152380Y-94590476D01*
X124104761Y-94495238D01*
X124057142Y-94447619D01*
X123961904Y-94400000D01*
X123152380Y-94400000D01*
X123866666Y-93971428D02*
X123866666Y-93495238D01*
X124152380Y-94066666D02*
X123152380Y-93733333D01*
X124152380Y-93400000D01*
X124152380Y-92495238D02*
X123676190Y-92828571D01*
X124152380Y-93066666D02*
X123152380Y-93066666D01*
X123152380Y-92685714D01*
X123200000Y-92590476D01*
X123247619Y-92542857D01*
X123342857Y-92495238D01*
X123485714Y-92495238D01*
X123580952Y-92542857D01*
X123628571Y-92590476D01*
X123676190Y-92685714D01*
X123676190Y-93066666D01*
X123152380Y-92209523D02*
X123152380Y-91638095D01*
X124152380Y-91923809D02*
X123152380Y-91923809D01*
X124152380Y-90780952D02*
X124152380Y-91352380D01*
X124152380Y-91066666D02*
X123152380Y-91066666D01*
X123295238Y-91161904D01*
X123390476Y-91257142D01*
X123438095Y-91352380D01*
X147952380Y-96119047D02*
X147952380Y-96690476D01*
X147952380Y-96404761D02*
X146952380Y-96404761D01*
X147095238Y-96500000D01*
X147190476Y-96595238D01*
X147238095Y-96690476D01*
X147047619Y-95738095D02*
X147000000Y-95690476D01*
X146952380Y-95595238D01*
X146952380Y-95357142D01*
X147000000Y-95261904D01*
X147047619Y-95214285D01*
X147142857Y-95166666D01*
X147238095Y-95166666D01*
X147380952Y-95214285D01*
X147952380Y-95785714D01*
X147952380Y-95166666D01*
X146952380Y-94880952D02*
X147952380Y-94547619D01*
X146952380Y-94214285D01*
X150066666Y-96152380D02*
X150066666Y-95676190D01*
X150352380Y-96247619D02*
X149352380Y-95914285D01*
X150352380Y-95580952D01*
X150352380Y-95247619D02*
X149352380Y-95247619D01*
X149352380Y-94580952D02*
X149352380Y-94485714D01*
X149400000Y-94390476D01*
X149447619Y-94342857D01*
X149542857Y-94295238D01*
X149733333Y-94247619D01*
X149971428Y-94247619D01*
X150161904Y-94295238D01*
X150257142Y-94342857D01*
X150304761Y-94390476D01*
X150352380Y-94485714D01*
X150352380Y-94580952D01*
X150304761Y-94676190D01*
X150257142Y-94723809D01*
X150161904Y-94771428D01*
X149971428Y-94819047D01*
X149733333Y-94819047D01*
X149542857Y-94771428D01*
X149447619Y-94723809D01*
X149400000Y-94676190D01*
X149352380Y-94580952D01*
X152766666Y-96252380D02*
X152766666Y-95776190D01*
X153052380Y-96347619D02*
X152052380Y-96014285D01*
X153052380Y-95680952D01*
X153052380Y-95347619D02*
X152052380Y-95347619D01*
X153052380Y-94347619D02*
X153052380Y-94919047D01*
X153052380Y-94633333D02*
X152052380Y-94633333D01*
X152195238Y-94728571D01*
X152290476Y-94823809D01*
X152338095Y-94919047D01*
X155266666Y-96252380D02*
X155266666Y-95776190D01*
X155552380Y-96347619D02*
X154552380Y-96014285D01*
X155552380Y-95680952D01*
X155552380Y-95347619D02*
X154552380Y-95347619D01*
X154647619Y-94919047D02*
X154600000Y-94871428D01*
X154552380Y-94776190D01*
X154552380Y-94538095D01*
X154600000Y-94442857D01*
X154647619Y-94395238D01*
X154742857Y-94347619D01*
X154838095Y-94347619D01*
X154980952Y-94395238D01*
X155552380Y-94966666D01*
X155552380Y-94347619D01*
X157100000Y-96361904D02*
X157052380Y-96457142D01*
X157052380Y-96600000D01*
X157100000Y-96742857D01*
X157195238Y-96838095D01*
X157290476Y-96885714D01*
X157480952Y-96933333D01*
X157623809Y-96933333D01*
X157814285Y-96885714D01*
X157909523Y-96838095D01*
X158004761Y-96742857D01*
X158052380Y-96600000D01*
X158052380Y-96504761D01*
X158004761Y-96361904D01*
X157957142Y-96314285D01*
X157623809Y-96314285D01*
X157623809Y-96504761D01*
X158052380Y-95885714D02*
X157052380Y-95885714D01*
X158052380Y-95314285D01*
X157052380Y-95314285D01*
X158052380Y-94838095D02*
X157052380Y-94838095D01*
X157052380Y-94600000D01*
X157100000Y-94457142D01*
X157195238Y-94361904D01*
X157290476Y-94314285D01*
X157480952Y-94266666D01*
X157623809Y-94266666D01*
X157814285Y-94314285D01*
X157909523Y-94361904D01*
X158004761Y-94457142D01*
X158052380Y-94600000D01*
X158052380Y-94838095D01*
X157200000Y-84661904D02*
X157152380Y-84757142D01*
X157152380Y-84900000D01*
X157200000Y-85042857D01*
X157295238Y-85138095D01*
X157390476Y-85185714D01*
X157580952Y-85233333D01*
X157723809Y-85233333D01*
X157914285Y-85185714D01*
X158009523Y-85138095D01*
X158104761Y-85042857D01*
X158152380Y-84900000D01*
X158152380Y-84804761D01*
X158104761Y-84661904D01*
X158057142Y-84614285D01*
X157723809Y-84614285D01*
X157723809Y-84804761D01*
X158152380Y-84185714D02*
X157152380Y-84185714D01*
X158152380Y-83614285D01*
X157152380Y-83614285D01*
X158152380Y-83138095D02*
X157152380Y-83138095D01*
X157152380Y-82900000D01*
X157200000Y-82757142D01*
X157295238Y-82661904D01*
X157390476Y-82614285D01*
X157580952Y-82566666D01*
X157723809Y-82566666D01*
X157914285Y-82614285D01*
X158009523Y-82661904D01*
X158104761Y-82757142D01*
X158152380Y-82900000D01*
X158152380Y-83138095D01*
X155166666Y-85138095D02*
X155166666Y-84661904D01*
X155452380Y-85233333D02*
X154452380Y-84900000D01*
X155452380Y-84566666D01*
X154452380Y-84042857D02*
X154452380Y-83852380D01*
X154500000Y-83757142D01*
X154595238Y-83661904D01*
X154785714Y-83614285D01*
X155119047Y-83614285D01*
X155309523Y-83661904D01*
X155404761Y-83757142D01*
X155452380Y-83852380D01*
X155452380Y-84042857D01*
X155404761Y-84138095D01*
X155309523Y-84233333D01*
X155119047Y-84280952D01*
X154785714Y-84280952D01*
X154595238Y-84233333D01*
X154500000Y-84138095D01*
X154452380Y-84042857D01*
X155452380Y-82661904D02*
X155452380Y-83233333D01*
X155452380Y-82947619D02*
X154452380Y-82947619D01*
X154595238Y-83042857D01*
X154690476Y-83138095D01*
X154738095Y-83233333D01*
X152666666Y-85052380D02*
X152666666Y-84576190D01*
X152952380Y-85147619D02*
X151952380Y-84814285D01*
X152952380Y-84480952D01*
X152952380Y-84147619D02*
X151952380Y-84147619D01*
X152285714Y-83242857D02*
X152952380Y-83242857D01*
X151904761Y-83480952D02*
X152619047Y-83719047D01*
X152619047Y-83100000D01*
X150166666Y-85052380D02*
X150166666Y-84576190D01*
X150452380Y-85147619D02*
X149452380Y-84814285D01*
X150452380Y-84480952D01*
X150452380Y-84147619D02*
X149452380Y-84147619D01*
X149452380Y-83766666D02*
X149452380Y-83147619D01*
X149833333Y-83480952D01*
X149833333Y-83338095D01*
X149880952Y-83242857D01*
X149928571Y-83195238D01*
X150023809Y-83147619D01*
X150261904Y-83147619D01*
X150357142Y-83195238D01*
X150404761Y-83242857D01*
X150452380Y-83338095D01*
X150452380Y-83623809D01*
X150404761Y-83719047D01*
X150357142Y-83766666D01*
X147852380Y-84719047D02*
X147852380Y-85290476D01*
X147852380Y-85004761D02*
X146852380Y-85004761D01*
X146995238Y-85100000D01*
X147090476Y-85195238D01*
X147138095Y-85290476D01*
X146947619Y-84338095D02*
X146900000Y-84290476D01*
X146852380Y-84195238D01*
X146852380Y-83957142D01*
X146900000Y-83861904D01*
X146947619Y-83814285D01*
X147042857Y-83766666D01*
X147138095Y-83766666D01*
X147280952Y-83814285D01*
X147852380Y-84385714D01*
X147852380Y-83766666D01*
X146852380Y-83480952D02*
X147852380Y-83147619D01*
X146852380Y-82814285D01*
X141800000Y-84561904D02*
X141752380Y-84657142D01*
X141752380Y-84800000D01*
X141800000Y-84942857D01*
X141895238Y-85038095D01*
X141990476Y-85085714D01*
X142180952Y-85133333D01*
X142323809Y-85133333D01*
X142514285Y-85085714D01*
X142609523Y-85038095D01*
X142704761Y-84942857D01*
X142752380Y-84800000D01*
X142752380Y-84704761D01*
X142704761Y-84561904D01*
X142657142Y-84514285D01*
X142323809Y-84514285D01*
X142323809Y-84704761D01*
X142752380Y-84085714D02*
X141752380Y-84085714D01*
X142752380Y-83514285D01*
X141752380Y-83514285D01*
X142752380Y-83038095D02*
X141752380Y-83038095D01*
X141752380Y-82800000D01*
X141800000Y-82657142D01*
X141895238Y-82561904D01*
X141990476Y-82514285D01*
X142180952Y-82466666D01*
X142323809Y-82466666D01*
X142514285Y-82514285D01*
X142609523Y-82561904D01*
X142704761Y-82657142D01*
X142752380Y-82800000D01*
X142752380Y-83038095D01*
X140252380Y-84900000D02*
X139252380Y-84900000D01*
X139252380Y-84233333D02*
X139252380Y-84042857D01*
X139300000Y-83947619D01*
X139395238Y-83852380D01*
X139585714Y-83804761D01*
X139919047Y-83804761D01*
X140109523Y-83852380D01*
X140204761Y-83947619D01*
X140252380Y-84042857D01*
X140252380Y-84233333D01*
X140204761Y-84328571D01*
X140109523Y-84423809D01*
X139919047Y-84471428D01*
X139585714Y-84471428D01*
X139395238Y-84423809D01*
X139300000Y-84328571D01*
X139252380Y-84233333D01*
X139252380Y-82900000D02*
X139252380Y-83376190D01*
X139728571Y-83423809D01*
X139680952Y-83376190D01*
X139633333Y-83280952D01*
X139633333Y-83042857D01*
X139680952Y-82947619D01*
X139728571Y-82900000D01*
X139823809Y-82852380D01*
X140061904Y-82852380D01*
X140157142Y-82900000D01*
X140204761Y-82947619D01*
X140252380Y-83042857D01*
X140252380Y-83280952D01*
X140204761Y-83376190D01*
X140157142Y-83423809D01*
X137752380Y-85000000D02*
X136752380Y-85000000D01*
X136752380Y-84333333D02*
X136752380Y-84142857D01*
X136800000Y-84047619D01*
X136895238Y-83952380D01*
X137085714Y-83904761D01*
X137419047Y-83904761D01*
X137609523Y-83952380D01*
X137704761Y-84047619D01*
X137752380Y-84142857D01*
X137752380Y-84333333D01*
X137704761Y-84428571D01*
X137609523Y-84523809D01*
X137419047Y-84571428D01*
X137085714Y-84571428D01*
X136895238Y-84523809D01*
X136800000Y-84428571D01*
X136752380Y-84333333D01*
X137085714Y-83047619D02*
X137752380Y-83047619D01*
X136704761Y-83285714D02*
X137419047Y-83523809D01*
X137419047Y-82904761D01*
X135252380Y-85000000D02*
X134252380Y-85000000D01*
X134252380Y-84333333D02*
X134252380Y-84142857D01*
X134300000Y-84047619D01*
X134395238Y-83952380D01*
X134585714Y-83904761D01*
X134919047Y-83904761D01*
X135109523Y-83952380D01*
X135204761Y-84047619D01*
X135252380Y-84142857D01*
X135252380Y-84333333D01*
X135204761Y-84428571D01*
X135109523Y-84523809D01*
X134919047Y-84571428D01*
X134585714Y-84571428D01*
X134395238Y-84523809D01*
X134300000Y-84428571D01*
X134252380Y-84333333D01*
X134252380Y-83571428D02*
X134252380Y-82952380D01*
X134633333Y-83285714D01*
X134633333Y-83142857D01*
X134680952Y-83047619D01*
X134728571Y-83000000D01*
X134823809Y-82952380D01*
X135061904Y-82952380D01*
X135157142Y-83000000D01*
X135204761Y-83047619D01*
X135252380Y-83142857D01*
X135252380Y-83428571D01*
X135204761Y-83523809D01*
X135157142Y-83571428D01*
X132652380Y-84619047D02*
X132652380Y-85190476D01*
X132652380Y-84904761D02*
X131652380Y-84904761D01*
X131795238Y-85000000D01*
X131890476Y-85095238D01*
X131938095Y-85190476D01*
X131747619Y-84238095D02*
X131700000Y-84190476D01*
X131652380Y-84095238D01*
X131652380Y-83857142D01*
X131700000Y-83761904D01*
X131747619Y-83714285D01*
X131842857Y-83666666D01*
X131938095Y-83666666D01*
X132080952Y-83714285D01*
X132652380Y-84285714D01*
X132652380Y-83666666D01*
X131652380Y-83380952D02*
X132652380Y-83047619D01*
X131652380Y-82714285D01*
X141800000Y-96261904D02*
X141752380Y-96357142D01*
X141752380Y-96500000D01*
X141800000Y-96642857D01*
X141895238Y-96738095D01*
X141990476Y-96785714D01*
X142180952Y-96833333D01*
X142323809Y-96833333D01*
X142514285Y-96785714D01*
X142609523Y-96738095D01*
X142704761Y-96642857D01*
X142752380Y-96500000D01*
X142752380Y-96404761D01*
X142704761Y-96261904D01*
X142657142Y-96214285D01*
X142323809Y-96214285D01*
X142323809Y-96404761D01*
X142752380Y-95785714D02*
X141752380Y-95785714D01*
X142752380Y-95214285D01*
X141752380Y-95214285D01*
X142752380Y-94738095D02*
X141752380Y-94738095D01*
X141752380Y-94500000D01*
X141800000Y-94357142D01*
X141895238Y-94261904D01*
X141990476Y-94214285D01*
X142180952Y-94166666D01*
X142323809Y-94166666D01*
X142514285Y-94214285D01*
X142609523Y-94261904D01*
X142704761Y-94357142D01*
X142752380Y-94500000D01*
X142752380Y-94738095D01*
X132652380Y-95919047D02*
X132652380Y-96490476D01*
X132652380Y-96204761D02*
X131652380Y-96204761D01*
X131795238Y-96300000D01*
X131890476Y-96395238D01*
X131938095Y-96490476D01*
X131747619Y-95538095D02*
X131700000Y-95490476D01*
X131652380Y-95395238D01*
X131652380Y-95157142D01*
X131700000Y-95061904D01*
X131747619Y-95014285D01*
X131842857Y-94966666D01*
X131938095Y-94966666D01*
X132080952Y-95014285D01*
X132652380Y-95585714D01*
X132652380Y-94966666D01*
X131652380Y-94680952D02*
X132652380Y-94347619D01*
X131652380Y-94014285D01*
X140252380Y-96200000D02*
X139252380Y-96200000D01*
X139252380Y-95533333D02*
X139252380Y-95342857D01*
X139300000Y-95247619D01*
X139395238Y-95152380D01*
X139585714Y-95104761D01*
X139919047Y-95104761D01*
X140109523Y-95152380D01*
X140204761Y-95247619D01*
X140252380Y-95342857D01*
X140252380Y-95533333D01*
X140204761Y-95628571D01*
X140109523Y-95723809D01*
X139919047Y-95771428D01*
X139585714Y-95771428D01*
X139395238Y-95723809D01*
X139300000Y-95628571D01*
X139252380Y-95533333D01*
X139347619Y-94723809D02*
X139300000Y-94676190D01*
X139252380Y-94580952D01*
X139252380Y-94342857D01*
X139300000Y-94247619D01*
X139347619Y-94200000D01*
X139442857Y-94152380D01*
X139538095Y-94152380D01*
X139680952Y-94200000D01*
X140252380Y-94771428D01*
X140252380Y-94152380D01*
X137652380Y-96200000D02*
X136652380Y-96200000D01*
X136652380Y-95533333D02*
X136652380Y-95342857D01*
X136700000Y-95247619D01*
X136795238Y-95152380D01*
X136985714Y-95104761D01*
X137319047Y-95104761D01*
X137509523Y-95152380D01*
X137604761Y-95247619D01*
X137652380Y-95342857D01*
X137652380Y-95533333D01*
X137604761Y-95628571D01*
X137509523Y-95723809D01*
X137319047Y-95771428D01*
X136985714Y-95771428D01*
X136795238Y-95723809D01*
X136700000Y-95628571D01*
X136652380Y-95533333D01*
X137652380Y-94152380D02*
X137652380Y-94723809D01*
X137652380Y-94438095D02*
X136652380Y-94438095D01*
X136795238Y-94533333D01*
X136890476Y-94628571D01*
X136938095Y-94723809D01*
X135152380Y-96200000D02*
X134152380Y-96200000D01*
X134152380Y-95533333D02*
X134152380Y-95342857D01*
X134200000Y-95247619D01*
X134295238Y-95152380D01*
X134485714Y-95104761D01*
X134819047Y-95104761D01*
X135009523Y-95152380D01*
X135104761Y-95247619D01*
X135152380Y-95342857D01*
X135152380Y-95533333D01*
X135104761Y-95628571D01*
X135009523Y-95723809D01*
X134819047Y-95771428D01*
X134485714Y-95771428D01*
X134295238Y-95723809D01*
X134200000Y-95628571D01*
X134152380Y-95533333D01*
X134152380Y-94485714D02*
X134152380Y-94390476D01*
X134200000Y-94295238D01*
X134247619Y-94247619D01*
X134342857Y-94200000D01*
X134533333Y-94152380D01*
X134771428Y-94152380D01*
X134961904Y-94200000D01*
X135057142Y-94247619D01*
X135104761Y-94295238D01*
X135152380Y-94390476D01*
X135152380Y-94485714D01*
X135104761Y-94580952D01*
X135057142Y-94628571D01*
X134961904Y-94676190D01*
X134771428Y-94723809D01*
X134533333Y-94723809D01*
X134342857Y-94676190D01*
X134247619Y-94628571D01*
X134200000Y-94580952D01*
X134152380Y-94485714D01*
X172838095Y-68352380D02*
X173457142Y-68352380D01*
X173123809Y-68733333D01*
X173266666Y-68733333D01*
X173361904Y-68780952D01*
X173409523Y-68828571D01*
X173457142Y-68923809D01*
X173457142Y-69161904D01*
X173409523Y-69257142D01*
X173361904Y-69304761D01*
X173266666Y-69352380D01*
X172980952Y-69352380D01*
X172885714Y-69304761D01*
X172838095Y-69257142D01*
X173742857Y-68352380D02*
X174076190Y-69352380D01*
X174409523Y-68352380D01*
X168314285Y-60704761D02*
X168457142Y-60752380D01*
X168695238Y-60752380D01*
X168790476Y-60704761D01*
X168838095Y-60657142D01*
X168885714Y-60561904D01*
X168885714Y-60466666D01*
X168838095Y-60371428D01*
X168790476Y-60323809D01*
X168695238Y-60276190D01*
X168504761Y-60228571D01*
X168409523Y-60180952D01*
X168361904Y-60133333D01*
X168314285Y-60038095D01*
X168314285Y-59942857D01*
X168361904Y-59847619D01*
X168409523Y-59800000D01*
X168504761Y-59752380D01*
X168742857Y-59752380D01*
X168885714Y-59800000D01*
X169885714Y-60657142D02*
X169838095Y-60704761D01*
X169695238Y-60752380D01*
X169600000Y-60752380D01*
X169457142Y-60704761D01*
X169361904Y-60609523D01*
X169314285Y-60514285D01*
X169266666Y-60323809D01*
X169266666Y-60180952D01*
X169314285Y-59990476D01*
X169361904Y-59895238D01*
X169457142Y-59800000D01*
X169600000Y-59752380D01*
X169695238Y-59752380D01*
X169838095Y-59800000D01*
X169885714Y-59847619D01*
X170314285Y-60752380D02*
X170314285Y-59752380D01*
X170885714Y-60752380D02*
X170457142Y-60180952D01*
X170885714Y-59752380D02*
X170314285Y-60323809D01*
X168738095Y-57600000D02*
X168642857Y-57552380D01*
X168500000Y-57552380D01*
X168357142Y-57600000D01*
X168261904Y-57695238D01*
X168214285Y-57790476D01*
X168166666Y-57980952D01*
X168166666Y-58123809D01*
X168214285Y-58314285D01*
X168261904Y-58409523D01*
X168357142Y-58504761D01*
X168500000Y-58552380D01*
X168595238Y-58552380D01*
X168738095Y-58504761D01*
X168785714Y-58457142D01*
X168785714Y-58123809D01*
X168595238Y-58123809D01*
X169214285Y-58552380D02*
X169214285Y-57552380D01*
X169785714Y-58552380D01*
X169785714Y-57552380D01*
X170261904Y-58552380D02*
X170261904Y-57552380D01*
X170500000Y-57552380D01*
X170642857Y-57600000D01*
X170738095Y-57695238D01*
X170785714Y-57790476D01*
X170833333Y-57980952D01*
X170833333Y-58123809D01*
X170785714Y-58314285D01*
X170738095Y-58409523D01*
X170642857Y-58504761D01*
X170500000Y-58552380D01*
X170261904Y-58552380D01*
X130900000Y-49361904D02*
X130852380Y-49457142D01*
X130852380Y-49600000D01*
X130900000Y-49742857D01*
X130995238Y-49838095D01*
X131090476Y-49885714D01*
X131280952Y-49933333D01*
X131423809Y-49933333D01*
X131614285Y-49885714D01*
X131709523Y-49838095D01*
X131804761Y-49742857D01*
X131852380Y-49600000D01*
X131852380Y-49504761D01*
X131804761Y-49361904D01*
X131757142Y-49314285D01*
X131423809Y-49314285D01*
X131423809Y-49504761D01*
X131852380Y-48885714D02*
X130852380Y-48885714D01*
X131852380Y-48314285D01*
X130852380Y-48314285D01*
X131852380Y-47838095D02*
X130852380Y-47838095D01*
X130852380Y-47600000D01*
X130900000Y-47457142D01*
X130995238Y-47361904D01*
X131090476Y-47314285D01*
X131280952Y-47266666D01*
X131423809Y-47266666D01*
X131614285Y-47314285D01*
X131709523Y-47361904D01*
X131804761Y-47457142D01*
X131852380Y-47600000D01*
X131852380Y-47838095D01*
X139852380Y-48861904D02*
X139852380Y-48242857D01*
X140233333Y-48576190D01*
X140233333Y-48433333D01*
X140280952Y-48338095D01*
X140328571Y-48290476D01*
X140423809Y-48242857D01*
X140661904Y-48242857D01*
X140757142Y-48290476D01*
X140804761Y-48338095D01*
X140852380Y-48433333D01*
X140852380Y-48719047D01*
X140804761Y-48814285D01*
X140757142Y-48861904D01*
X139852380Y-47957142D02*
X140852380Y-47623809D01*
X139852380Y-47290476D01*
X137052380Y-48761904D02*
X137052380Y-48190476D01*
X138052380Y-48476190D02*
X137052380Y-48476190D01*
X137052380Y-47952380D02*
X138052380Y-47285714D01*
X137052380Y-47285714D02*
X138052380Y-47952380D01*
X134852380Y-48166666D02*
X134376190Y-48500000D01*
X134852380Y-48738095D02*
X133852380Y-48738095D01*
X133852380Y-48357142D01*
X133900000Y-48261904D01*
X133947619Y-48214285D01*
X134042857Y-48166666D01*
X134185714Y-48166666D01*
X134280952Y-48214285D01*
X134328571Y-48261904D01*
X134376190Y-48357142D01*
X134376190Y-48738095D01*
X133852380Y-47833333D02*
X134852380Y-47166666D01*
X133852380Y-47166666D02*
X134852380Y-47833333D01*
D11*
%TO.C,C14*%
X114910000Y-83524721D02*
X114910000Y-83850279D01*
X113890000Y-83524721D02*
X113890000Y-83850279D01*
%TO.C,C13*%
X113110000Y-83524721D02*
X113110000Y-83850279D01*
X112090000Y-83524721D02*
X112090000Y-83850279D01*
%TO.C,Y1*%
X135700000Y-76100000D02*
X135700000Y-70350000D01*
X132100000Y-76100000D02*
X135700000Y-76100000D01*
X132100000Y-70350000D02*
X132100000Y-76100000D01*
%TO.C,U1*%
X139890000Y-63640000D02*
X138550000Y-63640000D01*
X139890000Y-62690000D02*
X139890000Y-63640000D01*
X140840000Y-62690000D02*
X139890000Y-62690000D01*
X150110000Y-62690000D02*
X150110000Y-63640000D01*
X149160000Y-62690000D02*
X150110000Y-62690000D01*
X139890000Y-72910000D02*
X139890000Y-71960000D01*
X140840000Y-72910000D02*
X139890000Y-72910000D01*
X150110000Y-72910000D02*
X150110000Y-71960000D01*
X149160000Y-72910000D02*
X150110000Y-72910000D01*
%TO.C,C1*%
X134150279Y-68590000D02*
X133824721Y-68590000D01*
X134150279Y-69610000D02*
X133824721Y-69610000D01*
%TO.C,C2*%
X134175279Y-77610000D02*
X133849721Y-77610000D01*
X134175279Y-76590000D02*
X133849721Y-76590000D01*
%TO.C,C3*%
X134850279Y-62290000D02*
X134524721Y-62290000D01*
X134850279Y-63310000D02*
X134524721Y-63310000D01*
%TO.C,C4*%
X134175279Y-67610000D02*
X133849721Y-67610000D01*
X134175279Y-66590000D02*
X133849721Y-66590000D01*
%TO.C,C5*%
X142050279Y-53190000D02*
X141724721Y-53190000D01*
X142050279Y-54210000D02*
X141724721Y-54210000D01*
%TO.C,C6*%
X155210000Y-56937221D02*
X155210000Y-57262779D01*
X154190000Y-56937221D02*
X154190000Y-57262779D01*
%TO.C,C7*%
X149449721Y-77210000D02*
X149775279Y-77210000D01*
X149449721Y-76190000D02*
X149775279Y-76190000D01*
%TO.C,C8*%
X139490000Y-74850279D02*
X139490000Y-74524721D01*
X140510000Y-74850279D02*
X140510000Y-74524721D01*
%TO.C,C9*%
X150690000Y-61724721D02*
X150690000Y-62050279D01*
X151710000Y-61724721D02*
X151710000Y-62050279D01*
%TO.C,C10*%
X153490000Y-64562779D02*
X153490000Y-64237221D01*
X154510000Y-64562779D02*
X154510000Y-64237221D01*
%TO.C,C11*%
X170749721Y-53610000D02*
X171075279Y-53610000D01*
X170749721Y-52590000D02*
X171075279Y-52590000D01*
%TO.C,C12*%
X174350279Y-53610000D02*
X174024721Y-53610000D01*
X174350279Y-52590000D02*
X174024721Y-52590000D01*
%TO.C,D1*%
X168300000Y-52250000D02*
X162900000Y-52250000D01*
X168300000Y-48950000D02*
X162900000Y-48950000D01*
X168300000Y-52250000D02*
X168300000Y-48950000D01*
%TO.C,J1*%
X142250000Y-54800000D02*
X146350000Y-54800000D01*
X146350000Y-54800000D02*
X146350000Y-56800000D01*
X146350000Y-56800000D02*
X142250000Y-56800000D01*
X142250000Y-56800000D02*
X142250000Y-54800000D01*
X143000000Y-57000000D02*
X142700000Y-57300000D01*
X142700000Y-57300000D02*
X143300000Y-57300000D01*
X143000000Y-57000000D02*
X143300000Y-57300000D01*
%TO.C,J2*%
X103570000Y-95230000D02*
X103570000Y-93900000D01*
X104900000Y-95230000D02*
X103570000Y-95230000D01*
X106170000Y-95230000D02*
X106170000Y-92570000D01*
X106170000Y-92570000D02*
X121470000Y-92570000D01*
X106170000Y-95230000D02*
X121470000Y-95230000D01*
X121470000Y-95230000D02*
X121470000Y-92570000D01*
%TO.C,J3*%
X175610000Y-94710000D02*
X175610000Y-92210000D01*
X173110000Y-94710000D02*
X175610000Y-94710000D01*
X173810000Y-85190000D02*
X175310000Y-85190000D01*
X173810000Y-84190000D02*
X173810000Y-85190000D01*
X173810000Y-93410000D02*
X175310000Y-93410000D01*
X173810000Y-94410000D02*
X173810000Y-93410000D01*
X173000000Y-84690000D02*
X173000000Y-84190000D01*
X171790000Y-84690000D02*
X173000000Y-84690000D01*
X171790000Y-93910000D02*
X171790000Y-84690000D01*
X173000000Y-93910000D02*
X171790000Y-93910000D01*
X173000000Y-94410000D02*
X173000000Y-93910000D01*
X171290000Y-84190000D02*
X171290000Y-94410000D01*
X175310000Y-84190000D02*
X171290000Y-84190000D01*
X175310000Y-94410000D02*
X175310000Y-84190000D01*
X171290000Y-94410000D02*
X175310000Y-94410000D01*
%TO.C,J4*%
X171290000Y-82810000D02*
X175310000Y-82810000D01*
X175310000Y-82810000D02*
X175310000Y-72590000D01*
X175310000Y-72590000D02*
X171290000Y-72590000D01*
X171290000Y-72590000D02*
X171290000Y-82810000D01*
X173000000Y-82810000D02*
X173000000Y-82310000D01*
X173000000Y-82310000D02*
X171790000Y-82310000D01*
X171790000Y-82310000D02*
X171790000Y-73090000D01*
X171790000Y-73090000D02*
X173000000Y-73090000D01*
X173000000Y-73090000D02*
X173000000Y-72590000D01*
X173810000Y-82810000D02*
X173810000Y-81810000D01*
X173810000Y-81810000D02*
X175310000Y-81810000D01*
X173810000Y-72590000D02*
X173810000Y-73590000D01*
X173810000Y-73590000D02*
X175310000Y-73590000D01*
X173110000Y-83110000D02*
X175610000Y-83110000D01*
X175610000Y-83110000D02*
X175610000Y-80610000D01*
%TO.C,J5*%
X171100000Y-46612500D02*
X171100000Y-46162500D01*
X171100000Y-46612500D02*
X170650000Y-46612500D01*
X165500000Y-46062500D02*
X165950000Y-46062500D01*
X165500000Y-44212500D02*
X165500000Y-46062500D01*
X173300000Y-41662500D02*
X173300000Y-41912500D01*
X165500000Y-41662500D02*
X165500000Y-41912500D01*
X173300000Y-44212500D02*
X173300000Y-46062500D01*
X173300000Y-46062500D02*
X172850000Y-46062500D01*
%TO.C,J6*%
X130810000Y-92275000D02*
X130810000Y-87075000D01*
X143630000Y-92275000D02*
X143630000Y-87075000D01*
X131380000Y-93715000D02*
X131380000Y-92275000D01*
X130810000Y-92275000D02*
X131380000Y-92275000D01*
X130810000Y-87075000D02*
X131380000Y-87075000D01*
X143060000Y-92275000D02*
X143630000Y-92275000D01*
X143060000Y-87075000D02*
X143630000Y-87075000D01*
X132900000Y-92275000D02*
X133920000Y-92275000D01*
X132900000Y-87075000D02*
X133920000Y-87075000D01*
X135440000Y-92275000D02*
X136460000Y-92275000D01*
X135440000Y-87075000D02*
X136460000Y-87075000D01*
X137980000Y-92275000D02*
X139000000Y-92275000D01*
X137980000Y-87075000D02*
X139000000Y-87075000D01*
X140520000Y-92275000D02*
X141540000Y-92275000D01*
X140520000Y-87075000D02*
X141540000Y-87075000D01*
%TO.C,J7*%
X162810000Y-59290000D02*
X158790000Y-59290000D01*
X158790000Y-59290000D02*
X158790000Y-72010000D01*
X158790000Y-72010000D02*
X162810000Y-72010000D01*
X162810000Y-72010000D02*
X162810000Y-59290000D01*
X161100000Y-59290000D02*
X161100000Y-59790000D01*
X161100000Y-59790000D02*
X162310000Y-59790000D01*
X162310000Y-59790000D02*
X162310000Y-71510000D01*
X162310000Y-71510000D02*
X161100000Y-71510000D01*
X161100000Y-71510000D02*
X161100000Y-72010000D01*
X160290000Y-59290000D02*
X160290000Y-60290000D01*
X160290000Y-60290000D02*
X158790000Y-60290000D01*
X160290000Y-72010000D02*
X160290000Y-71010000D01*
X160290000Y-71010000D02*
X158790000Y-71010000D01*
X160990000Y-58990000D02*
X158490000Y-58990000D01*
X158490000Y-58990000D02*
X158490000Y-61490000D01*
%TO.C,J8*%
X129110000Y-96210000D02*
X129110000Y-93710000D01*
X126610000Y-96210000D02*
X129110000Y-96210000D01*
X127310000Y-84190000D02*
X128810000Y-84190000D01*
X127310000Y-83190000D02*
X127310000Y-84190000D01*
X127310000Y-94910000D02*
X128810000Y-94910000D01*
X127310000Y-95910000D02*
X127310000Y-94910000D01*
X126500000Y-83690000D02*
X126500000Y-83190000D01*
X125290000Y-83690000D02*
X126500000Y-83690000D01*
X125290000Y-95410000D02*
X125290000Y-83690000D01*
X126500000Y-95410000D02*
X125290000Y-95410000D01*
X126500000Y-95910000D02*
X126500000Y-95410000D01*
X124790000Y-83190000D02*
X124790000Y-95910000D01*
X128810000Y-83190000D02*
X124790000Y-83190000D01*
X128810000Y-95910000D02*
X128810000Y-83190000D01*
X124790000Y-95910000D02*
X128810000Y-95910000D01*
%TO.C,J11*%
X155820000Y-87175000D02*
X156840000Y-87175000D01*
X155820000Y-92375000D02*
X156840000Y-92375000D01*
X153280000Y-87175000D02*
X154300000Y-87175000D01*
X153280000Y-92375000D02*
X154300000Y-92375000D01*
X150740000Y-87175000D02*
X151760000Y-87175000D01*
X150740000Y-92375000D02*
X151760000Y-92375000D01*
X148200000Y-87175000D02*
X149220000Y-87175000D01*
X148200000Y-92375000D02*
X149220000Y-92375000D01*
X158360000Y-87175000D02*
X158930000Y-87175000D01*
X158360000Y-92375000D02*
X158930000Y-92375000D01*
X146110000Y-87175000D02*
X146680000Y-87175000D01*
X146110000Y-92375000D02*
X146680000Y-92375000D01*
X146680000Y-93815000D02*
X146680000Y-92375000D01*
X158930000Y-92375000D02*
X158930000Y-87175000D01*
X146110000Y-92375000D02*
X146110000Y-87175000D01*
%TO.C,J12*%
X155400000Y-78240000D02*
X155400000Y-77220000D01*
X160600000Y-78240000D02*
X160600000Y-77220000D01*
X155400000Y-80780000D02*
X155400000Y-79760000D01*
X160600000Y-80780000D02*
X160600000Y-79760000D01*
X155400000Y-75700000D02*
X155400000Y-75130000D01*
X160600000Y-75700000D02*
X160600000Y-75130000D01*
X155400000Y-82870000D02*
X155400000Y-82300000D01*
X160600000Y-82870000D02*
X160600000Y-82300000D01*
X162040000Y-82300000D02*
X160600000Y-82300000D01*
X160600000Y-75130000D02*
X155400000Y-75130000D01*
X160600000Y-82870000D02*
X155400000Y-82870000D01*
D10*
%TO.C,J13*%
X148340000Y-37300000D02*
X144900000Y-37300000D01*
X150660000Y-38010000D02*
X148340000Y-37300000D01*
X159600000Y-38010000D02*
X150660000Y-38010000D01*
X159600000Y-51800000D02*
X159600000Y-38010000D01*
X144900000Y-51810000D02*
X159600000Y-51800000D01*
X144900000Y-37300000D02*
X144900000Y-51810000D01*
D11*
%TO.C,R1*%
X114850279Y-90510000D02*
X114524721Y-90510000D01*
X114850279Y-89490000D02*
X114524721Y-89490000D01*
%TO.C,R2*%
X111475279Y-89490000D02*
X111149721Y-89490000D01*
X111475279Y-90510000D02*
X111149721Y-90510000D01*
%TO.C,R3*%
X144849721Y-53190000D02*
X145175279Y-53190000D01*
X144849721Y-54210000D02*
X145175279Y-54210000D01*
%TO.C,R4*%
X168490000Y-66049721D02*
X168490000Y-66375279D01*
X169510000Y-66049721D02*
X169510000Y-66375279D01*
%TO.C,R5*%
X170090000Y-50550279D02*
X170090000Y-50224721D01*
X171110000Y-50550279D02*
X171110000Y-50224721D01*
%TO.C,R6*%
X168490000Y-62524721D02*
X168490000Y-62850279D01*
X169510000Y-62524721D02*
X169510000Y-62850279D01*
D10*
%TO.C,SW1*%
X151392472Y-57100000D02*
G75*
G03*
X151392472Y-57100000I-992472J0D01*
G01*
X148200000Y-55250000D02*
X152600000Y-55250000D01*
X147800000Y-58300000D02*
X147800000Y-55900000D01*
X152550000Y-58950000D02*
X148300000Y-58950000D01*
X153000000Y-55900000D02*
X153000000Y-58250000D01*
D11*
%TO.C,U2*%
X168000000Y-87290000D02*
X165550000Y-87290000D01*
X166200000Y-90510000D02*
X168000000Y-90510000D01*
%TO.C,U3*%
X166200000Y-79010000D02*
X168000000Y-79010000D01*
X168000000Y-75790000D02*
X165550000Y-75790000D01*
%TO.C,U4*%
X174400000Y-48690000D02*
X171950000Y-48690000D01*
X172600000Y-51910000D02*
X174400000Y-51910000D01*
%TO.C,U5*%
X135700000Y-54540000D02*
X132250000Y-54540000D01*
X135700000Y-54540000D02*
X137650000Y-54540000D01*
X135700000Y-59660000D02*
X133750000Y-59660000D01*
X135700000Y-59660000D02*
X137650000Y-59660000D01*
D10*
%TO.C,U6*%
X103300000Y-81900000D02*
X103300000Y-79400000D01*
X128300000Y-81900000D02*
X103300000Y-81900000D01*
X128300000Y-81900000D02*
X128300000Y-79400000D01*
X128300000Y-41900000D02*
X128300000Y-56900000D01*
X103300000Y-56900000D02*
X103300000Y-41900000D01*
X128300000Y-41900000D02*
X123800000Y-41900000D01*
X103300000Y-41900000D02*
X107800000Y-41900000D01*
X112300000Y-41900000D02*
X119300000Y-41900000D01*
X127800000Y-42900000D02*
X125300000Y-42900000D01*
X127800000Y-46900000D02*
X127800000Y-42900000D01*
X125300000Y-46900000D02*
X127800000Y-46900000D01*
X125300000Y-42900000D02*
X125300000Y-46900000D01*
%TO.C,Y2*%
X136100000Y-63800000D02*
X135100000Y-63800000D01*
X136100000Y-66100000D02*
X136100000Y-63800000D01*
X136000000Y-66200000D02*
X136100000Y-66100000D01*
X135100000Y-66200000D02*
X136000000Y-66200000D01*
X135100000Y-66100000D02*
X135100000Y-66200000D01*
X135100000Y-63800000D02*
X135100000Y-66100000D01*
%TO.C,MH2*%
X165366666Y-91952380D02*
X165366666Y-90952380D01*
X165700000Y-91666666D01*
X166033333Y-90952380D01*
X166033333Y-91952380D01*
X166509523Y-91952380D02*
X166509523Y-90952380D01*
X166509523Y-91428571D02*
X167080952Y-91428571D01*
X167080952Y-91952380D02*
X167080952Y-90952380D01*
X167509523Y-91047619D02*
X167557142Y-91000000D01*
X167652380Y-90952380D01*
X167890476Y-90952380D01*
X167985714Y-91000000D01*
X168033333Y-91047619D01*
X168080952Y-91142857D01*
X168080952Y-91238095D01*
X168033333Y-91380952D01*
X167461904Y-91952380D01*
X168080952Y-91952380D01*
%TO.C,MH1*%
X102066666Y-39652380D02*
X102066666Y-38652380D01*
X102400000Y-39366666D01*
X102733333Y-38652380D01*
X102733333Y-39652380D01*
X103209523Y-39652380D02*
X103209523Y-38652380D01*
X103209523Y-39128571D02*
X103780952Y-39128571D01*
X103780952Y-39652380D02*
X103780952Y-38652380D01*
X104780952Y-39652380D02*
X104209523Y-39652380D01*
X104495238Y-39652380D02*
X104495238Y-38652380D01*
X104400000Y-38795238D01*
X104304761Y-38890476D01*
X104209523Y-38938095D01*
%TO.C,C14*%
X114757142Y-87242857D02*
X114804761Y-87290476D01*
X114852380Y-87433333D01*
X114852380Y-87528571D01*
X114804761Y-87671428D01*
X114709523Y-87766666D01*
X114614285Y-87814285D01*
X114423809Y-87861904D01*
X114280952Y-87861904D01*
X114090476Y-87814285D01*
X113995238Y-87766666D01*
X113900000Y-87671428D01*
X113852380Y-87528571D01*
X113852380Y-87433333D01*
X113900000Y-87290476D01*
X113947619Y-87242857D01*
X114852380Y-86290476D02*
X114852380Y-86861904D01*
X114852380Y-86576190D02*
X113852380Y-86576190D01*
X113995238Y-86671428D01*
X114090476Y-86766666D01*
X114138095Y-86861904D01*
X114185714Y-85433333D02*
X114852380Y-85433333D01*
X113804761Y-85671428D02*
X114519047Y-85909523D01*
X114519047Y-85290476D01*
%TO.C,C13*%
X113057142Y-87242857D02*
X113104761Y-87290476D01*
X113152380Y-87433333D01*
X113152380Y-87528571D01*
X113104761Y-87671428D01*
X113009523Y-87766666D01*
X112914285Y-87814285D01*
X112723809Y-87861904D01*
X112580952Y-87861904D01*
X112390476Y-87814285D01*
X112295238Y-87766666D01*
X112200000Y-87671428D01*
X112152380Y-87528571D01*
X112152380Y-87433333D01*
X112200000Y-87290476D01*
X112247619Y-87242857D01*
X113152380Y-86290476D02*
X113152380Y-86861904D01*
X113152380Y-86576190D02*
X112152380Y-86576190D01*
X112295238Y-86671428D01*
X112390476Y-86766666D01*
X112438095Y-86861904D01*
X112152380Y-85957142D02*
X112152380Y-85338095D01*
X112533333Y-85671428D01*
X112533333Y-85528571D01*
X112580952Y-85433333D01*
X112628571Y-85385714D01*
X112723809Y-85338095D01*
X112961904Y-85338095D01*
X113057142Y-85385714D01*
X113104761Y-85433333D01*
X113152380Y-85528571D01*
X113152380Y-85814285D01*
X113104761Y-85909523D01*
X113057142Y-85957142D01*
%TO.C,Y1*%
X131076190Y-73526190D02*
X131552380Y-73526190D01*
X130552380Y-73859523D02*
X131076190Y-73526190D01*
X130552380Y-73192857D01*
X131552380Y-72335714D02*
X131552380Y-72907142D01*
X131552380Y-72621428D02*
X130552380Y-72621428D01*
X130695238Y-72716666D01*
X130790476Y-72811904D01*
X130838095Y-72907142D01*
%TO.C,U1*%
X144238095Y-59852380D02*
X144238095Y-60661904D01*
X144285714Y-60757142D01*
X144333333Y-60804761D01*
X144428571Y-60852380D01*
X144619047Y-60852380D01*
X144714285Y-60804761D01*
X144761904Y-60757142D01*
X144809523Y-60661904D01*
X144809523Y-59852380D01*
X145809523Y-60852380D02*
X145238095Y-60852380D01*
X145523809Y-60852380D02*
X145523809Y-59852380D01*
X145428571Y-59995238D01*
X145333333Y-60090476D01*
X145238095Y-60138095D01*
%TO.C,C1*%
X131333333Y-69457142D02*
X131285714Y-69504761D01*
X131142857Y-69552380D01*
X131047619Y-69552380D01*
X130904761Y-69504761D01*
X130809523Y-69409523D01*
X130761904Y-69314285D01*
X130714285Y-69123809D01*
X130714285Y-68980952D01*
X130761904Y-68790476D01*
X130809523Y-68695238D01*
X130904761Y-68600000D01*
X131047619Y-68552380D01*
X131142857Y-68552380D01*
X131285714Y-68600000D01*
X131333333Y-68647619D01*
X132285714Y-69552380D02*
X131714285Y-69552380D01*
X132000000Y-69552380D02*
X132000000Y-68552380D01*
X131904761Y-68695238D01*
X131809523Y-68790476D01*
X131714285Y-68838095D01*
%TO.C,C2*%
X131258333Y-77457142D02*
X131210714Y-77504761D01*
X131067857Y-77552380D01*
X130972619Y-77552380D01*
X130829761Y-77504761D01*
X130734523Y-77409523D01*
X130686904Y-77314285D01*
X130639285Y-77123809D01*
X130639285Y-76980952D01*
X130686904Y-76790476D01*
X130734523Y-76695238D01*
X130829761Y-76600000D01*
X130972619Y-76552380D01*
X131067857Y-76552380D01*
X131210714Y-76600000D01*
X131258333Y-76647619D01*
X131639285Y-76647619D02*
X131686904Y-76600000D01*
X131782142Y-76552380D01*
X132020238Y-76552380D01*
X132115476Y-76600000D01*
X132163095Y-76647619D01*
X132210714Y-76742857D01*
X132210714Y-76838095D01*
X132163095Y-76980952D01*
X131591666Y-77552380D01*
X132210714Y-77552380D01*
%TO.C,C3*%
X132033333Y-63257142D02*
X131985714Y-63304761D01*
X131842857Y-63352380D01*
X131747619Y-63352380D01*
X131604761Y-63304761D01*
X131509523Y-63209523D01*
X131461904Y-63114285D01*
X131414285Y-62923809D01*
X131414285Y-62780952D01*
X131461904Y-62590476D01*
X131509523Y-62495238D01*
X131604761Y-62400000D01*
X131747619Y-62352380D01*
X131842857Y-62352380D01*
X131985714Y-62400000D01*
X132033333Y-62447619D01*
X132366666Y-62352380D02*
X132985714Y-62352380D01*
X132652380Y-62733333D01*
X132795238Y-62733333D01*
X132890476Y-62780952D01*
X132938095Y-62828571D01*
X132985714Y-62923809D01*
X132985714Y-63161904D01*
X132938095Y-63257142D01*
X132890476Y-63304761D01*
X132795238Y-63352380D01*
X132509523Y-63352380D01*
X132414285Y-63304761D01*
X132366666Y-63257142D01*
%TO.C,C4*%
X131333333Y-67557142D02*
X131285714Y-67604761D01*
X131142857Y-67652380D01*
X131047619Y-67652380D01*
X130904761Y-67604761D01*
X130809523Y-67509523D01*
X130761904Y-67414285D01*
X130714285Y-67223809D01*
X130714285Y-67080952D01*
X130761904Y-66890476D01*
X130809523Y-66795238D01*
X130904761Y-66700000D01*
X131047619Y-66652380D01*
X131142857Y-66652380D01*
X131285714Y-66700000D01*
X131333333Y-66747619D01*
X132190476Y-66985714D02*
X132190476Y-67652380D01*
X131952380Y-66604761D02*
X131714285Y-67319047D01*
X132333333Y-67319047D01*
%TO.C,C5*%
X141720833Y-52657142D02*
X141673214Y-52704761D01*
X141530357Y-52752380D01*
X141435119Y-52752380D01*
X141292261Y-52704761D01*
X141197023Y-52609523D01*
X141149404Y-52514285D01*
X141101785Y-52323809D01*
X141101785Y-52180952D01*
X141149404Y-51990476D01*
X141197023Y-51895238D01*
X141292261Y-51800000D01*
X141435119Y-51752380D01*
X141530357Y-51752380D01*
X141673214Y-51800000D01*
X141720833Y-51847619D01*
X142625595Y-51752380D02*
X142149404Y-51752380D01*
X142101785Y-52228571D01*
X142149404Y-52180952D01*
X142244642Y-52133333D01*
X142482738Y-52133333D01*
X142577976Y-52180952D01*
X142625595Y-52228571D01*
X142673214Y-52323809D01*
X142673214Y-52561904D01*
X142625595Y-52657142D01*
X142577976Y-52704761D01*
X142482738Y-52752380D01*
X142244642Y-52752380D01*
X142149404Y-52704761D01*
X142101785Y-52657142D01*
%TO.C,C6*%
X156487142Y-57266666D02*
X156534761Y-57314285D01*
X156582380Y-57457142D01*
X156582380Y-57552380D01*
X156534761Y-57695238D01*
X156439523Y-57790476D01*
X156344285Y-57838095D01*
X156153809Y-57885714D01*
X156010952Y-57885714D01*
X155820476Y-57838095D01*
X155725238Y-57790476D01*
X155630000Y-57695238D01*
X155582380Y-57552380D01*
X155582380Y-57457142D01*
X155630000Y-57314285D01*
X155677619Y-57266666D01*
X155582380Y-56409523D02*
X155582380Y-56600000D01*
X155630000Y-56695238D01*
X155677619Y-56742857D01*
X155820476Y-56838095D01*
X156010952Y-56885714D01*
X156391904Y-56885714D01*
X156487142Y-56838095D01*
X156534761Y-56790476D01*
X156582380Y-56695238D01*
X156582380Y-56504761D01*
X156534761Y-56409523D01*
X156487142Y-56361904D01*
X156391904Y-56314285D01*
X156153809Y-56314285D01*
X156058571Y-56361904D01*
X156010952Y-56409523D01*
X155963333Y-56504761D01*
X155963333Y-56695238D01*
X156010952Y-56790476D01*
X156058571Y-56838095D01*
X156153809Y-56885714D01*
%TO.C,C7*%
X149445833Y-75627142D02*
X149398214Y-75674761D01*
X149255357Y-75722380D01*
X149160119Y-75722380D01*
X149017261Y-75674761D01*
X148922023Y-75579523D01*
X148874404Y-75484285D01*
X148826785Y-75293809D01*
X148826785Y-75150952D01*
X148874404Y-74960476D01*
X148922023Y-74865238D01*
X149017261Y-74770000D01*
X149160119Y-74722380D01*
X149255357Y-74722380D01*
X149398214Y-74770000D01*
X149445833Y-74817619D01*
X149779166Y-74722380D02*
X150445833Y-74722380D01*
X150017261Y-75722380D01*
%TO.C,C8*%
X138927142Y-74854166D02*
X138974761Y-74901785D01*
X139022380Y-75044642D01*
X139022380Y-75139880D01*
X138974761Y-75282738D01*
X138879523Y-75377976D01*
X138784285Y-75425595D01*
X138593809Y-75473214D01*
X138450952Y-75473214D01*
X138260476Y-75425595D01*
X138165238Y-75377976D01*
X138070000Y-75282738D01*
X138022380Y-75139880D01*
X138022380Y-75044642D01*
X138070000Y-74901785D01*
X138117619Y-74854166D01*
X138450952Y-74282738D02*
X138403333Y-74377976D01*
X138355714Y-74425595D01*
X138260476Y-74473214D01*
X138212857Y-74473214D01*
X138117619Y-74425595D01*
X138070000Y-74377976D01*
X138022380Y-74282738D01*
X138022380Y-74092261D01*
X138070000Y-73997023D01*
X138117619Y-73949404D01*
X138212857Y-73901785D01*
X138260476Y-73901785D01*
X138355714Y-73949404D01*
X138403333Y-73997023D01*
X138450952Y-74092261D01*
X138450952Y-74282738D01*
X138498571Y-74377976D01*
X138546190Y-74425595D01*
X138641428Y-74473214D01*
X138831904Y-74473214D01*
X138927142Y-74425595D01*
X138974761Y-74377976D01*
X139022380Y-74282738D01*
X139022380Y-74092261D01*
X138974761Y-73997023D01*
X138927142Y-73949404D01*
X138831904Y-73901785D01*
X138641428Y-73901785D01*
X138546190Y-73949404D01*
X138498571Y-73997023D01*
X138450952Y-74092261D01*
%TO.C,C9*%
X150933333Y-60057142D02*
X150885714Y-60104761D01*
X150742857Y-60152380D01*
X150647619Y-60152380D01*
X150504761Y-60104761D01*
X150409523Y-60009523D01*
X150361904Y-59914285D01*
X150314285Y-59723809D01*
X150314285Y-59580952D01*
X150361904Y-59390476D01*
X150409523Y-59295238D01*
X150504761Y-59200000D01*
X150647619Y-59152380D01*
X150742857Y-59152380D01*
X150885714Y-59200000D01*
X150933333Y-59247619D01*
X151409523Y-60152380D02*
X151600000Y-60152380D01*
X151695238Y-60104761D01*
X151742857Y-60057142D01*
X151838095Y-59914285D01*
X151885714Y-59723809D01*
X151885714Y-59342857D01*
X151838095Y-59247619D01*
X151790476Y-59200000D01*
X151695238Y-59152380D01*
X151504761Y-59152380D01*
X151409523Y-59200000D01*
X151361904Y-59247619D01*
X151314285Y-59342857D01*
X151314285Y-59580952D01*
X151361904Y-59676190D01*
X151409523Y-59723809D01*
X151504761Y-59771428D01*
X151695238Y-59771428D01*
X151790476Y-59723809D01*
X151838095Y-59676190D01*
X151885714Y-59580952D01*
%TO.C,C10*%
X155857142Y-65142857D02*
X155904761Y-65190476D01*
X155952380Y-65333333D01*
X155952380Y-65428571D01*
X155904761Y-65571428D01*
X155809523Y-65666666D01*
X155714285Y-65714285D01*
X155523809Y-65761904D01*
X155380952Y-65761904D01*
X155190476Y-65714285D01*
X155095238Y-65666666D01*
X155000000Y-65571428D01*
X154952380Y-65428571D01*
X154952380Y-65333333D01*
X155000000Y-65190476D01*
X155047619Y-65142857D01*
X155952380Y-64190476D02*
X155952380Y-64761904D01*
X155952380Y-64476190D02*
X154952380Y-64476190D01*
X155095238Y-64571428D01*
X155190476Y-64666666D01*
X155238095Y-64761904D01*
X154952380Y-63571428D02*
X154952380Y-63476190D01*
X155000000Y-63380952D01*
X155047619Y-63333333D01*
X155142857Y-63285714D01*
X155333333Y-63238095D01*
X155571428Y-63238095D01*
X155761904Y-63285714D01*
X155857142Y-63333333D01*
X155904761Y-63380952D01*
X155952380Y-63476190D01*
X155952380Y-63571428D01*
X155904761Y-63666666D01*
X155857142Y-63714285D01*
X155761904Y-63761904D01*
X155571428Y-63809523D01*
X155333333Y-63809523D01*
X155142857Y-63761904D01*
X155047619Y-63714285D01*
X155000000Y-63666666D01*
X154952380Y-63571428D01*
%TO.C,C11*%
X167457142Y-53557142D02*
X167409523Y-53604761D01*
X167266666Y-53652380D01*
X167171428Y-53652380D01*
X167028571Y-53604761D01*
X166933333Y-53509523D01*
X166885714Y-53414285D01*
X166838095Y-53223809D01*
X166838095Y-53080952D01*
X166885714Y-52890476D01*
X166933333Y-52795238D01*
X167028571Y-52700000D01*
X167171428Y-52652380D01*
X167266666Y-52652380D01*
X167409523Y-52700000D01*
X167457142Y-52747619D01*
X168409523Y-53652380D02*
X167838095Y-53652380D01*
X168123809Y-53652380D02*
X168123809Y-52652380D01*
X168028571Y-52795238D01*
X167933333Y-52890476D01*
X167838095Y-52938095D01*
X169361904Y-53652380D02*
X168790476Y-53652380D01*
X169076190Y-53652380D02*
X169076190Y-52652380D01*
X168980952Y-52795238D01*
X168885714Y-52890476D01*
X168790476Y-52938095D01*
%TO.C,C12*%
X173544642Y-54887142D02*
X173497023Y-54934761D01*
X173354166Y-54982380D01*
X173258928Y-54982380D01*
X173116071Y-54934761D01*
X173020833Y-54839523D01*
X172973214Y-54744285D01*
X172925595Y-54553809D01*
X172925595Y-54410952D01*
X172973214Y-54220476D01*
X173020833Y-54125238D01*
X173116071Y-54030000D01*
X173258928Y-53982380D01*
X173354166Y-53982380D01*
X173497023Y-54030000D01*
X173544642Y-54077619D01*
X174497023Y-54982380D02*
X173925595Y-54982380D01*
X174211309Y-54982380D02*
X174211309Y-53982380D01*
X174116071Y-54125238D01*
X174020833Y-54220476D01*
X173925595Y-54268095D01*
X174877976Y-54077619D02*
X174925595Y-54030000D01*
X175020833Y-53982380D01*
X175258928Y-53982380D01*
X175354166Y-54030000D01*
X175401785Y-54077619D01*
X175449404Y-54172857D01*
X175449404Y-54268095D01*
X175401785Y-54410952D01*
X174830357Y-54982380D01*
X175449404Y-54982380D01*
%TO.C,D1*%
X164161904Y-53552380D02*
X164161904Y-52552380D01*
X164400000Y-52552380D01*
X164542857Y-52600000D01*
X164638095Y-52695238D01*
X164685714Y-52790476D01*
X164733333Y-52980952D01*
X164733333Y-53123809D01*
X164685714Y-53314285D01*
X164638095Y-53409523D01*
X164542857Y-53504761D01*
X164400000Y-53552380D01*
X164161904Y-53552380D01*
X165685714Y-53552380D02*
X165114285Y-53552380D01*
X165400000Y-53552380D02*
X165400000Y-52552380D01*
X165304761Y-52695238D01*
X165209523Y-52790476D01*
X165114285Y-52838095D01*
%TO.C,J1*%
X140866666Y-55052380D02*
X140866666Y-55766666D01*
X140819047Y-55909523D01*
X140723809Y-56004761D01*
X140580952Y-56052380D01*
X140485714Y-56052380D01*
X141866666Y-56052380D02*
X141295238Y-56052380D01*
X141580952Y-56052380D02*
X141580952Y-55052380D01*
X141485714Y-55195238D01*
X141390476Y-55290476D01*
X141295238Y-55338095D01*
%TO.C,J2*%
X102022380Y-94233333D02*
X102736666Y-94233333D01*
X102879523Y-94280952D01*
X102974761Y-94376190D01*
X103022380Y-94519047D01*
X103022380Y-94614285D01*
X102117619Y-93804761D02*
X102070000Y-93757142D01*
X102022380Y-93661904D01*
X102022380Y-93423809D01*
X102070000Y-93328571D01*
X102117619Y-93280952D01*
X102212857Y-93233333D01*
X102308095Y-93233333D01*
X102450952Y-93280952D01*
X103022380Y-93852380D01*
X103022380Y-93233333D01*
%TO.C,J3*%
X169752380Y-92633333D02*
X170466666Y-92633333D01*
X170609523Y-92680952D01*
X170704761Y-92776190D01*
X170752380Y-92919047D01*
X170752380Y-93014285D01*
X169752380Y-92252380D02*
X169752380Y-91633333D01*
X170133333Y-91966666D01*
X170133333Y-91823809D01*
X170180952Y-91728571D01*
X170228571Y-91680952D01*
X170323809Y-91633333D01*
X170561904Y-91633333D01*
X170657142Y-91680952D01*
X170704761Y-91728571D01*
X170752380Y-91823809D01*
X170752380Y-92109523D01*
X170704761Y-92204761D01*
X170657142Y-92252380D01*
%TO.C,J4*%
X169652380Y-80533333D02*
X170366666Y-80533333D01*
X170509523Y-80580952D01*
X170604761Y-80676190D01*
X170652380Y-80819047D01*
X170652380Y-80914285D01*
X169985714Y-79628571D02*
X170652380Y-79628571D01*
X169604761Y-79866666D02*
X170319047Y-80104761D01*
X170319047Y-79485714D01*
%TO.C,J5*%
X169066666Y-46864880D02*
X169066666Y-47579166D01*
X169019047Y-47722023D01*
X168923809Y-47817261D01*
X168780952Y-47864880D01*
X168685714Y-47864880D01*
X170019047Y-46864880D02*
X169542857Y-46864880D01*
X169495238Y-47341071D01*
X169542857Y-47293452D01*
X169638095Y-47245833D01*
X169876190Y-47245833D01*
X169971428Y-47293452D01*
X170019047Y-47341071D01*
X170066666Y-47436309D01*
X170066666Y-47674404D01*
X170019047Y-47769642D01*
X169971428Y-47817261D01*
X169876190Y-47864880D01*
X169638095Y-47864880D01*
X169542857Y-47817261D01*
X169495238Y-47769642D01*
%TO.C,J6*%
X129262380Y-90008333D02*
X129976666Y-90008333D01*
X130119523Y-90055952D01*
X130214761Y-90151190D01*
X130262380Y-90294047D01*
X130262380Y-90389285D01*
X129262380Y-89103571D02*
X129262380Y-89294047D01*
X129310000Y-89389285D01*
X129357619Y-89436904D01*
X129500476Y-89532142D01*
X129690952Y-89579761D01*
X130071904Y-89579761D01*
X130167142Y-89532142D01*
X130214761Y-89484523D01*
X130262380Y-89389285D01*
X130262380Y-89198809D01*
X130214761Y-89103571D01*
X130167142Y-89055952D01*
X130071904Y-89008333D01*
X129833809Y-89008333D01*
X129738571Y-89055952D01*
X129690952Y-89103571D01*
X129643333Y-89198809D01*
X129643333Y-89389285D01*
X129690952Y-89484523D01*
X129738571Y-89532142D01*
X129833809Y-89579761D01*
%TO.C,J7*%
X163252380Y-64933333D02*
X163966666Y-64933333D01*
X164109523Y-64980952D01*
X164204761Y-65076190D01*
X164252380Y-65219047D01*
X164252380Y-65314285D01*
X163252380Y-64552380D02*
X163252380Y-63885714D01*
X164252380Y-64314285D01*
%TO.C,J8*%
X123152380Y-89883333D02*
X123866666Y-89883333D01*
X124009523Y-89930952D01*
X124104761Y-90026190D01*
X124152380Y-90169047D01*
X124152380Y-90264285D01*
X123580952Y-89264285D02*
X123533333Y-89359523D01*
X123485714Y-89407142D01*
X123390476Y-89454761D01*
X123342857Y-89454761D01*
X123247619Y-89407142D01*
X123200000Y-89359523D01*
X123152380Y-89264285D01*
X123152380Y-89073809D01*
X123200000Y-88978571D01*
X123247619Y-88930952D01*
X123342857Y-88883333D01*
X123390476Y-88883333D01*
X123485714Y-88930952D01*
X123533333Y-88978571D01*
X123580952Y-89073809D01*
X123580952Y-89264285D01*
X123628571Y-89359523D01*
X123676190Y-89407142D01*
X123771428Y-89454761D01*
X123961904Y-89454761D01*
X124057142Y-89407142D01*
X124104761Y-89359523D01*
X124152380Y-89264285D01*
X124152380Y-89073809D01*
X124104761Y-88978571D01*
X124057142Y-88930952D01*
X123961904Y-88883333D01*
X123771428Y-88883333D01*
X123676190Y-88930952D01*
X123628571Y-88978571D01*
X123580952Y-89073809D01*
%TO.C,J9*%
X135566666Y-41152380D02*
X135566666Y-41866666D01*
X135519047Y-42009523D01*
X135423809Y-42104761D01*
X135280952Y-42152380D01*
X135185714Y-42152380D01*
X136090476Y-42152380D02*
X136280952Y-42152380D01*
X136376190Y-42104761D01*
X136423809Y-42057142D01*
X136519047Y-41914285D01*
X136566666Y-41723809D01*
X136566666Y-41342857D01*
X136519047Y-41247619D01*
X136471428Y-41200000D01*
X136376190Y-41152380D01*
X136185714Y-41152380D01*
X136090476Y-41200000D01*
X136042857Y-41247619D01*
X135995238Y-41342857D01*
X135995238Y-41580952D01*
X136042857Y-41676190D01*
X136090476Y-41723809D01*
X136185714Y-41771428D01*
X136376190Y-41771428D01*
X136471428Y-41723809D01*
X136519047Y-41676190D01*
X136566666Y-41580952D01*
%TO.C,J10*%
X172390476Y-55352380D02*
X172390476Y-56066666D01*
X172342857Y-56209523D01*
X172247619Y-56304761D01*
X172104761Y-56352380D01*
X172009523Y-56352380D01*
X173390476Y-56352380D02*
X172819047Y-56352380D01*
X173104761Y-56352380D02*
X173104761Y-55352380D01*
X173009523Y-55495238D01*
X172914285Y-55590476D01*
X172819047Y-55638095D01*
X174009523Y-55352380D02*
X174104761Y-55352380D01*
X174200000Y-55400000D01*
X174247619Y-55447619D01*
X174295238Y-55542857D01*
X174342857Y-55733333D01*
X174342857Y-55971428D01*
X174295238Y-56161904D01*
X174247619Y-56257142D01*
X174200000Y-56304761D01*
X174104761Y-56352380D01*
X174009523Y-56352380D01*
X173914285Y-56304761D01*
X173866666Y-56257142D01*
X173819047Y-56161904D01*
X173771428Y-55971428D01*
X173771428Y-55733333D01*
X173819047Y-55542857D01*
X173866666Y-55447619D01*
X173914285Y-55400000D01*
X174009523Y-55352380D01*
%TO.C,J11*%
X144562380Y-90584523D02*
X145276666Y-90584523D01*
X145419523Y-90632142D01*
X145514761Y-90727380D01*
X145562380Y-90870238D01*
X145562380Y-90965476D01*
X145562380Y-89584523D02*
X145562380Y-90155952D01*
X145562380Y-89870238D02*
X144562380Y-89870238D01*
X144705238Y-89965476D01*
X144800476Y-90060714D01*
X144848095Y-90155952D01*
X145562380Y-88632142D02*
X145562380Y-89203571D01*
X145562380Y-88917857D02*
X144562380Y-88917857D01*
X144705238Y-89013095D01*
X144800476Y-89108333D01*
X144848095Y-89203571D01*
%TO.C,J12*%
X152690476Y-74252380D02*
X152690476Y-74966666D01*
X152642857Y-75109523D01*
X152547619Y-75204761D01*
X152404761Y-75252380D01*
X152309523Y-75252380D01*
X153690476Y-75252380D02*
X153119047Y-75252380D01*
X153404761Y-75252380D02*
X153404761Y-74252380D01*
X153309523Y-74395238D01*
X153214285Y-74490476D01*
X153119047Y-74538095D01*
X154071428Y-74347619D02*
X154119047Y-74300000D01*
X154214285Y-74252380D01*
X154452380Y-74252380D01*
X154547619Y-74300000D01*
X154595238Y-74347619D01*
X154642857Y-74442857D01*
X154642857Y-74538095D01*
X154595238Y-74680952D01*
X154023809Y-75252380D01*
X154642857Y-75252380D01*
%TO.C,J13*%
X160702380Y-46839523D02*
X161416666Y-46839523D01*
X161559523Y-46887142D01*
X161654761Y-46982380D01*
X161702380Y-47125238D01*
X161702380Y-47220476D01*
X161702380Y-45839523D02*
X161702380Y-46410952D01*
X161702380Y-46125238D02*
X160702380Y-46125238D01*
X160845238Y-46220476D01*
X160940476Y-46315714D01*
X160988095Y-46410952D01*
X160702380Y-45506190D02*
X160702380Y-44887142D01*
X161083333Y-45220476D01*
X161083333Y-45077619D01*
X161130952Y-44982380D01*
X161178571Y-44934761D01*
X161273809Y-44887142D01*
X161511904Y-44887142D01*
X161607142Y-44934761D01*
X161654761Y-44982380D01*
X161702380Y-45077619D01*
X161702380Y-45363333D01*
X161654761Y-45458571D01*
X161607142Y-45506190D01*
%TO.C,R1*%
X114520833Y-91882380D02*
X114187500Y-91406190D01*
X113949404Y-91882380D02*
X113949404Y-90882380D01*
X114330357Y-90882380D01*
X114425595Y-90930000D01*
X114473214Y-90977619D01*
X114520833Y-91072857D01*
X114520833Y-91215714D01*
X114473214Y-91310952D01*
X114425595Y-91358571D01*
X114330357Y-91406190D01*
X113949404Y-91406190D01*
X115473214Y-91882380D02*
X114901785Y-91882380D01*
X115187500Y-91882380D02*
X115187500Y-90882380D01*
X115092261Y-91025238D01*
X114997023Y-91120476D01*
X114901785Y-91168095D01*
%TO.C,R2*%
X111145833Y-91882380D02*
X110812500Y-91406190D01*
X110574404Y-91882380D02*
X110574404Y-90882380D01*
X110955357Y-90882380D01*
X111050595Y-90930000D01*
X111098214Y-90977619D01*
X111145833Y-91072857D01*
X111145833Y-91215714D01*
X111098214Y-91310952D01*
X111050595Y-91358571D01*
X110955357Y-91406190D01*
X110574404Y-91406190D01*
X111526785Y-90977619D02*
X111574404Y-90930000D01*
X111669642Y-90882380D01*
X111907738Y-90882380D01*
X112002976Y-90930000D01*
X112050595Y-90977619D01*
X112098214Y-91072857D01*
X112098214Y-91168095D01*
X112050595Y-91310952D01*
X111479166Y-91882380D01*
X112098214Y-91882380D01*
%TO.C,R3*%
X147233333Y-54252380D02*
X146900000Y-53776190D01*
X146661904Y-54252380D02*
X146661904Y-53252380D01*
X147042857Y-53252380D01*
X147138095Y-53300000D01*
X147185714Y-53347619D01*
X147233333Y-53442857D01*
X147233333Y-53585714D01*
X147185714Y-53680952D01*
X147138095Y-53728571D01*
X147042857Y-53776190D01*
X146661904Y-53776190D01*
X147566666Y-53252380D02*
X148185714Y-53252380D01*
X147852380Y-53633333D01*
X147995238Y-53633333D01*
X148090476Y-53680952D01*
X148138095Y-53728571D01*
X148185714Y-53823809D01*
X148185714Y-54061904D01*
X148138095Y-54157142D01*
X148090476Y-54204761D01*
X147995238Y-54252380D01*
X147709523Y-54252380D01*
X147614285Y-54204761D01*
X147566666Y-54157142D01*
%TO.C,R4*%
X170882380Y-66379166D02*
X170406190Y-66712500D01*
X170882380Y-66950595D02*
X169882380Y-66950595D01*
X169882380Y-66569642D01*
X169930000Y-66474404D01*
X169977619Y-66426785D01*
X170072857Y-66379166D01*
X170215714Y-66379166D01*
X170310952Y-66426785D01*
X170358571Y-66474404D01*
X170406190Y-66569642D01*
X170406190Y-66950595D01*
X170215714Y-65522023D02*
X170882380Y-65522023D01*
X169834761Y-65760119D02*
X170549047Y-65998214D01*
X170549047Y-65379166D01*
%TO.C,R5*%
X169622380Y-50554166D02*
X169146190Y-50887500D01*
X169622380Y-51125595D02*
X168622380Y-51125595D01*
X168622380Y-50744642D01*
X168670000Y-50649404D01*
X168717619Y-50601785D01*
X168812857Y-50554166D01*
X168955714Y-50554166D01*
X169050952Y-50601785D01*
X169098571Y-50649404D01*
X169146190Y-50744642D01*
X169146190Y-51125595D01*
X168622380Y-49649404D02*
X168622380Y-50125595D01*
X169098571Y-50173214D01*
X169050952Y-50125595D01*
X169003333Y-50030357D01*
X169003333Y-49792261D01*
X169050952Y-49697023D01*
X169098571Y-49649404D01*
X169193809Y-49601785D01*
X169431904Y-49601785D01*
X169527142Y-49649404D01*
X169574761Y-49697023D01*
X169622380Y-49792261D01*
X169622380Y-50030357D01*
X169574761Y-50125595D01*
X169527142Y-50173214D01*
%TO.C,R6*%
X170882380Y-62854166D02*
X170406190Y-63187500D01*
X170882380Y-63425595D02*
X169882380Y-63425595D01*
X169882380Y-63044642D01*
X169930000Y-62949404D01*
X169977619Y-62901785D01*
X170072857Y-62854166D01*
X170215714Y-62854166D01*
X170310952Y-62901785D01*
X170358571Y-62949404D01*
X170406190Y-63044642D01*
X170406190Y-63425595D01*
X169882380Y-61997023D02*
X169882380Y-62187500D01*
X169930000Y-62282738D01*
X169977619Y-62330357D01*
X170120476Y-62425595D01*
X170310952Y-62473214D01*
X170691904Y-62473214D01*
X170787142Y-62425595D01*
X170834761Y-62377976D01*
X170882380Y-62282738D01*
X170882380Y-62092261D01*
X170834761Y-61997023D01*
X170787142Y-61949404D01*
X170691904Y-61901785D01*
X170453809Y-61901785D01*
X170358571Y-61949404D01*
X170310952Y-61997023D01*
X170263333Y-62092261D01*
X170263333Y-62282738D01*
X170310952Y-62377976D01*
X170358571Y-62425595D01*
X170453809Y-62473214D01*
%TO.C,SW1*%
X149166666Y-54804761D02*
X149309523Y-54852380D01*
X149547619Y-54852380D01*
X149642857Y-54804761D01*
X149690476Y-54757142D01*
X149738095Y-54661904D01*
X149738095Y-54566666D01*
X149690476Y-54471428D01*
X149642857Y-54423809D01*
X149547619Y-54376190D01*
X149357142Y-54328571D01*
X149261904Y-54280952D01*
X149214285Y-54233333D01*
X149166666Y-54138095D01*
X149166666Y-54042857D01*
X149214285Y-53947619D01*
X149261904Y-53900000D01*
X149357142Y-53852380D01*
X149595238Y-53852380D01*
X149738095Y-53900000D01*
X150071428Y-53852380D02*
X150309523Y-54852380D01*
X150500000Y-54138095D01*
X150690476Y-54852380D01*
X150928571Y-53852380D01*
X151833333Y-54852380D02*
X151261904Y-54852380D01*
X151547619Y-54852380D02*
X151547619Y-53852380D01*
X151452380Y-53995238D01*
X151357142Y-54090476D01*
X151261904Y-54138095D01*
%TO.C,U2*%
X166338095Y-85452380D02*
X166338095Y-86261904D01*
X166385714Y-86357142D01*
X166433333Y-86404761D01*
X166528571Y-86452380D01*
X166719047Y-86452380D01*
X166814285Y-86404761D01*
X166861904Y-86357142D01*
X166909523Y-86261904D01*
X166909523Y-85452380D01*
X167338095Y-85547619D02*
X167385714Y-85500000D01*
X167480952Y-85452380D01*
X167719047Y-85452380D01*
X167814285Y-85500000D01*
X167861904Y-85547619D01*
X167909523Y-85642857D01*
X167909523Y-85738095D01*
X167861904Y-85880952D01*
X167290476Y-86452380D01*
X167909523Y-86452380D01*
%TO.C,U3*%
X166338095Y-73952380D02*
X166338095Y-74761904D01*
X166385714Y-74857142D01*
X166433333Y-74904761D01*
X166528571Y-74952380D01*
X166719047Y-74952380D01*
X166814285Y-74904761D01*
X166861904Y-74857142D01*
X166909523Y-74761904D01*
X166909523Y-73952380D01*
X167290476Y-73952380D02*
X167909523Y-73952380D01*
X167576190Y-74333333D01*
X167719047Y-74333333D01*
X167814285Y-74380952D01*
X167861904Y-74428571D01*
X167909523Y-74523809D01*
X167909523Y-74761904D01*
X167861904Y-74857142D01*
X167814285Y-74904761D01*
X167719047Y-74952380D01*
X167433333Y-74952380D01*
X167338095Y-74904761D01*
X167290476Y-74857142D01*
%TO.C,U4*%
X172738095Y-46852380D02*
X172738095Y-47661904D01*
X172785714Y-47757142D01*
X172833333Y-47804761D01*
X172928571Y-47852380D01*
X173119047Y-47852380D01*
X173214285Y-47804761D01*
X173261904Y-47757142D01*
X173309523Y-47661904D01*
X173309523Y-46852380D01*
X174214285Y-47185714D02*
X174214285Y-47852380D01*
X173976190Y-46804761D02*
X173738095Y-47519047D01*
X174357142Y-47519047D01*
%TO.C,U5*%
X134938095Y-53152380D02*
X134938095Y-53961904D01*
X134985714Y-54057142D01*
X135033333Y-54104761D01*
X135128571Y-54152380D01*
X135319047Y-54152380D01*
X135414285Y-54104761D01*
X135461904Y-54057142D01*
X135509523Y-53961904D01*
X135509523Y-53152380D01*
X136461904Y-53152380D02*
X135985714Y-53152380D01*
X135938095Y-53628571D01*
X135985714Y-53580952D01*
X136080952Y-53533333D01*
X136319047Y-53533333D01*
X136414285Y-53580952D01*
X136461904Y-53628571D01*
X136509523Y-53723809D01*
X136509523Y-53961904D01*
X136461904Y-54057142D01*
X136414285Y-54104761D01*
X136319047Y-54152380D01*
X136080952Y-54152380D01*
X135985714Y-54104761D01*
X135938095Y-54057142D01*
%TO.C,U6*%
X118252380Y-69161904D02*
X119061904Y-69161904D01*
X119157142Y-69114285D01*
X119204761Y-69066666D01*
X119252380Y-68971428D01*
X119252380Y-68780952D01*
X119204761Y-68685714D01*
X119157142Y-68638095D01*
X119061904Y-68590476D01*
X118252380Y-68590476D01*
X118252380Y-67685714D02*
X118252380Y-67876190D01*
X118300000Y-67971428D01*
X118347619Y-68019047D01*
X118490476Y-68114285D01*
X118680952Y-68161904D01*
X119061904Y-68161904D01*
X119157142Y-68114285D01*
X119204761Y-68066666D01*
X119252380Y-67971428D01*
X119252380Y-67780952D01*
X119204761Y-67685714D01*
X119157142Y-67638095D01*
X119061904Y-67590476D01*
X118823809Y-67590476D01*
X118728571Y-67638095D01*
X118680952Y-67685714D01*
X118633333Y-67780952D01*
X118633333Y-67971428D01*
X118680952Y-68066666D01*
X118728571Y-68114285D01*
X118823809Y-68161904D01*
X122966666Y-46542857D02*
X122966666Y-46066666D01*
X123252380Y-46638095D02*
X122252380Y-46304761D01*
X123252380Y-45971428D01*
X123252380Y-45638095D02*
X122252380Y-45638095D01*
X123252380Y-45066666D01*
X122252380Y-45066666D01*
X122252380Y-44733333D02*
X122252380Y-44161904D01*
X123252380Y-44447619D02*
X122252380Y-44447619D01*
X102752380Y-55614285D02*
X102752380Y-56185714D01*
X102752380Y-55900000D02*
X101752380Y-55900000D01*
X101895238Y-55995238D01*
X101990476Y-56090476D01*
X102038095Y-56185714D01*
X112228571Y-73209523D02*
X112228571Y-72876190D01*
X112752380Y-72733333D02*
X112752380Y-73209523D01*
X111752380Y-73209523D01*
X111752380Y-72733333D01*
X112752380Y-71780952D02*
X112752380Y-72352380D01*
X112752380Y-72066666D02*
X111752380Y-72066666D01*
X111895238Y-72161904D01*
X111990476Y-72257142D01*
X112038095Y-72352380D01*
X112752380Y-71304761D02*
X112752380Y-71114285D01*
X112704761Y-71019047D01*
X112657142Y-70971428D01*
X112514285Y-70876190D01*
X112323809Y-70828571D01*
X111942857Y-70828571D01*
X111847619Y-70876190D01*
X111800000Y-70923809D01*
X111752380Y-71019047D01*
X111752380Y-71209523D01*
X111800000Y-71304761D01*
X111847619Y-71352380D01*
X111942857Y-71400000D01*
X112180952Y-71400000D01*
X112276190Y-71352380D01*
X112323809Y-71304761D01*
X112371428Y-71209523D01*
X112371428Y-71019047D01*
X112323809Y-70923809D01*
X112276190Y-70876190D01*
X112180952Y-70828571D01*
X112371428Y-70400000D02*
X112371428Y-69638095D01*
X112180952Y-69019047D02*
X112133333Y-69114285D01*
X112085714Y-69161904D01*
X111990476Y-69209523D01*
X111942857Y-69209523D01*
X111847619Y-69161904D01*
X111800000Y-69114285D01*
X111752380Y-69019047D01*
X111752380Y-68828571D01*
X111800000Y-68733333D01*
X111847619Y-68685714D01*
X111942857Y-68638095D01*
X111990476Y-68638095D01*
X112085714Y-68685714D01*
X112133333Y-68733333D01*
X112180952Y-68828571D01*
X112180952Y-69019047D01*
X112228571Y-69114285D01*
X112276190Y-69161904D01*
X112371428Y-69209523D01*
X112561904Y-69209523D01*
X112657142Y-69161904D01*
X112704761Y-69114285D01*
X112752380Y-69019047D01*
X112752380Y-68828571D01*
X112704761Y-68733333D01*
X112657142Y-68685714D01*
X112561904Y-68638095D01*
X112371428Y-68638095D01*
X112276190Y-68685714D01*
X112228571Y-68733333D01*
X112180952Y-68828571D01*
X111752380Y-67780952D02*
X111752380Y-67971428D01*
X111800000Y-68066666D01*
X111847619Y-68114285D01*
X111990476Y-68209523D01*
X112180952Y-68257142D01*
X112561904Y-68257142D01*
X112657142Y-68209523D01*
X112704761Y-68161904D01*
X112752380Y-68066666D01*
X112752380Y-67876190D01*
X112704761Y-67780952D01*
X112657142Y-67733333D01*
X112561904Y-67685714D01*
X112323809Y-67685714D01*
X112228571Y-67733333D01*
X112180952Y-67780952D01*
X112133333Y-67876190D01*
X112133333Y-68066666D01*
X112180952Y-68161904D01*
X112228571Y-68209523D01*
X112323809Y-68257142D01*
X112180952Y-67114285D02*
X112133333Y-67209523D01*
X112085714Y-67257142D01*
X111990476Y-67304761D01*
X111942857Y-67304761D01*
X111847619Y-67257142D01*
X111800000Y-67209523D01*
X111752380Y-67114285D01*
X111752380Y-66923809D01*
X111800000Y-66828571D01*
X111847619Y-66780952D01*
X111942857Y-66733333D01*
X111990476Y-66733333D01*
X112085714Y-66780952D01*
X112133333Y-66828571D01*
X112180952Y-66923809D01*
X112180952Y-67114285D01*
X112228571Y-67209523D01*
X112276190Y-67257142D01*
X112371428Y-67304761D01*
X112561904Y-67304761D01*
X112657142Y-67257142D01*
X112704761Y-67209523D01*
X112752380Y-67114285D01*
X112752380Y-66923809D01*
X112704761Y-66828571D01*
X112657142Y-66780952D01*
X112561904Y-66733333D01*
X112371428Y-66733333D01*
X112276190Y-66780952D01*
X112228571Y-66828571D01*
X112180952Y-66923809D01*
X112752380Y-66304761D02*
X111752380Y-66304761D01*
X112466666Y-65971428D01*
X111752380Y-65638095D01*
X112752380Y-65638095D01*
X112704761Y-65209523D02*
X112752380Y-65066666D01*
X112752380Y-64828571D01*
X112704761Y-64733333D01*
X112657142Y-64685714D01*
X112561904Y-64638095D01*
X112466666Y-64638095D01*
X112371428Y-64685714D01*
X112323809Y-64733333D01*
X112276190Y-64828571D01*
X112228571Y-65019047D01*
X112180952Y-65114285D01*
X112133333Y-65161904D01*
X112038095Y-65209523D01*
X111942857Y-65209523D01*
X111847619Y-65161904D01*
X111800000Y-65114285D01*
X111752380Y-65019047D01*
X111752380Y-64780952D01*
X111800000Y-64638095D01*
X112752380Y-63685714D02*
X112752380Y-64257142D01*
X112752380Y-63971428D02*
X111752380Y-63971428D01*
X111895238Y-64066666D01*
X111990476Y-64161904D01*
X112038095Y-64257142D01*
X111752380Y-63352380D02*
X112752380Y-63114285D01*
X112038095Y-62923809D01*
X112752380Y-62733333D01*
X111752380Y-62495238D01*
%TO.C,Y2*%
X134376190Y-65476190D02*
X134852380Y-65476190D01*
X133852380Y-65809523D02*
X134376190Y-65476190D01*
X133852380Y-65142857D01*
X133947619Y-64857142D02*
X133900000Y-64809523D01*
X133852380Y-64714285D01*
X133852380Y-64476190D01*
X133900000Y-64380952D01*
X133947619Y-64333333D01*
X134042857Y-64285714D01*
X134138095Y-64285714D01*
X134280952Y-64333333D01*
X134852380Y-64904761D01*
X134852380Y-64285714D01*
%TD*%
M02*
