M48
; DRILL file {KiCad 5.1.6-c6e7f7d~86~ubuntu20.04.1} date Wed Jun  3 17:40:26 2020
; FORMAT={-:-/ absolute / inch / decimal}
; #@! TF.CreationDate,2020-06-03T17:40:26+02:00
; #@! TF.GenerationSoftware,Kicad,Pcbnew,5.1.6-c6e7f7d~86~ubuntu20.04.1
; #@! TF.FileFunction,Plated,1,2,PTH
FMAT,2
INCH
T1C0.0157
T2C0.0236
T3C0.0335
T4C0.0374
T5C0.0394
T6C0.0866
%
G90
G05
T1
X4.2441Y-2.4764
X4.248Y-3.0394
X4.2598Y-3.2677
X4.2598Y-3.3543
X4.6433Y-2.9866
X4.6763Y-3.0599
X4.6974Y-3.1215
X4.7677Y-1.811
X4.7717Y-3.2598
X5.0472Y-1.9449
X5.1142Y-3.7283
X5.1181Y-2.1181
X5.1565Y-2.5118
X5.1693Y-3.3268
X5.1811Y-2.4173
X5.1811Y-3.0581
X5.2323Y-2.374
X5.3031Y-2.437
X5.3346Y-3.3031
X5.3661Y-1.9882
X5.4055Y-3.2795
X5.4094Y-2.4449
X5.4173Y-1.9843
X5.4646Y-1.9291
X5.4961Y-3.0512
X5.5118Y-2.9094
X5.5236Y-2.4055
X5.5236Y-3.0866
X5.5276Y-3.0276
X5.5315Y-3.2795
X5.5394Y-2.5039
X5.5433Y-3.3346
X5.5512Y-2.2199
X5.5515Y-3.1145
X5.5541Y-2.6959
X5.5551Y-3.7333
X5.5591Y-2.5551
X5.5827Y-2.6378
X5.5906Y-2.7362
X5.613Y-2.3673
X5.6142Y-2.9488
X5.6181Y-2.7795
X5.622Y-3.1457
X5.6264Y-3.1848
X5.6345Y-3.04
X5.6464Y-3.0008
X5.6515Y-2.7587
X5.6535Y-3.7047
X5.6772Y-3.2047
X5.6929Y-3.7323
X5.7008Y-2.2835
X5.7362Y-3.1535
X5.7414Y-2.6063
X5.7471Y-2.5447
X5.748Y-3.378
X5.7638Y-2.6654
X5.7687Y-2.5118
X5.7874Y-3.0748
X5.7874Y-3.122
X5.8031Y-2.6693
X5.815Y-2.5669
X5.8162Y-2.7413
X5.8307Y-2.3622
X5.8307Y-2.8071
X5.8351Y-3.0822
X5.8504Y-2.6929
X5.8504Y-3.7047
X5.8543Y-2.6457
X5.8553Y-2.732
X5.8583Y-3.1535
X5.8661Y-3.3386
X5.874Y-1.9764
X5.8976Y-2.4803
X5.9055Y-2.3307
X5.9055Y-2.4055
X5.9764Y-2.2835
X5.9882Y-2.1378
X6.0Y-3.0945
X6.0028Y-2.5956
X6.0307Y-2.6234
X6.063Y-1.9764
X6.0669Y-2.122
X6.0738Y-2.3573
X6.1102Y-3.0591
X6.1575Y-3.2874
X6.1614Y-3.063
X6.1693Y-1.7795
X6.2244Y-2.5984
X6.374Y-3.2835
X6.3976Y-3.1575
X6.3976Y-3.5
X6.4173Y-2.0787
X6.4606Y-3.0472
X6.5197Y-2.6732
X6.5472Y-3.311
X6.5709Y-2.8307
X6.5748Y-2.5591
X6.5827Y-2.4488
X6.5866Y-3.1496
X6.5984Y-3.2205
X6.6063Y-2.9528
X6.6654Y-1.8661
X6.6991Y-1.899
X6.7165Y-2.3622
X6.8622Y-1.7874
X4.0059Y-1.6693
X4.0249Y-1.6234
X4.0249Y-1.7152
X4.0709Y-1.6043
X4.0709Y-1.7343
X4.1168Y-1.6234
X4.1168Y-1.7152
X4.1358Y-1.6693
X6.498Y-3.7283
X6.5171Y-3.6824
X6.5171Y-3.7743
X6.563Y-3.6634
X6.563Y-3.7933
X6.6089Y-3.6824
X6.6089Y-3.7743
X6.628Y-3.7283
T3
X6.5709Y-1.8017
X6.7677Y-1.8017
T4
X6.811Y-3.4173
X6.811Y-3.5157
X6.811Y-3.6142
X6.811Y-2.9606
X6.811Y-3.0591
X6.811Y-3.1575
X6.3425Y-2.437
X6.3425Y-2.5354
X6.3425Y-2.6339
X6.3425Y-2.7323
X4.9803Y-3.378
X4.9803Y-3.4764
X4.9803Y-3.5748
X4.9803Y-3.6732
T5
X4.1299Y-3.6969
X4.2299Y-3.6969
X4.3299Y-3.6969
X4.4299Y-3.6969
X4.5299Y-3.6969
X4.6299Y-3.6969
X4.7299Y-3.6969
T6
X4.0709Y-1.6693
X6.563Y-3.7283
T2
G00X6.5315Y-1.7092
M15
G01X6.5315Y-1.6816
M16
G05
G00X6.8071Y-1.6816
M15
G01X6.8071Y-1.7092
M16
G05
T0
M30
