M48
; DRILL file {KiCad 5.1.6-c6e7f7d~87~ubuntu20.04.1} date Tue Sep  8 12:35:42 2020
; FORMAT={-:-/ absolute / inch / decimal}
; #@! TF.CreationDate,2020-09-08T12:35:42+02:00
; #@! TF.GenerationSoftware,Kicad,Pcbnew,5.1.6-c6e7f7d~87~ubuntu20.04.1
; #@! TF.FileFunction,Plated,1,2,PTH
FMAT,2
INCH
T1C0.0157
T2C0.0236
T3C0.0335
T4C0.0374
T5C0.0394
%
G90
G05
T1
X4.1654Y-2.874
X4.1969Y-2.622
X4.2598Y-3.2677
X4.2598Y-3.3543
X4.2756Y-2.7008
X4.3543Y-2.5354
X4.3543Y-2.815
X4.4409Y-2.622
X4.4685Y-2.5276
X4.4789Y-2.7463
X4.4882Y-2.7047
X4.5748Y-2.5315
X4.6299Y-2.2756
X4.6603Y-3.131
X4.6929Y-2.4528
X4.7047Y-3.126
X4.7441Y-3.1663
X4.7717Y-3.2598
X4.7913Y-2.4646
X4.874Y-2.4764
X4.9055Y-2.3425
X5.1142Y-3.7283
X5.1181Y-2.1181
X5.1339Y-2.1929
X5.1339Y-2.4528
X5.1368Y-2.5827
X5.1654Y-2.7362
X5.1693Y-3.3268
X5.1811Y-3.0581
X5.2323Y-2.374
X5.3031Y-2.437
X5.3346Y-3.3031
X5.3661Y-1.9882
X5.4055Y-3.2795
X5.4094Y-2.4449
X5.4173Y-1.9843
X5.4646Y-1.9291
X5.4961Y-3.0512
X5.5118Y-2.9094
X5.5236Y-2.4055
X5.5239Y-3.079
X5.5276Y-3.0276
X5.5315Y-3.2795
X5.5394Y-2.5039
X5.5433Y-3.3346
X5.5512Y-2.2199
X5.5541Y-2.6959
X5.5551Y-3.1171
X5.5551Y-3.7333
X5.5591Y-2.5551
X5.5827Y-2.6378
X5.5906Y-2.7362
X5.5984Y-3.1457
X5.613Y-2.3673
X5.6142Y-2.9488
X5.6181Y-2.7795
X5.6264Y-3.1848
X5.6464Y-3.0008
X5.6515Y-2.7587
X5.6535Y-3.7047
X5.6575Y-3.0591
X5.6772Y-3.2047
X5.6929Y-3.7323
X5.7008Y-2.2835
X5.7362Y-3.1535
X5.7414Y-2.6063
X5.7471Y-2.5447
X5.748Y-3.378
X5.7638Y-2.6654
X5.7687Y-2.5118
X5.7874Y-3.0748
X5.7874Y-3.122
X5.8031Y-2.6693
X5.815Y-2.5669
X5.8162Y-2.7413
X5.8307Y-2.3622
X5.8307Y-2.8071
X5.8351Y-3.0822
X5.8504Y-2.6929
X5.8504Y-3.7047
X5.8543Y-2.6457
X5.8553Y-2.732
X5.8583Y-3.1535
X5.8661Y-3.3386
X5.874Y-1.9764
X5.8976Y-2.4803
X5.9055Y-2.3307
X5.9055Y-2.4055
X5.9764Y-2.2835
X5.9882Y-2.1378
X6.0Y-3.0945
X6.0028Y-2.5956
X6.0307Y-2.6234
X6.063Y-1.9764
X6.0669Y-2.122
X6.0738Y-2.3573
X6.1102Y-3.0591
X6.1575Y-3.2874
X6.1614Y-3.063
X6.1693Y-1.7795
X6.1969Y-3.7913
X6.2244Y-2.5984
X6.374Y-3.2835
X6.3898Y-3.4331
X6.3976Y-3.5
X6.4213Y-2.0866
X6.4331Y-3.4016
X6.4606Y-3.0472
X6.5197Y-2.6732
X6.5591Y-2.7323
X6.5748Y-2.5591
X6.5787Y-3.1535
X6.5827Y-2.4488
X6.5906Y-3.3819
X6.6063Y-2.9528
X6.6417Y-3.122
X6.6486Y-3.2205
X6.6654Y-1.8661
X6.6991Y-1.899
X6.7165Y-2.3622
X6.8622Y-1.7874
T3
X6.5709Y-1.8017
X6.7677Y-1.8017
T4
X6.3425Y-2.437
X6.3425Y-2.5354
X6.3425Y-2.6339
X6.3425Y-2.7323
X6.811Y-2.9606
X6.811Y-3.0591
X6.811Y-3.1575
X4.9803Y-3.378
X4.9803Y-3.4764
X4.9803Y-3.5748
X4.9803Y-3.6732
X6.811Y-3.4173
X6.811Y-3.5157
X6.811Y-3.6142
T5
X4.1299Y-3.6969
X4.2299Y-3.6969
X4.3299Y-3.6969
X4.4299Y-3.6969
X4.5299Y-3.6969
X4.6299Y-3.6969
X4.7299Y-3.6969
T2
G00X6.5315Y-1.7092
M15
G01X6.5315Y-1.6816
M16
G05
G00X6.8071Y-1.6816
M15
G01X6.8071Y-1.7092
M16
G05
T0
M30
