%TF.GenerationSoftware,KiCad,Pcbnew,5.1.6-c6e7f7d~86~ubuntu20.04.1*%
%TF.CreationDate,2020-06-03T17:40:23+02:00*%
%TF.ProjectId,FShort,4653686f-7274-42e6-9b69-6361645f7063,rev?*%
%TF.SameCoordinates,Original*%
%TF.FileFunction,Legend,Bot*%
%TF.FilePolarity,Positive*%
%FSLAX46Y46*%
G04 Gerber Fmt 4.6, Leading zero omitted, Abs format (unit mm)*
G04 Created by KiCad (PCBNEW 5.1.6-c6e7f7d~86~ubuntu20.04.1) date 2020-06-03 17:40:23*
%MOMM*%
%LPD*%
G01*
G04 APERTURE LIST*
%ADD10C,0.150000*%
G04 APERTURE END LIST*
D10*
%TO.C,BT1*%
X114000000Y-54500000D02*
X114000000Y-56100000D01*
X114800000Y-55300000D02*
X113200000Y-55300000D01*
X125300000Y-57700000D02*
X109300000Y-57700000D01*
X109300000Y-57700000D02*
X109300000Y-81700000D01*
X109300000Y-81700000D02*
X125300000Y-81700000D01*
X125300000Y-81700000D02*
X125300000Y-57700000D01*
X121985714Y-55228571D02*
X121842857Y-55276190D01*
X121795238Y-55323809D01*
X121747619Y-55419047D01*
X121747619Y-55561904D01*
X121795238Y-55657142D01*
X121842857Y-55704761D01*
X121938095Y-55752380D01*
X122319047Y-55752380D01*
X122319047Y-54752380D01*
X121985714Y-54752380D01*
X121890476Y-54800000D01*
X121842857Y-54847619D01*
X121795238Y-54942857D01*
X121795238Y-55038095D01*
X121842857Y-55133333D01*
X121890476Y-55180952D01*
X121985714Y-55228571D01*
X122319047Y-55228571D01*
X121461904Y-54752380D02*
X120890476Y-54752380D01*
X121176190Y-55752380D02*
X121176190Y-54752380D01*
X120033333Y-55752380D02*
X120604761Y-55752380D01*
X120319047Y-55752380D02*
X120319047Y-54752380D01*
X120414285Y-54895238D01*
X120509523Y-54990476D01*
X120604761Y-55038095D01*
%TO.C,J14*%
X119952380Y-48190476D02*
X120666666Y-48190476D01*
X120809523Y-48142857D01*
X120904761Y-48047619D01*
X120952380Y-47904761D01*
X120952380Y-47809523D01*
X120952380Y-49190476D02*
X120952380Y-48619047D01*
X120952380Y-48904761D02*
X119952380Y-48904761D01*
X120095238Y-48809523D01*
X120190476Y-48714285D01*
X120238095Y-48619047D01*
X120285714Y-50047619D02*
X120952380Y-50047619D01*
X119904761Y-49809523D02*
X120619047Y-49571428D01*
X120619047Y-50190476D01*
%TD*%
M02*
